<mxfile host="app.diagrams.net" modified="2023-12-04T05:52:26.447Z" agent="Mozilla/5.0 (Windows NT 10.0; Win64; x64) AppleWebKit/537.36 (KHTML, like Gecko) Chrome/119.0.0.0 Safari/537.36" etag="z9y0-07x2hmE9eDiaxMp" version="22.1.5" type="device">
  <diagram name="Page-1" id="lsL3beTLxRnYdckkN5iy">
    <mxGraphModel dx="1105" dy="645" grid="1" gridSize="10" guides="1" tooltips="1" connect="1" arrows="1" fold="1" page="1" pageScale="1" pageWidth="850" pageHeight="1100" math="0" shadow="0">
      <root>
        <mxCell id="0" />
        <mxCell id="1" parent="0" />
        <mxCell id="GEdIswhEjC92dGf9nGLy-14" value="" style="shape=image;imageAspect=0;aspect=fixed;verticalLabelPosition=bottom;verticalAlign=top;image=data:image/png,iVBORw0KGgoAAAANSUhEUgAAAfcAAAH3CAYAAACmdRYnAAAAOXRFWHRTb2Z0d2FyZQBNYXRwbG90bGliIHZlcnNpb24zLjUuMSwgaHR0cHM6Ly9tYXRwbG90bGliLm9yZy/YYfK9AAAACXBIWXMAAAsTAAALEwEAmpwYAADgtklEQVR4nOx9R48sWXrdifTelX2v+7Xv6WFzOGzK0EAiKIqcjbbSQtBGP0B7/Qz9DAHaCSAIaCFAFCSIAkgRMxqix3T3tHn9Xpms9N6GFqVz64tbN1yacu8eIFGVmZERN25E3PP5z3FdFxYWFhYWFhZPB4n7HoCFhYWFhYXFbmHJ3cLCwsLC4onBkruFhYWFhcUTgyV3CwsLCwuLJwZL7hYWFhYWFk8MltwtLCwsLCyeGFJBX56cnLjHx8c4OjrC8+fP8c477yCVCvyJhYWFhYWFxR6wXC7x8uVLvHr1Cs1mE81mE+fn545p20CmPjw8xNHREQ4PD9X/yWQSjmPc187hOA6y2Sym0+mdHM/CwsLCwuKhYrVaYTKZYD6fAwCC6tQEkvvz589xcnKCw8NDPH/+HM+fP0cymdztaANQLBZxcnKCb775Buv1+s6Oa2FhYWFh8dCwWq2wWCwAAOl0OtCSHkju7777LnSz/F1r7gDw4sWLOzmehYWFhYXFQ8VqtQIApFIp5PN55PN5320DyT2ZTCKVSiGZTHr+v2vcxzEtLCwsLCweGlKplHoFceNW0XF3pcFbWFhYWFi86YjDuTYVzsLCwsLC4pEhjOgtuVtYWFhYWDwxWHK3sLCwsLB4YrDkbmFhYWFh8cRgyd3CwsLCwuKJwZK7hYWFhYXFI0BQRTodltwtLCwsLCyeGCy5W1hYWFhYPDFYcrewsLCwsHgEkLntYSZ6S+4WFhYWFhaPDLaIjYWFhYWFxRsGS+4WFhYWFhZPDJbcLSwsLCwsnhgsuVtYWFhYWDwxRCJ329rVwsLCwsLi8cBq7hYWFhYWFk8MltwtLCwsLCyeGCy5W1hYWFhYPDFYcrewsLCwsHhisORuYWFhYWHxxGDJ3cLCwsLC4hHAtny1sLCwsLB4g2HJ3cLCwsLC4okhErnHMQVYWFhYWFhY7B625auFhYWFhcUThm35amFhYWFh8YbBkruFhYWFhcUTgyV3CwsLCwuLRwCbCmdhYWFhYfEGw5K7hYWFhYXFE4MldwsLCwsLi0eAsAh5CUvuFhYWFhYWTwyW3C0sLCwsLJ4YLLlbWFhYWFg8MVhyt7CwsLCweGKw5G5hYWFhYfHIYGvLW1hYWFhYPDHY2vIWFhYWFhZPADuvUBcnt87CwsLCwsLifmE1dwsLCwsLiycGS+4WFhYWFhaPALZCnYWFhYWFxRsMS+4WFhYWFhZPDJbcLSwsLCwsnhgsuVtYWFhYWDwxWHK3sLCwsLB4YrDkbmFhYWFh8cQQidzjVMWxsLCwsLCwuF9Yzd3CwsLCwuKJwZK7hYWFhYXFE4MldwsLCwsLi0cG2/LVwsLCwsLiicG2fLWwsLCwsHgC2HnLVwsLCwsLC4vHA0vuFhYWFhYWTwyW3C0sLCwsLB4BbMtXCwsLCwuLNxiW3C0sLCwsLJ4YLLlbWFhYWFg8MVhyt7CwsLCweGKw5G5hYWFhYfHIYCvUWVhYWFhYPAFIQrcV6iwsLCwsLN4wRCL3OLl1FhYWFhYWFvcLq7lbWFhYWFg8AtgiNhYWFhYWFm8wLLlbWFhYWFg8MVhyt7CwsLCweGKw5G5hYWFhYfHEYMndwsLCwsLiicGSu4WFhYWFxRODJXcLCwsLC4snhkjkHlbD1sLCwsLCwuLhwGruFhYWFhYWTwyW3C0sLCwsLJ4YLLlbWFhYWFg8MtiWrxYWFhYWFk8AtuWrhYWFhYXFGwxL7hYWFhYWFk8MltwtLCwsLCweAWzLVwsLCwsLizcYltwtLCwsLCyeGCy5W1hYWFhYPDFYcrewsLCwsHhisORuYWFhYWHxyGCL2FhYWFhYWDwx2CI2FhYWFhYWTwBxOrRGIvc4uXUWFhYWFhYW9wuruVtYWFhYWDwxWHK3sLCwsLB4BLAV6iwsLCwsLN5gWHK3sLCwsLB4YrDkbmFhYWFh8cRgyd3CwsLCwuKJwZK7hYWFhYXFE4MldwsLCwsLiyeGSOQepyqOhYWFhYWFxf3Cau4WFhYWFhZPDJbcLSwsLCwsnhgsuVtYWFhYWDwyhLnLU3c0DgsLCwE+mLKc5F3HtriuG1jOUn7vOM69xN64rotEwuogFhY6wkrRWnK3sHhAcF0Xq9Uq1m+SySTW67WRfINI2Y/cE4kEEokElsslHMfxvN8VgsYMAKlUCq7r2mBeCwuBOM+DJXcLi3uATqoksuVyicvLy1j7evbsGUajEQaDgfE4URcEkn25XEapVFLjKBQKqNVquLy83IhsdSuF4zh49uwZ+v0+xuOx8TcnJydIp9Oxj2VhYXENS+4WFg8ArutiPB6j1+vh8vIyVvenXq+H1Wpl1PgTiQTW63WssTiOg3w+j2azCQBoNBqoVqtoNpsect9EcOCYTk9PMRgM0G63jdt3u10cHh7i9PQ01tgtLCyuYcndwuKOoGuw0iw9nU7R6/XQ7XbR6/V2dsxNyL1UKmG1WqFQKODq6gqZTAbz+RzdbvcWuQPRTIW6//67775Dq9UyWhuITCaDo6MjJJPJWOO3sHiqiCP0W3K3sLgnLJdLLBYLrFYr9Pt9dLtddDodtNttX+I0acvL5VL5xfVtHccJJHfT/gqFAsrlMqrVKr777ju4rot2u412u20kd9M4dcgxrNdrXFxcqDGv12tj0FypVMJoNEKhUAAA4zlaWFiYYcndwuKOoEvdv/jFL/Dll1/i6uoKn376KWazGTqdjjKHR9GI1+s1/tt/+294//338cEHH9w63ibk/r/+1//Cr3/9awDAH/7hH2I0GuEXv/gF/vRP/1QF2JnOK2i8HMPl5SX+7u/+DgDwu7/7u3jrrbeM5E4B4Kc//SmePXuGw8NDnJyc4P333w+aDgsLi/8PS+4WFvcE13WxXq+xWq3w05/+FMvlEvP5HPP5XH0fBcvlEoPBAK1Wy/O5JF2/yHgTuQ8GA6zXa7z77ruYTqfo9/uYz+dot9tIJBLGNL4oBM9MgHfeeQfffPMN+v0+crncrbEx/S2Xy6Farap4grjuBQuLNxmW3C0s7hDr9VqRd7FYRKPRQLPZxNXVFZbLped7E0wBbev1WvnsTSRuImN+bjKtT6dTOI6DXC6H8XiM8XiM9XqNXq/nIXETuevfyWNTyMhms8hkMphOp8qPr48tn88jnU6r31AwmM1myGQysXyPFhZvIiy5WzwpbJKqFYWYoh7bRH5yP/P5HK1WC+v1Gqenp6hUKvjVr36l9rFarZRZPipWqxXG4/Gt3yUSCTiOEztvfjweY7Va4erqCsA12buue8sysCnW6zXK5TJms5k6hkQqlUImkwHgvZ60HjCC/qHlwFuBw+IuYSvUWbxR2HaB9dNGt/mtaT/NZhNffvmliox3HAdnZ2e4uLgIND+bBI71eo3hcIjRaGQcD/cXR0hxXVel5PF9UCxAWCU5/oaWBo6Hv+HYUqkUjo6OjAVscrkcTk5OPFH3DwlhFf8sLLaFX0CrCZbcLZ4EttXidN+z6f0uxpBKpVCtVnF+fq6i5fnbbDaLQqGAfr8fehy/Ijj6OQE3KXdxI83lPmkWN/nWw4L25LaS3PU0vSjBf3ddBjdOup8ldouHhEjkbm9ai4cKksUuF3ySIM3Z1DDX67UiGBMkaemmcJZbBa7ztxlIJ7XYdDqNfD6PwWDgez4MaNM1d9O4ohChKUpd34f8P8hl4Sc8yDFwrPytnFe5Px5Ld5nEdTGEgTn0UujYFPqY7bppcZ+wmrvFo4QkDPqIoyCM8BzHQSaTQSaTUWbuVCqFfD6P4XCIfD6PVMr82IxGI6TTaWQyGQyHQ88+y+UyptMpZrMZ5vM5hsMhBoMBJpMJgGuSIdFIkiRBrFYrJBIJZLPZW8edTCZIp9NIpVLq/KTWPp1OPcQliTmdTiOZTKrtGTzH9wxqWywWyOVyamymgjwmAUNq/txusVjAdV2k02kkEgksFgv1u2QyiVQqpeaDx0smk3Bd1zOvu0C5XFYWg233zetjihcALNlbbA9bxMbiyUOSdLPZVOZt03ZEVO2+0Wig0Wjg4uICruuiUqmgUCjg8vISp6enavHW0Wq1UC6XkU6ncXFxgbfffhuLxQLn5+eqLvt0OkWn08H5+Tny+TxqtRomkwlSqRSy2SxyuZxx/wwyKxaLAK5J2HVdFItFzGYz5HI5FItFLJdLD8nP53MsFgujdcN1XaRSKXXMRCKhgudI/KVSCcvlEqvVCvV63XdxCfI3y+MuFgtFohQWJpMJHMdRpJ/NZtVvKMys12uMRqNQ7TqO2d5xHFQqFSVgXFxc4P3330e/3984eLBSqaj7hcewsLgPWHK3eLTgwtnv9zGbzW59v2mA02w2Q6/XQ6fTAXCtGY/HY3Q6HSyXS6P2DADtdhvD4RDdbhfdbhfPnz9XZVuJRCKBcrmMfr+Pq6srzOdzRfTz+dxDzjwHIp1Oo1AoYDgcIpVKIZFIoFAo4PDwENlsVmnZuqk8qMQrcK0VZzIZZLNZTze4fD6PYrHoESSk5u6XZaBDnsNqtUIul0O/30c6nVZCBMfqOA5ms5lqhDMcDvG7v/u7WK/XmM1mxussjyHJPcq1/81vfoOjoyMlaL169QrD4dC3oU3Y+a7Xa6zXa6RSKXVeluAt7gOW3C0ePfr9vjJvE1HLpJoWXpK6NHFfXFyo70zkYdpvt9vFZDLx1GTP5/M4PDxEr9fDxcWF0hLff/99I7lLZLNZ5PN5jMdjRealUgmlUkltI4PUeMywKHbHcZBMJpHL5ZRZPJVKoVgsolAowHEcTCYTlEqlrcmd72XJXP7P3y8WC7TbbbRaLbRaLfzwhz/EZDJR8xN0jKjkzm06nQ5WqxWOj4+RyWTwi1/84pYAYdq33/5ZqyCfz6NcLntcHhYWdwlL7haPHldXV4H+0jiFXcJ+5/db/TPXdfHdd98BgDIz00Q+n8/x+vVrpenTD59IJJTZ3QSa3mu1GoDbpE2f72w2UxokAEUwJnO1/DydTiOdTuPg4ACnp6eYTCaoVqsoFov48Y9/fEuA0s83aN8Efe7Pnj3DfD5XY+W50BoxmUyUxeTLL7/Ey5cvkc/nUa1WjXOziebO6/vq1SslNORyuUjCoN+9MZlMPBkQxWIR2WzWErzFncOSu8Wjx8XFBQaDQWD3MBnJrn+mf87v/DReP78vt9e/X6/X+OlPf4r3338f+Xwe3W4Xl5eXmEwmSlNvtVqqtaopfqBcLquqbSTdfD5/izTW67XS5NfrdaCZn5DflUolHB0d4dmzZ2i326hUKjg8PMRbb72Fr776ytefHWYRYaT7crn0BPjpUeqJREJZESgI/PznP0c2m0W9Xse7775rPL4pvS7IYiG3+frrr1Xv+s8++8zj5w/qqmfa/5dffgkA+LM/+zMAQK1WQ61WUxYQC4u7giV3i0cN13XR6/XQ6/VCu4bphK0v2lHzwE2Lvd9+l8slRqMROp0O8vk8crkcJpMJcrkcstksVqsV5vM5arWaIpV8Pq/83slkEovFAoVCAYVCAZlMBrlcDqVSSVkEJDnzHOfzuTpOLpfDbDbDYrFQZnDTObiu68kGKBQKKJVKKJfLKBaLKBaL6nhhGQeFQkGROMc1n8/hOI4ieaYCSlN7IpHwuAVc11U++GQy6YlfMF2TTci91+up2gLdbtdD7uPxWNW512Ha/2w2QzqdRrfbRavVwrvvvotGowHgpqwvAyYt2VvsE5bcLR49ut0u2u22CjLTNcH7bDgyHA7RarWQTCZxdnamAsg++ugj5HI5Veb1xYsXmEwmGAwGKoiNEfKj0UiZ5LPZLGq1mrJSMEVOR6fTUe1SGfHOfU4mk1stWFmghlHe4/EY1WoVpVJJEVu5XI6kuadSKRwfH+Pq6kpFwLNe/nq9RjabVeS+Wq1uBdQxGC2fz6sYg9evX2M8HgdGsbuu66knEBUUehgnIVMdz87OkM1mFUGHgZp6t9tVZYU/++wzOI6D0WiERCLhm21hYbFLRCL3h1bD2cICuLkvLy8v0Wq1kMlkVA9wBmlJ+Gnq25B/lH1QE6Qmu16v8fXXX6NUKqFQKCCXy+G7775TxLZerxWhrtdrlabG861UKqoPPLV4asCr1UrlhDPqP5/PK+Kj9ii1xm63i+FwiMPDQ9RqNVQqFdRqNeXjLhQKSCaTqNfrxvMzBZnN53OUy2VlWmfNAKbb6dq6nL/VaoVGo6E+ZzDjcrnE+fl56PWIez3n87mqk/Ddd98hk8kgmUyqiPnFYuFr7dDBWgbr9Rrn5+cqFiTOGhq3MqKFhQlWc7d4tKB5mIFXjFImeWyS475PUDvmWBaLBcbjsSJvU3EcatMk5l6vh48++khpvdQ4GTQnNV++2u02er0eFouFJ4ecf+nPl4VlZDEfjstP4wyKlKcQIovS0K/Oc5aCGEveMjJ+Npup7AC6FEwxCTT/UziKAo5bL/BDMieWyyUmk0mke4iukMlkgul0ipcvX+Jv/uZv0Gg0kM/nPZkNfrCEbrELWHK3ePRYLpfqRWKXpWNNmpCsm65/ty/oJEjS8zOtEwyIW61WmE6nmE6nnvPjX5IlfdnSzK2Tnp4/T0sB9wPcBLfxGFFjEuQccwz8K1/yMx2r1QqLxUIJB9yWaXSmudWFliBwe9M56cKB3zFNmE6nqmJirVZDIpFAs9lEMplU7gfAErjF/mHJ3eLBYVMTJnuOE6Ya35v4ZP0sAFGL5EgBQ//NJi6Bq6srFZCnHyeZTKLf72M6narPj4+PUSqVVIEdP0L1S/szCUIm6BH5+rWR+zLtk64H03fr9VrFGQQF9EWtUBeXXE0pdibhkBakFy9e4Ic//KGq6qfPedgY9fvECgMWOsLuIUvuFg8GjKput9tKM42yUDPQy6/mO3CzOJLc4xKWHB8tA2G/l5Hhpv2ZENR8hVXUgorFUGMEcKsFLAAVlc8ANwAqd75Wq2EwGCCVSqFUKqHT6agAuLBceb/xMK9/OBxiOp1isVhgOp16itLIWvaMFWB0/2w2U412aJI3uQdIhhxrFNC6MRqNPMKQfm4sHtTtdj1ZCp1OB8ViUY0nkUhgPB6r2ID33nsP9XpdvXjtGDcQlJ4I3JQc9svtt3jzECcew5K7xYPCarVCt9uNFMDEBZ1+zKBFXZJ7HMFBLsA0FTM9LSgXnucSVzP3295xHEWSjGg3bUOCmc1mSCQSOD4+Vn5r6b8nubO++2w2Q6lUwsXFBfL5PACoyPr5fG4UnMIsFzRn8/gMNpvNZphMJipuQAeL/dD37TgOlsulCgpkVoQ+b4lEAvl8HplMJpKmS7cIi+noYydYCbDX66FYLKqo+uPjY9V4B7i2qGQyGZTLZRXgWS6XUS6XUSqVMJlMVFpfGFhqmCWFCavBW0SFJXeLB4X1eo1+v4/5fB6ZGElGpm5qEjSNhvln5/O5ivYmdA08DHpxljjQc9fl/ljbXgoy8lyZ485Oa/TX0x9fKBQ86VjFYhGj0Qiz2QyDwQDj8Vg1oGHVPAbVjUaj0Px2eQ4AlPZN7ZjvGVFugqzkx1Q6kjdr4JvmjPnosntdEGjql64cE5hzD0CV6B2Px6jX6+o+LRQK6PV6ipA7nQ4KhYIq4QtA1ayn6d4PrFQou8v5uVIsLPxgyd3iXmDS+qgddzqdW7nYQfvgQhi0oMugsLD+72dnZzg7O8Nbb72ljqNHTOuEKiHbmoZBptLJgi/6ea7Xa6TTaVSrVZyenmI4HHqixv2C0s7OzlRhlVwup7rW8bfMgb+6usL/+B//Q5Fjv99Hs9nE4eEhnj17hpOTE/z0pz+NLbAwyJHWBApOso+9PmZq0tTe5/M5kskkCoUCarWar+CXTCZRLBY9NfCDwPvn6urq1ndyXNlsFpVKBcC1INloNHBycgLHcfDrX/8a0+kUv/M7v4NqtYpOp4N+v6+6w1UqFeTzeVUieTQaGdPj+D8FFGYvWGK3kIhzH1hyt7gX+N2kq9UKzWYztEe7JFlq2EE3fhxyr1ar+Pjjj5FOp5UpnoTCxdakxTNViyZkfaxMA5OpYATT1xjZro+d5mjHua6FnslkAruO1Wo1PHv2TI2ZmvlgMEAmk1HjdxwH77//Pn784x+jVqvhP/2n/4ROp6M09WQyiVevXuEv//Iv8fHHH3usH/LYfvMpzfKz2czjbpG/9fO5s3wuK/OZKsURUgCI4nfnmH/84x8jl8vh008/Nc5lq9XC+fk5/v2///fIZDLo9XqqzOzv/d7vAbjpe1+tVpUwdnx8DNd1cXl5qaoojkYjjwVEN/9ns1lPuqI+VkvyFlFhyd3iwYCLYq/Xw2AwCNQS5WLHlKMo2hqJKcwsClzndQ8GAxXFnU6nVfCXfiwSvilvWv7vFw2uF6oJgu7L160gNL1LIYHCBMdPcqeQICvCZbNZlEoltFotjEYjVcFtOBzeIpco5M70PQo+JkgLBoldN8XT1y7Lt8r5ptuBmnucgjbFYlFp5/o5stZ9pVJRsQ/SZaMjlUrh5OQEq9UK/X5fZSno5C7nLJlMolQqKYHNkrnFtrDkbvGgQJ97r9cL1bCB68Xv+fPnkUt66j73IOTzeZVnTc3aRBbcZ5ClAbghd9mxjZDlZP3y8iWChBn2SZfHpVbLQDqOtVAoqOj/8XisTMK5XE6VrHUcB7lczjcQLIhESe7SlK6fn665UwiggEIBhMKKtFgwrz+RSCjXA/3eEhTITPcUI+LlfEmwrj+/S6VSqFQqtwQsCmfZbBYvXrxAt9vFeDxWvQX6/b4yy+tzwEqF3Jc1xVtsC0vuFg8KrLXOiHk/SM3mD/7gD1AoFCIRdhTQdEw/t1x0AS+xkpwYbR0lf5mQJD8ajZRJ3s8kKz8vlUrI5/OeNqwkheFwqKKt5TzRhcGqcMBNRPxoNEKz2UQul1OV1ShoTadTjEYjNBoNoyk9kUio6numuaQWbgq4k3PKOWF0Ps3UUnMH4ImGTyQSqNfrKkVtNpspSw6tLcC137xQKKDT6Rivi182gASPWSgU8O6776Lb7fqmBl5eXioyHwwGityHw6HH555MJpHJZFRQqN+1t7CIC0vuFg8G1H6vrq7Q6XRu+a71bYHrxb1UKqFare6sQQw7qk2nU2QyGXUs6XNn/XZZDQ+4bUaVPmpTMRMT9OIlfD+dTtFqtfDRRx8pc7mp6lmpVLqlEQM3WmepVFJWhNlsprRaRmk7joPJZIJEIoHBYKC0/bCocjkGHlu3kkiXiCkokdp4LpdT7oJcLqe0dxK9rHy3WCzQ7XaRy+VwenqK5XKp0s94DG7LGgCmcfu5HPy21/PP5Xw7joPvvvsOnU7HQ+5+mvvr16/x27/923j+/Dn+6I/+SAl6sl2vhYVEmOBnyd3iQYGEyWCqoBuYiykD1IDrlpvZbHbjBVH3qctFXx5Lbhdmjg9C1JKuwE3AGH3D0swtSdVvn/I8uK1pPPL30r+vn6ckcLnfIOjkzt/Iz+hbl9dBBiPKsrWsOcD7hnOUy+WM2nhYoF3YOeh+chMYNyKDAplayAwAfe7ZmY8CVlBpXgsLwBaxsXhEMOV2xzFLuq6L0WjkKSwSF1H8/PJ4cnvTeHWt1fRARj0eq5U1Go1bqXBhFo6gcwjbLiglK8rYdS0+ShxF3PHqLgtTLrzpOKb4hjgwuRqY8SGLJcl4CzkHlrwt4iDOehiJ3O0NaHEXoKYWhQT8CDWKdho2hiD4jc2kiUXZn+6LDhuXLixsC53g9P3qwosJugZvgrQyhBGbjEUw/S7q2P2guz3iIOr2pmMMBgMVIyGFHd19EdV9Y2ERBKu5W+wVs9kMw+FQBWPJzmY6KbP0LCO4gwLqpH+dPnLum8FXUUhHB10CrH/OSG9ZDz2Kb1+a9WUJUdd1la+cJv50Oq1Myvwd0+qCAr1MwW1xwCh4/t/v95HP59W+eC0kwTJXXYKm8PF4HCoIMKqdWiznR46JQXT0s/M9fe76PBQKBbW941yXhs1ms74WHGm+B27a0gJQ8QUMPtTB2vEEq+Gxsh/b+Lqui+FwiH6/j8FggF6vp9xMQfckCwrRLB8Gx3HUs8UKhnq2hMWbCUvuFnsF/aIAFPl2u11F7iSM2WymvsvlchgMBgBummdIyEIomUwGl5eXGI/HqojMfD43+oc5Hv7NZDKYzWaehZbkzkpqcmyykI3u5w47d8KUo85SscBNdbsgPz5LubquG8n8HARGa5OwmCPP4/sVjZEEx8pwfj3P5Wckd7kPndyZ9iZ70pOoTfEE3Jb3iXRXSJ+8HDt990z54z3Da5xKpYzkzvr4AFQ+/Xq9xmg0UqmG1M6ZhTAajTxFmeT9k0wmkc/nVQT9crlEs9lUdQ9MApwuFMuiPbsKKrV4mIgjtFlyt9g5pGZCjQq4Xhj7/T5evXqltl0sFmi1Wri4uEC321VaFzVEGcHNhZQNOFzXRbFYxK9+9SuUSiWUSiXU63VMp1PfoDLuI5PJoFQqYTAYeIh0tVopMueLZVOjNpzhsf0CuiSRM5f84OBAzZtMb2Pkt9SIW62W2hfnZlOQTHmNCoWCyh133etOdLqA4jiOIiO+p8YfZkWQRWg4T5LcSf7UvHn/yCI/UQP3aP1gEJuO2WyGo6MjVVqY15kpkCcnJ7d+M5lMMBwOkUgkcHp6ikQigclkgsFggMPDQ8znc0Xk1NyZAmcKgMxkMjg5OcF4PAZw/Ty8evUKpVIpUqS84zh49913PcKr9edbAJbcLXYIk0+Unw8GA7RaLbTbbdXykguwJPdOp4OLiwtVz7tSqaBerwOA0mRk+9DhcKii4xOJhDLhyihrqc3wcwoauqZDLY6dyyaTidKkwxZN6ScNakuaSqVUO1Vq7iR1U0vTfr+vNGyO4fDwEPl8XmnwcXzBJr89zbrValWZj5fLJYrFosc6QJNvp9NRpDyfz/Htt9+GjmO1WnnqBtACo1sH2Ktepr7JsZqOIy0yvF5sWKNfY0nk3377Ld5//31UKhV88cUXaj5zuZzxXAaDAbrdrsftslwu0W638d5776FQKGA0GuF//+//jXa7rZrF6PegSUDk8ShU6pq6KZiR9zdTM4MqF1q8WbDkbrFT0Hd+fn6OwWCAbDaL4+NjtFotfPXVV7i6ulJaCnCjubfbbZULTK26VCqplpnSREntj8VOZrOZIj8ujJLc9fFxsTSZMGmWp/bOAiymwC1JKLq5v1arod/vK+2RCy9rxB8eHioTfSqVUmNm3rYc72KxQKfTwXw+x9HRERqNhiK8OJ3qTHNApNNpvP/++8jn82rMf/Znf4Z2u+3p/U4t/Z133sGvfvUrJZAE+dp5PDZRyWQyyo2Sz+dxeHioKhJy/mRZXO7DtH+dvPRWwaZr7Lqusqr8+te/xmKxQL1eR7/fV93qRqMR/vZv/xbAdexBs9kEAFUEyHEc/N3f/Z0i936/j5/97GeYTqfo9XrodrsYDAbG7nd+c0SBpNPpRIoToUlfD8SzsAAsuVvsEHIB7vf7HvNkt9tFu91Gu932+LmXy6Uyx49GIyyXS0XstVoN9XpdtdmUYCBaMplU2hm1sdlsZjSJA+ZSqbo/lgF0NNHK7UNzS0WJVFMZWJZUZRAdhYfpdKryu/WiOPT7k0hM49YRJR5AfpdMJlGr1dQYE4kEDg4OFNFxXyTGo6MjvHr1Slk0oggZ1Mh53GQyiWw2q9rOUmAK87GbtHYKTxyHn3VCIpFIoNPpKEFRL5PLoj3NZhMvX74EAHz88cfKF8+4EIJaOru/TafTwNgJvabAYrHwzLUcs34dOXdBjXQs0b/ZsORusTe8ePEC6/UazWYTV1dXatGkFgRAmeUZIcyuXtVqFc+ePcMHH3yAdrt9q4NaLpdT/s10Oq06j7HxSRi5B0UrM5hOr/MuYUp14jFZ2U2PBOd3JBMdk8lE9WuX6HQ6KJfLSoB5/fo1nj17FuiXDUpbC4IMaANuAuzk+AmOKZlMYjAYRNI2Ob8sMsPxZ7NZrFYrRVqyxKw+PhNY/pYuhSCzN8FtGOPALAmdWOVnsrqcLri5rqvIXW98ZLKWUMjjflgCOArK5bInfkM/T0vsFpbcLXYCueAlk0mcnp6i0+ng6uoK3377Lf77f//vnprtxHw+R6vVUlpIoVBAvV5HtVpFsVhEMplEo9HwHIvmd5LEeDz2+OCDitgkk8lAbYopeEHEboLuJ89ms5jP57fM1bQ46OROjX0+nxsXZpaMnc/nSnDgXJngt7hHPSeSUalU8tTWZ136RCKhuqSRiIM6+TFljBHq2WwW+XxepdrJyPQ48QPATSpb1DRFXmNmRTCGg1YffY6kz3w4HBoFMwAq2JNm/m63q2IMut2ucfyu62I6nQK4thTw3qQPXe4buL5P+GyEpXlan/ubjUjkHmeRs3gzoS80xWIRrusq82S5XMarV688mjZwU3aTC3MikcAnn3yCxWKBcrms9iMXKabHzedzpWVms1lMp1OV+sQ2pTqouQeRgJ8Z3vQc6KZjngOjvvle7tNPuEgmk2r8Omh2Xq1WOD09VfvwS4WL8syGnRsFCFlQxnEcRYS8Nuv1GpeXl8Z9SjcEAM97aq0mTTMKMbmutxOfKZbCdA/I659IJBS58rx0zVy6HFjrwDQ+uifYYY/vea/rYMc8xl7QchMEknsUWGJ/s2E1d4udQQ8qq1QqaLVaWCwWSKVSqsAHtW1ZxY01uNPpNF68eIFer6faj+oLqamnugy4Y761iUSpuZt8mn4R2H7veVx+57qux2JAstaD+Pw0P56TDFCT57lcLlV3NqbwyQI528BPC9QtEiTG+XyObDarUvkkKernQ/M750L2mg/KPAgbrxwPYBZQgurhs5Y7a77T+hMUFOhXG14/Bk398j7U7zXOI+8H/u+X0QBc31NMx0un0zg6OjJu5zcueT4WTxuW3C1iIQ6RUKubz+f4P//n/yifqtyPH4E+e/ZMbRtFg9P3EVdzjXKMoG02JVi5T/qj9XExQns4HOLbb7/Fn/7pn/ruIw420e71zIAox/cjlThNc8IQFlzI79npb7lcqnRE/t5P6DLtJ2w77lOfM/m9FFDkNkHHWK/X+Oqrr+C6Lt5++21PjjthLa0WgCV3ixgw+QCDYKrmRgQRAs2UpsXfbyGTwoLfMfXt/UzBYcFoQdr+pmBKXCaT8VSsk6hUKjg6OvKM0XSu+9TKdDO6/t4kaJmi1MMQpmXGFTIJvYjQJvNmOkf9O797K8j6E7Q/ue2HH36I169fq20pRNNt4xdQaELUMrcWDw9h19iSu0Us0I8oc9X9wO38fMimBZwBRqwClslkVEER3TTKwCj54ufSpyoFEQaEAf6+7yDorUi3JfgwotA13VwupzIPkskk+v2+JxiNc02XwK7Bevg0s8uXiVQYkyCj+hmP4Ees0mxN1wM/3ySvX4LBd7xP+Jf3At0FPFZQNgJr1DuOc2tcDD4k9N4Bpv2ZBALOgfyMdeqZWTAajZRfn+dmgknALpVKxu8sHj7Crpkld4tYkIU2gOAbbLlcqkIeuoatg5+vViuMRiNcXl4ikUigXC6jXq/fWhQZ6SzrwMv//RZL+kBpGTCNx2+MjuOoxd7PqhBlkYyiVenzJX3dFxcXKoqdzV3YKIeLfCaT2ZrcTVYMx3EUuUuCzuVyal7lb+hvl2mCMgWO+zSdPwU2kjvz2Dc1O3N+ZNDlarVSwqCse89jcZwMDpT7opvJRO48dxmUR4HIb2y6gEPLgnQdrNdrXFxcKGE3nU6j1+t5XFhR5odC2rbliy3uFnHufUvuFpHBxWU6neLi4kJ97rc4sCwnA9yiklq/31epQ1w0JaHKCHTWftdffhHTq9XKQ+5xGm3ITm76mIPmQTehy23jLKz9fh9ff/01/viP/xjAjY/+6uoKlUoF2WzW07xl26YyfiZ2kmA6nUa73cbV1RU+/PBD9Ho9jEYjT218WRKYAWzMcacJ2XQN+v2+2j6fzwO4vnZy35tgOp2i0WggkUhgNpvh9PQUg8EAo9FIHQeAqinAcU8mE0+UOr/nPWHy11PA4n2ayWR86y9INxQFOWmBMrmjWADq/Pzcs9+w+9FxHFUZ0OLpwpK7RSwwfYfFNsJ8551Ox7dbmAnr9RqDwcCjUbASGLUSacKXEcckdqbVmcy+jJbXNfewgCw979i0TdTzCzuen7+5VCrh4OBANZJZrVYolUrq3IGbgix0abDq3S60M33MTEN0XRfNZlNp1YywZ9ojX5zzZDKpyJCd/HRQQJPf0zIjEcdPTjM0z6NSqXg6EHIuWcJYWidM3Qknk8kty4TrXmdMsMAQIbMFgsbH6ypN6373ynK5RK/XQ7vdjjwPjnPdRS6fz996RiyeFiy5W0QGNc/5fG4syiHBoiyz2Qy5XA6np6dot9u+/kB5jNFopJrB0AcftAjNZjOPD5XmVqmxyyAqau+SsP00eOasBx0/biCWn7Yqt5HvqaHTpN1utz09z9frNVqtlscSQZKQfdC31eR1cG7kcWVJVboLJMmxCI8pn1yC2msikVCCJM9JH0MUSM2YaZiO43ia2ZDE5TyxuFKxWESxWPSUJD44OFD7JPEzFiKfz3ta95o0dr0+As9PN//7gamR8ln0a5QE3K5bwP1bgn88iHOtLLlbxAJ7srfbbQDBueBcmOr1OtLpNP7+7/9e+epNIOkxb1pGApsKxUhIHzx9/KYHgQF1puAsPVqeGvsuiJ37190T0pfrF8lPLXY6nWI0GmE4HOLk5ATlchmLxUL53sfjMZ4/fw7gWqvsdrvI5/PI5/MoFou+JV23AcnbRLy1Wg3ATTMemprH47Fq6cvvAO9cHh4eqv1eXl7Cda/bz7L+/SbnQZcPsxFKpRImk4mqmMcOg9lsVgWaAUA+n1dBi51OR/3+8PBQ1RuQlQI5vna7bbRKmMZP338cMKYlLH6BSKVSKBQKxu8syT89WHK3iAX6H8/OzgCYU52klmx67wcSqwwQklqun1ai++CDypCmUqnQCnVyW5P2b3qvBzKZtFIKCrppXo7fVH5Wasg0qwLX7orpdIrj42OlxU8mE0XkbMpCTbTf7yOfz3tM9WGuhtB0m/+v6a5WK0XG8jueJy0mPA+5rekYUgiUwg+ryW0KFlRynOtKe8vlEsfHxygWi6quv37eUuvOZrOemAv63CV4/eIENUqNPcy6RTCmZTabhUbhl0ol1Ov1jYMRLR4fLLm/4fDz7/pty0CiVqtl/I2uYUv4leEEoBZXdpEDbvz7evMSPy2D2qP0uZuikGmWp6apd+fS30uYIuX9SDBsPk1zl06nQxf3+XyuzO2FQsEjENC0TJDIpIZNhC30poA6HbVaDYlEAhcXF77b+10r/o1KOLy2pmNE2Qfngb0HaKZmHEY6nUaxWFTCH6083HaxWKj/eR+YfOm0CgVFx+vnxXvRdV10u13jc6mf43K5VHXxg9wTtHbIfZnmxuJpwZL7G4xNpHhql2yHGaUAB8mPZTv98su5nd6lKw708q06TOTO/GOayHeh3WyyWJIwTIu5JEG6HzhuGZxGEuL/9NUzSj0OmZqgCz65XM6TrgbA19ISB6Yx6qlwm84xf5fNZtW4Se7SxUA/ujxfvX6AXkXRT+P3E0jpa+d3snmQHuuhC5GsYW/ahvvkNdcRNXPFkv7jhSV3i1ig5k6zqTTvRtH8JXlLjEYjtfCyPzt/wyYcfC9hOnaQOZkLt4wUlv5Odm2T+zJp6/o+40LfXxwSlI1x9PNmihdBzZ0R60ElVqMIN7KWPY9NDZZEH9WsLGMQopCIqS5/mOau3x8cG9sCL5dLNT+MSaAA47quuhccx/FEy/N4ppgM7i8KNvG1y98Oh0NjB0NG7bM3gz5ui8ePUJfZHY3D4gHCz08c5Xcm6PuSC6XePMMPJs0+aFw66YeZyP1auUYJSNK3DyIUjikK+QDXwg1wO7rZhHq9jsVigdFopHztPIZJSKA2z2Y8QYhyD2QyGRweHsJ1XVxcXKixb+sPjwtdsCF04cM0j6wPkMvljEQcJrAGfR4maMj/k8kkCoWCamMsr59eEEgeV1pg/O5nCih6XExUTT6q0G5xd4jjRrXk/gaDD25U7UGW66RGaAqoI1arlfJzBi1Em45dR9SFWH9A5HsZ8CVLq+pBbbo5NWhs8himcbPQC10FJoLQ51mOSxeqpNtBf+n7lU1L9Fa3JB8KDTw+YyFms5mnQFEUH70OnYT85ijq/uR2+pzxnBjolslk0Gg0fP3ipuNF8fHr2/C4flUNF4sF0um0Eo6YWx8m1HLudEsT/7I8LdMm+ZfZAbKPgd/x9Nx+i8eDSORuJbenjai+babB0R8Zlv+tk3uYpuH3nR+iSrFxyJ2EKclTkjx/H6UuvTTZ6sKTPiZG8euE4Kd1kigonMn5o/Ala+5z/zpkzXNZDVCfK/lbtu5l8SBZm12fy6gwmba5vyhWEjleneDktiR35rbTFL+NHz/qOZlqy8uaC/T589mK4qrRLT3ynmN52UKhoF58n8/nPQKFHxg3QDeQnkFi8XBhNfc3FHIxG4/HKvo9CKweN5vNUK1WFbnri69ODlz4Nw2uukvoiyx9szKtiYQZBLnQUjuT2pbux2daVhSB5erqSkW/c4ySDLkgS23br474bDZTv49qVqcFp1wuqwJCpiDGKESpWwXk78IIN0iz5n1p6kcvj315eanmUOa2bwM/QYRxDzoYoU8BUl4HvzkwxT2wKiHvK/Z7Pzo6Qq1WQ6PRwMnJCRqNBvL5PJLJJC4uLozmf6JQKGA8HuPq6grFYhEHBwfIZDLWXH9PiDPnltzfMJiCz4bDIc7PzyP5wyeTCebzOWq12q1gom+++QaFQgHHx8ceH7es6sVFKIwco2rwQWQYdD5+GiHJPZ1OK9OlTCOT2nAYZA60iTgl0eRyOU+VPROWyyVmsxkODg48c88AOhnfIDV/mtfn8zkmk4lHg6S5OJFIGEnFhMVigclkgsFggLOzM3Q6HU8ddGJTk64pOCzK9rrGrlebcxzHEyHP4LxcLod8Ph9qCo8yFhMoyNEKJO8Lac3idQm7DnShpFIplEoljEYjZZ4vFAoege74+BiHh4eo1Wo4ODhQNREWiwVarRbOzs4CrSKtVku5MGTtfYuHD0vubzD4UE+nU3Q6nUhSIU2xpVLpFrkfHh4il8uhVCqpz9frtSIDks0+WpHuCrJWODV4qbHLVrN+4LlPp1PP9kGkxYVfBsXxf84h4C1TqoML/GQyUWVTZ7OZipju9XpqGz2vX3bT08eoW2IoZMg67CarDLMipEAktUSesw59DPJc/QjYROx69zm5HY9Pa8ZyuYxkbg47vsl6wTREBs5Ji448Z5q+pQUhiNwzmQyq1arHiqOTe6PRwMHBAWq1Gmq1GrLZLGazGYbDIbrd7q2ceh2saicLEunzaPEwYcn9DYLfQ8xSpUC4tstFyETuH3zwwa0gO5LBcDhUmlJQABMXLp0sTAtvUGe3OH5BvS46F0qSO7fR+8j7nYOOoLx7HpvnTHKSJK8X3GH6lumcmecPXGvOJC3WIWfDEDk/rHAW1W3CWvds1MPx6NH61EBlPX/eQ7zWfkFm8n+/TAuTxs4YD1msRubmy30kk0nVqpZBbbogE9X37wcKU5lMRlUO1MfPvxSYSO5BGrXrXqfplctlda4kdyKVSqFer6PRaKBSqagSuqxH3+l00O12A697uVz2pD9aPB5Ycn+D4Efcw+HQ08I1CFw46/W6h9xd18Unn3yiTLX8jET4ox/9CC9fvkS/31e+RX1RyefzyOVygfXn9w1dawduNHbZoMavmIqcjzipYcPhMBK5Usjwu5b0oS8WC/T7faTTaVxcXKjFn+cjBaxer4f5fI6joyNjMJ0O1odnPf/lcqkq5ZHIgZuccp30CRbjIYKOHaQZ8y997HSlyP8J3mPr9Rq9Xg+9Xg/lclmNX9bf19uwAjeCqU78UgAh+dItQCtKPp+/5apgkGo+n1eBdUGQcRsURE9OTlTcAE3nFBJplmdcxfn5OZrNJrrdLprNpqosqBceolWDwoIl98cHS+5vGKQGMp/PcXZ2hmw2i08++QTtdhudTgfD4VC1waTPfDAYYL1eq6jbcrmMH/zgB54AoVQqhXw+j2q1qvZPEy59jbINqQ6ai03dy4Ii3v3gF3BlStsiuGDSx04yp1bFc9q08Igf4iyesiIdcLuRDq0fvNbMcOB71jGXcRHr9RqTySTUcgPcpMJxPubzOVKpVOy5oYVCCgEm7TioFLA0QUsNlnETuVzOU0VO1oZntzdpKZGkLecozBIkxwJAFfUhuTNCXZI7BSHHue6vTvM9EaS5r9dr5PN5HB8fq+p6JnKnq4xVJZvNJprNJjqdDq6urtBsNm8JXhw7O8hZYn+csOT+hoELw2KxwGAwQKfTURXgGHA1GAyUmZ5VwSaTierJDdz4KyW5k8BZJ15qQIwGpqnUBFoC/IqKSGxK7tRMgsidCzlb1pKwqGnqBGY6jslXvSn0fcnsA+6XJEH/Mc9F9zGTyCRZkfiDqtdJkNyl5i5fpngA0/nHnRO/4EnpY5f94/leZnXI38nYA5Khn38+7BrLv4xal215KVToKZV8LrLZrBIso85FsVhEo9HAYrFQx6HPndc4n89jPp97fOzdbhe9Xs/jc+dznUqlbrkPJKyv/fHAkvsTQ9iCycV/Mpmg0+kobZ0+OP7f7XY9WhQXk1KphHK5jFqthlKp5CFiLmpspUkNmQKCTDMzgYtw1NKdm0D3Z/uBApAMNDP53DcxJZsQJ0rbzyxPgmINdn6mE7zeWY+Bbrobwa9ELn3UuiUjKrnrJm3pg+eY9e39wHOWZmreY4yM14VJ2WNdZnCERff7pX/J8XIMsnAMNXgSu7RMrddrNUYpPJuOK91A6/UapVIJtVpN7UP3uZPgaYkbj8eeZ53PubxepVJJjc9PmJL7jwIrENwPIpG7Ncs8DsiHP+iajcdjjwTPV7/f9/zPhZM5wMViEcViEYeHh/j93/99YxEbGdQlNSqSu6k7mRw7gFvk77c4+JFpEFgNze/4JEZq6VxsSexRouVNY9rlMxTUeIcmbhKFLHADwNMxzxQFL+FnfeD8SGJnlUNJ7qZz32QedJLh9ZPpZTKLQ0bK857zExyi3ltRxgbcWBGYPib9/tKqEAS/51cnd/aZX6/XSpiQmvtyucTFxQV6vR6q1So+/PBD/PznP1fPeLfbRb/f91iACoXCredjG3LWAxIt7g5Wc39CCPMnAzeakh6pa9rOD9PpFF999RU++OADoxYe9BBL86hpAdG1uiBEWThMxzHtVw/M2hVMxLavRU4eK8gyQVOwn487DhnTpx3V7L5JxHnQPv388/rfoDGZEKaphrmJpCtAH4cuMHFOdDeASXiV95AshqS7HeT/77//vkqB++u//muMRiNledEFxagZE3HcYpbY7weW3J8I/MyhhFwUmMKkv5i3TDMfNXeZGkYT4mQyUYFZ3D8XeaY9UXPkghGFtMP8nGG/MX0eZDrXhRz6n+ViLM34YcKT3zj0BW6fJTylFYJamek8ZV36KIKhvn/gxs0xm818ydzUaU4fj5+5269LHcmLmrskc923LYXJoOPGSQf0O5/VaqXM/fL+94vzMN2j8juTNU53l8n+9HrjmdVqpfLUJ5OJyozg76UrwnEcTxBgLpfzvGcWRhwBya+WgcX+Ycn9iWA2m6nuXH4kys+l+X0wGKDf76vPhsMhXNdV5j2a5fP5vIr4ZcS8XpiF1dFkFDVN2UQUf7cJcTW+MHMrv5eR2sANIUrIxjqm7zfBpnEFYVoQCUzvVS/JEICHCGje1gnIpI3KfXM/wE0uvm4N8AsS090gcn/cBwlaJza5LX3VHJMuhOpzZSomxH2l02nf7/Vj+50PnwHeM8lk8laN/00sOCZiJ3lXKhW1nQyKZGyEvMer1arnedTv5Wq1imq1ilqt5vnL12AwUO2Zw4R0x7nOAigWi5HP0yI6wtZDS+5PAK7rYjQa4fz8HMB1MZnZbIZXr16pbcrlMt59910AwPn5OS4uLlSeKwNsLi8vUalUPDnRrVYLs9nME+iWzWbRaDQ8JVnn87nqF97v9zGZTFTnMJk/TFLZpQ96W0gfuu6jnkwmmEwmapGUY49ibvT7XuZT+227yRxJq4kcp3yvF/9h+tVkMvFYFPSFv1QqqRr4cqwU6Hgsk1DgJ8zIuWcjl6hwHEelbRHUMKktzmYz5HI5NV6/0q6OE722vglybmU8AD+XFjDT8fXzCnKXSeGd1jYTGDjLVMjFYoFnz55hsVio9/p8n56eol6vo1ar4eTkBMfHx6jVaiiXy+j1emo98IO8LxqNhro227pjLK4RJxbCkvsTASPSh8Mh3n33XWQyGZTLZXz33XeeG+Lzzz/H999/j3a7jXa7jVarhV6vh/F4jLfeegvT6VRp6i9fvlSBcNTKGIzFSmcs8DKdTlEulz0LiiR3VrnaxKwN7CYgzXVdlb/PRiqTyURpaxQ8JBml02lVPncTjd0UQ0AhRy+NSpB4WTgnTkMTBpc5juPRIKm981yZAz4ej1WdcvleQhJoUDCh6dryvtQFAhnsRs2Tn0WdZ1mTIJvNwnVv2rnSwqLPsTyP8XisPksmkxiNRqoZjiktMMgPz+tM6wg799G6EPWc4mrz9J0Dt+sdMKKez+5yuVSpcwBuFc1xXRcHBweo1+uo1+s4ODjAwcGBMul3u11cXV359j7g2JPJJEql0sbPusVuYMn9kYMPTzqdRj6fx3K5RKfT8fjGZ7MZVqsVvv76a3z99deqGhoJjMUznj17hsFgoMhNpvRUKhWlvXMBleZ31quWpC47hnEMQQ97nMCbuME6FESYokdiMdVFp8YlNRTpc9fH4De2KOdgKugjz22xWMRqs0mtnSTO//l7XZBhgR6en6kBDD/Xm+boPmzTtZUxGNK/TF+szEXnd3F8upLYgZv0NpIeTe2m86ElhuRLLZ/3rG7F0SsyBsUYUOgw9RXYJsBMjx+h1cxv3nj+FPaq1Wqga4nEzhcL4Mg8eaZimiw0zBKQKXkcq8XdwpL7I4bUBBuNBhqNBhKJBP7zf/7PWK/XeP/997FardDv9/H111/jL//yL/GDH/wA1WoVR0dH+PDDD5WWSE0un89jNpuh1+up7mO5XA7lchk/+9nPVAMKFjKhljObzfDFF194/LE04S6XS7TbbaPfUJ6LXPyDFgNZBERqTKa54f+src7/Z7OZb8MTWiIojMia6BJ6Wp0esSzHqIPbBOVXs3Z4HEg/OgOnqL0zjU8KOo5z3fKXBGhyF0ynU1XUSDbS4fnJvyboQWuyipxuVo8DmZ8urUrsZTAcDm9ZGmTgHS0V/X5ffd/tdlXqGjV7/sZEWLpVRpap5Us3xUfx3UeBvJfDwHk5OjoKtKAdHx8rs/zR0ZGKxWm327i4uPA1y3OOWOvekvl+EEcotOT+SKEH5ciL3m63cXZ2hi+//BIHBweqCl2lUkGz2cRkMlH+0w8++EDVkM5ms/jiiy9QKpXwgx/8QO2Pldrq9Tp6vZ4K4vn+++8VCRYKBfT7fdXZiuZsnRijaLt6dL1+3lKAMAXo6QsLLQ6y/zjzvU0a8XQ69XSx81sI5XGDNDq/hU7WCZA92U3nLI8RBJnDnkgkPEIKq+1Ru51MJigWi5768GwkkkgkUCgUVFaEPE8KfACUYOdHWropXuZ7s8hMFHI3XVPuk5HdwLWPvdlsqvK4QRajICGSlg3d2jAcDuE4jm+QmPSxy77nupVjU81dHzu19qjbn5yc3BqrBH3uxWIR/X5flapttVqqdK308UuLS6PRuFXCl8fZ9nwt4sOS+yOFn6bK2uw0z49GI+VXJmRwWL1eV2SwXC49KTDAjTl7uVyqTnDJZNJjcmdUMPdJ0tPTsHb5gOuaeRBkOh5wE6lO/7L+e7l9FA0kyBcbFSTNbVPkdJNrJpNRPlk9XZLV6fQiNCT3oKI0MgAxiCAJvQ0riZ0a/KaQHctojue45f3I+dWvlanNrd+5cN/83w+MmCf8BJOgY0UZE69DVHJ3HAf1ej1wDI1GA+l0WlnvWLVSvnTNnS5Bq60/LFhyf4Jg+Ug+jNJUKxdAStRcCGVOqwkkdwBKW6PmzEWSD3hUjT0uTJYKCakpESRrfi6LrnAe9O23QdxFTpqKdf963H0xPQq4IQkKaPyOc0QSIgFK3zCJw2R257bUbnksP9A3rldpY/W2Tcmd58Bz473N8eqWlah12/3AHG/GQviNSfexmyw8fogbUOcXI6GDQrkU5k2gRW84HKoqdnp5apI73SJcN3SB28/iZXE3sOT+SGEiTfnZbDbzbeM6Ho8xHo+Vv3w8HqNWq+GHP/yh58GX5A1c58Bms1nM53OMRiOP2ZLNZ0zmad0vGQZ94YkbZAXc+MMJSXB6UJh0H+jHiuNO2PT89O90H3wcsybPi1YA3gPSskKS0q8LXSoEA6co0FFooDlY/lYWM5LzoBdBkmZ0aZ73Q9j8cyy8pvK+pAYKQAXMmRB1bmXg4XQ6Nf6O9x0D2PZJbiazfNB9mk6ncXR0FCjk9Pt9dLtdtNttnJ+f4/LyUpnlLy8vcXl5qQSbRCKBSqUSycce1zRvTfnbw5L7A4TJZwWEV2+TxMw8VhP0Dmc0rwc99FzkU6mUp6gLEeb3jvLw+53XLhZIaUqW+6RZPswM7+dHDHIPhPnQCZNmpwtZUcGiKdRq9TKoUhPXzyGKBugXW2D6rb4No6mlAGbqT2A6nulz/br5WVzkuW4DeY4mrVReO/2894koLiqOidYTv+fMtDbwPcvVcl1hiiz3z334xTfEgSX2cIStC/u96yw2wrY3tjSJFQoFT1S3viDKMpmdTueWf940Lrk4h51HVK07yFSoH39bMGCO0AnPD7qJWs6paaHfVCi5y4XNNEZ5Pn5zEvfc9MA0v22i+o8JGZ0eZAEAbl+vbYTGoP3chSk6rsVIt6TxOkghUF8nuD7INUPG0ViT+/0i7FmxmvsDhcmXqfsR+b1ciPUHlkUswrSy1WqFZrOJarV6q5Ur961rCEH7DDKtb6KR+gUQ+lk4TAsZNUfm3efzeQ+hmIQRE+GYtgG8keq8Fn5jDTtXXdsMm6sgq47uw9evo0mr536C9qvfe9sKZ3HcGjpZ5XI5uK6LXq+nrrXpuHHmVIes6iejxOX30jrBtEG6SEz13+VvTeOKes9EucdM+40rSEpri6zr7/cC/C1CvL94Pa22Ho4492wkcreTfrdwXRftdhuJREJFtwLXkb1XV1e+vwGgfJj1eh3lchkXFxcoFouo1WrKD2iqI06Mx2Ok02lVFU1K+LrpjelGQfW49fGFfe/nbtB/z2PSPy0jmSUKhQLK5bIqtlOv11WK19XVFSqVCgaDAVarFWq1GoBrzZ51+qvVqkfQCTqPXq+nenj3ej2Uy2WsViuMx+NbDToA+F4DfV5kU5YgkyevFWutj8djpc3S1y41Z7biZRU3+tEZ/BbF+iCj6XXyMGm0Ji3Q77z18yNyuZzH/03/PX9TKpUwHo89cQGZTAb5fB7dblelsbGPQpQFM5lM4tmzZ7i6usJ6vVb1BxhHQBSLRdVnvVaroVAooFKpqOdxsVig2+3eOj8GuulzF0R6cYVG/bebkOrBwYH6nwF6tVoNh4eHODk5QaPRUDnyBwcHmEwmqiy2jmKx6MnMsQS/W1jN/YGCFeEk5vM5ms2m5zM+oO12G51OB5988gl++ctf4ssvv8RoNEKxWESlUvGQS1BnJ/rXwkAykNHmcbUM/X++99PSJfTa2LK+uRwjK45xnOVyWZXHrdVqqgLXbDbzNOCYTqd4/vx5rAjrfr+PTCaDUqmEbrerfJtSCOG4ooJzKyO1TeA+2UiF507I65TJZJRmJaPz0+k0xuNxoKWHddrp1jBd+021QnnOfvviebHqnYzWpjupUqlgvV6j1+up8aXTaVSrVQ+5sxRxFDiOo4q6sNKbDBIEoGoDUJiu1WoolUrq/XA4xGAwQK/X85yn4zgYjUaK6GThojBi3xQU9qIWEEomkzg6OvKMicoHyZ0FcKrVKhqNBnq9Hvr9vu88t9ttVCoVvPPOO7fOy5L89rDk/sBAjXg2m6ngFy7u4/FYLQzAtYZ1enqqolovLy9xfHyM8XiMRCKBarWqOrhJkmLluPV6jdFohEwmg/V6jeFwqEpmBkHXPIO0r30F0ujBTaYAQvoQSWxceHO5nCe2gG4IWisYCU1N3g/6+VFr5n5kv2zdzeE4N1Hopv2aPjOl7en71F0DvH8kifO+4m+A6/mcTqeh7hbZQW6XMN0r+twy6j6bzXpiJphWx/OjRYn75fnn83kAwQWDgsY3GAywXC6RTqdRqVQ8Ef8cYz6f92juxWJRCRO0CA2Hw1v7d5yb3PlSqbR3cvO7zqbjptNpVehKvyY8T5ar5TkvFgtP50kTisXirSDIbWJV3gTEuS8suT8wrNdrDAYDtFot5PN51aBlMBioRi9EpVLBu+++i6+++gqtVku9MpkMjo+PcXJyYlw0WdhkPB6j3W57tE12gKKJWwbVENJkuAtiN5kHTX5n/cGXC5RJc2cONEmuUqmgVCqh0WhguVzi5cuXyGQyaDQaauF3HEcJOeVyOZJ/lttkMhnkcjlVD4CLeFBXtChzJOeb6Wx+kGlrq9UKBwcHcF1XaYWTyUS5buR+WI6W4zWNwXFu0vT8cvE3NRHr0O8F1iuXTWY4Bp4bXQzdblfVlZfafb1eV/vhNYkaJ+A4Dl6+fAnHcVAul3F6eqr6LlAgpuZeKpVQqVTUfZXJZHB2dqZaK/f7fV9BJk5XPNM87lIoYLyANJ3L665r7gcHByiXy0gmkzg7O1N58SR3fWzlclndhzI+xWrtu4El9wcCLnCJRAJHR0c4PDzE2dkZ/st/+S8qt1SvPnZ+fo4vv/wS6/VatXE9OTlRZkrg2vRVKpU8iwaburC29nA4RL/fR61WQyaTwVdffYVf/vKXeOedd275/0yQ2h8RNf3HZMLVg6V0MqM7YLFY4Pz8XJWSNc3pN998g3feeQeFQgHtdltp7o1GA6PRSPlCSe4AUKvV8Fu/9VtKu6YQEbbo/Mt/+S8xGo3Q7XbxL/7Fv8B0OlV16v38jlHB+aA51ZT2JSOemc+/Wq2UMLdcLvHpp5+qdMZ2u61+m0ql8OGHH4aOo9frYbFY4OjoSFUpnE6naLfbRnfKJlqYrh3m83nkcjllhQKAf/AP/gEKhQJc18UXX3yB6XSKYrGIf/tv/61nvvg/78ef/OQn+Oqrr+C6Lv7Vv/pXoWORBF4oFJQAxz4M2WwW3W4Xf/VXf6XIPZPJoNfroV6vY71eK5L78ssv0e/3b82JFCD53N4FyZn2L+MW/uiP/gj/9b/+V2Ut1AMKSe7VahWHh4c4PDxEv99XVsSzszN0u11fzX0wGOC7777D4eEh/uAP/kCtb7JFr8XmsOT+QCA11cFggH6/j1arBdd18eLFCwwGA9UMo91ue9LZHMdBq9VSxSYODw89gWblctlD7qwMxsAp2dltNpshm82qdqhybDr8FqldzYfffvXjynQ+fTuS4Xq9RqFQwHw+V77Y3/u930O/31cLNY8l9x8W8SvHRxKlL5auD6ZphQlHYZBCFs9Z15o5XtYkoKk3m83i5ORE9RWgxYLFh6ilhSGfz6va9HqgpWmsUWHaB+uzs2oiiRWA6nrIc2OWh2me9fcvXry4FQfhBz4nPP7V1RWWyyVyuRw+/fRTVe756OgIjuMocmfXxMlkop5nvvyQzWYD6/TvGn6xMo5zXWXvq6++QrFY9DQTkkK3JHf2naAg02q10G630e12jedcLBaRz+dVzQwG/m7aRMjiNiy5PzDQ5y61M3ZqSyQSypelExmjg7vdLk5PT5WZkj4/mQPMICBZJz6ZTKrj0o9o6mkdhH0tSLpWL/8SJHdJwiQgWTedxTgymQyeP3+utCWpuZuOHUZW0vJiIkkZze2HqNYOvVysXHAl2WYyGRVUSZ/zYDDwmNhZNlhqZX6EDUBZMkwukF364RkYKMk9l8spopFjzGazqFQqkTvoycBJHSb3k7wubGlMwU3v0UAzPN1EtIzxxSwMaYpmPMF8PlelX9kGl3/vSpN1HEfFNrBBlOmZI7kzIwC4qW6nvyS581xzuZznfmHsjyX33cGS+wMBF1w+xG+99Ray2SzOzs6UVt7tdnF1daW0Bwk2fWk2m/jss8+QTCYxGAyUZC2l7+l0qhZMkjhN9GyFGkWLi6ph+GkH+mIRJVLWRPTyvU46mUxGtQDtdDqo1WqKzOlXZ2yDadyysIc+Bp4XBbL1eq20PL3qHDuERTmvqPAjWX7HkquJxE1bWQZXkphkLADLs9Kio49PtxzIY1JQ2JbgpWDCe1Q2M+J1kuPjtdT34fc+yvGB23UjgGuXDU3HyWQSo9EIs9kMx8fHKpI/kbhut3txceEJKtODy7jfTCaDer2u2jN/+eWXKjCtXC4r98OuCd4kxDmOowICGazrF2CbSCRQLpfhui4uLy9xdXWlNHb+r5M743v0Y9ogut3DkvsDgZ8Z2nVdXFxcKBPX1dUVzs/PlQ+Yf2u1Go6Pj5X/i8VaGo2GIneC5vfJZKJyhqfTqQq4WiwWquXppucRJcgqSCPXCdTvvQl6p69sNotUKoV6vY7FYqGC6ur1OlzX9SV3v/ORYJodAEwmE2WCZy9wQubymo4RFDhoAgUOGWRHsuDnJCEGR9KUze2CKsX5fc6XHlhFy5Ccj6B9+R2P+6I/O5vNolAoeOJIWHyIcyRzxPcBec4HBwcqIJFmaem6GQwGSmNleqpsviKD6aS5PygwdZfQr7m87xKJBI6Pjz3nzPemsTBug61hz8/P1TlfXFzg/PzcQ+6lUkkFqZosJBa7RSRyt5N/d+BcX11dYbVa4ZNPPsHf/M3f4PLyEtPpVDVp0H3uwI1JWFbK0jUPbudXaYoPdZSHb9sFNSxKOuwYft/pmrZuXpXkplfT8juG3xyYKpXpY+H3QdpXkGVD/244HCKZTBo7uenjlNo5AwRNQYy7gF/znagwCTmmserjNllX/LbdFvqzwzmV4+XzKQUw171OxZSCs9wOCC9QZEJUt1EUMPZCvg9yFfGYMv6DrjHZbVBu53edLHYPW1v+AcJ1XXS7XUynU9TrdRXNPhqNjIVa9IWPmjnfbwvTPoIsDfcF3VwcpuGbsA/T5y5+K89lMpko60RYlTfdTL5P/62MeYgy93HGEhbwt+tz8nP5+LkdwoL4AKiof32bOM+MiRz3/czpQkoQdGHAT1i/qxiCNxnWLP+AoD84zWYTv/rVr/Bbv/VbOD4+xsXFBT7//HMAwZrgl19+qfx1RJSHSVoD9H2btHm/BTzKYhO2sOn7jRrQZhJqgrp5BWmG+jHjaEmbxg3ws7BFkIV2ZFAccLvDnN5Mhd3//DSyffh2wxDleCw0FDfIc1OY7vfz83O8/fbbxqAvbi/vrzDLkp917KFotmHjkBZBfS3wE9w2EWgsNoMl9weEsEWOEd7NZtPTj9xxHPR6PcxmM08tegl9wYlj7vYj2n2SALUkx3FU5D9wPQenp6cqWEcikUjgxYsXKoCOwUuNRgONRgPlchmNRgOVSgXValX5FPX6ARIsBsO67BL0dzPlie9lCiH/ynrq3FdUIUFGiAPAs2fPMBgMVNS/PiaaiuV3Uc2hce4PfRvdd+y6Ny1GGbzJNExWd2OWBqG7kZLJJF68eOFpL6pjn0TB+5C19gn+L2MMGGHOCpOMrOeLVSdPTk4AQEWNM5WsVCqpYDYW3EkkEp5qfBKMpp/NZiplLwiue92nQBaoojAc916Mgm2uy30ImY8NYfNryf2BIEqgGNNI9G0YMMaUlF2MxTQ2Qmop+4Cch/l87qkbLquKyeOzYMvh4aHSZEnuktTr9bpKm6IGxrQmE0jGs9nMSO4sMcsqZUyBkqlvOuHRVx4FkuxkHX2WimUVNtPv/L6LApN1Qz8f/fqbzObMtyexM82ScQDsHy7HzRxxx3GUpYHH0+dtlz5nE+hH5v5ZDyKdTqsASlnWV6Zbyj7orOPOdD7gpmwuyb1cLityLxaLnntPniPPmems8/lcrQ1hkBUOw8hTHo9Ctv4bxhHoDa2iFH2y2A5h82vJ/QFhE8LkQ0epf9fjkYunyVTJMewaDBjjnEhLxWw2u9WJjBo2U5EkuUpy51/WypZaownMkecCS3AuqLkx2n61WqnFP8hPGaUNL3ATwEUtjmRDLZk5yTJvWi72LL8aBBOR+30vA8H0dDhp7ud3HB8Jntswm4NkqO+H20kyD7KwBI1/W8jAsOl0inQ6raxJUmNmURYSuyR4171uWsQIeQBqP5VKRZV9ZpMZAErbl10B5Xmu12vlqgjrZQ/cCKMyqDIqWHdA7gsw14e32B/i8IMl90eOIJ91XJ9XXBLQ/btxTWmmMfD37XYb6XRataolASSTSXQ6HaXZcXsWJvnbv/1b1Q6U39XrdTx79gyVSkXVv2bRkLDxkKzH47Hx3LiAX11dodFoqHKsxWIxUFij9q4X3dEh89ZJDK7rKquDqcracrlU24YFVoYRu9+2cmys3W4aP4latmUdDofqenJ+CZntoZ8f893lePZpkteFWd6HdIlks1lltXGc6/xwXn+a5WkGPzk5UWlvUnNnFzi6jZiz3263MR6P1csEpgmahB6/WA4+Nzwfua3JCuI4N33p4yBqQSaL/cGS+yPAXQeh6AFffov+Lh9gubDQFLtcLnF1daUWyPl8jpcvX6JYLCo/eq1WU7n89KXXajWPibLZbGK9XivN3WTe9QP97X4avvS5f/PNN8pHywY/YdeMloGwuaGWBtyUD16v14oo5HHoomHRl9Fo5OsikMfYBHKeTedKjY/Exs5ovV4PuVwOrntdx4G1GZbLpScyXmqkjGcwtUPeF3SCl+2SOQZqrpeXlyr2hZ3p2MSJefqcC85NPp9X9yWv5XA4xHg8xmQyUX9N4wKCyyKbIAXaKHEffhaBffvdrUl/e1hyfwKYz+cYDoeKAJ8/fx65FKcf5IMfRPCbLjImkHTpF6Q5nAvqbDZTfvR6vY5UKoVSqYTDw0NF9s+fP8fx8bEnuOsXv/gFxuMxKpUKstnsrUIrQZDjMIHkzgUduJ4TBi3xPc/PBPp0/b6XZlT64BkwR5KXoC+XBMlgND9rTtBC6jcmms/DrjvJnYIJTfrs4Mb904rB6m7UFmmBiRursEtIqxTdIovFQl0XzgGFwMVigcVi4QkcZFEeqbnTosFuhZyX2Wzm6fVguvd4/YP857xP5P2lt0UOguv6198PWw8s9oM482vJ/REgKILZcRxMJhNMJhN0u12sViv82Z/9Ger1OprN5s7G4Efwu9D+uGiS2Lm4sZMZFzcSJgPXpPlWEpf+l33ti8ViqI9dBwnF73cUqOQCrAtFUTSkoFau0jTP94wrSKfTxt/Rv81AQN2sGsWFEubykXENJGaToCF7FfAa0p+eSCRQKpUUacs666Y2ufpc3BV0YXexWHgi+rkNz3G9XqvKkJlMRpG7FHRYYrdSqSCRSGA0Ghkj7E3ZBIA3BoHkrV9T3h8yIDBs7uT+2Yve7zcUusL2ZXH3sOT+SLDJQrztAmiKktZN9txuk4dY/oakLjVhGXXMRYSNbgBzLq0M9uL4WHZ2kxxp+oQnk4nxWNIKEEbiQXMkW7Sa4LquMtG+ePHCowWajks/MMuk6hpe3PtJ/k6Wmw27x6i5U2CT5M56/HIfFFxMueQsRxtFWOLY5D0cRRANmheWvZWglk6wURP7oNOKIsld+txpoZA+9tFo5PG366mVuVzOU6mSgX48PreV88SARr+0OgkGb06nU0+mgAnsexEk+Ee9Xha7hSX3R4I4D8c2vnDTb/3MyruQyqmxk8xJ8vSzk5Tl4nx4eBhYq900NpMAYtI6aL6WkenU3E3na2q7ajpHHUFFZHTTKfdJHy3TqtjSVaZjmfavN1WJct38tpHBVfK8ZLS+BE3N0hJj+l4/RwCqdehPfvIT33GFEYck+LDzDvs+qkk7lUrh6OgolNwp0I3HY0ynU2WB4/0vtXfgxqohz1cKg6asBrq05DwHzZeM4ZDtZ03PjgnSkiPHYXH3sOT+gBBHAw56SLfxf++ybWcUkEBlT3ZqC/xMEqjjOB7NJQriCDv6Pil8cBGNEmyoXxu/QDO93j+31fsGcA6YMy795+v1WmmzpnHoY94U0u9sst7QiqIHm8lrKNP/5Dn6laydTqe+keLbnMemCItIdxwHq9VKCShh5C5jS/ji/S//1wmc80Tff9CY9JTRoHVDCvEy/ZIuID8BbltsakWyCIbNV3gi2MWiFYXY9yGJ62OXTTnkNnxtusD4ZR2EmWz9msP4kVyU8bGcKqGXyDUdz3QuYQgas5zToN/Hubf07f1qjYfVIA/SDKOa5MP2FfX3fpDzF4Wgotx3UiAz7Ve/52QmBIBbbh0/YSwMiUQCh4eHqk5BsViM3dLXT+DUz9EEzo3V+v0RNjdWc3+kkCRXrVYxn88xHo89F1xqh37ERphMejyO3/byId1mAfWLF5D+QoLnrfccDyJ9k/bI/4MWkKikFiU4Te7TcRz0+33Vx/v8/Ny3RrffIj+ZTLBcLj3RzPr1MGnacc3yUpszuWf0fUvoMRl+i70edZ5IJPD69Wssl0uVxx10H8q/fp0Ng34bNn6/78MQ5i4I2zfvaZn1YOr2KLvUAd7qcGFzEHRd+Pl8Pkev11MZKFIZ0J+noC53fGZ5PjwXU9VNv4ZIvF/eVESJGyEsuT8Q6IvkYDDAaDTy3Z4lZ13XRalUUlXJ+IA5znVRjUKhoPxnxKadwvwWzDjELs3t0i9I3zqjzxmo5rouKpWKJx2Mvdhlul8+n0e1WlXjlOA+ZTlQ6QM2PTCu66Lf70eqvqVrRlE1S9OcB/02ynFkihr9rQyq8zvPoONEHZ9JO5QBjExBNI23VCphOByqgLlyuaxM0/l8PlIgJOeTBGIirThkvU/Tb9RniOluMio/k8mgUCiouWItA6Y+6gQbBMfxNhbys2DJ51VeQ95j8tmSgbF6ECfLP9frdTiOo+pVsFCVPK7fs5dIJNTvLYIRidztRO4fUtp13eu66MPh0JgOBFxH2rIKGqtaSXIHriNn0+k0ptPprUCmqISsk9CmWjr3RQmfpCoXCBOxp1KpW0Vp6vW6qr/NKGHmC5tygiW5y4VI+jP186LJM4jcTQQtteVtBaFNtgdwKyVNWjuiIKqJPAwkAse5TpvTLSsk4kwmo4rXsOoar08ul/OtMeAHmZomcRfrGGNIgr43/S9B7VR/9vlZsVi8Re4U3hiIGiZkSouA6fime0CvhOc4zi1hmb0WWCJZauUsrlSr1TAcDlEul1Gr1VCr1VRsBYWIfr/vKwwyhuFN1uCjwGrudwAu+Cafm/4/H6BOp4PxeKwqqukoFAqoVqsqyIWpN7LiWbFYVKk029R/3hXBM3iI5Mp963nt9O3l83nUajWcnJx4fNknJydoNBpIp9M4OzsDcKO5X1xc3FqE5vO5qhgmS4KaOr3FgT4nvBamfG+ea5hWFUZIQf587lemOzmOg+l0qsqchiGqfzZKXIAMhsvn8+j3+57vj4+PUSgUMJ/PUavVcHl5ieFwiB/84AcAoAiCTXKCjsd7lNrtfSkkuiXID2HbyHx4gufGYD0SPMsMTyYTdZ8HHYvCVlRy5H0rizQBUOuPLLXLZxkADg4OsFqtMBgM4DgO2u02Go0GDg8PMR6PUa1WcXR0hGq1qgRpCketVsso1DmOg6urK3zyySfKUvcmIc59bcl9z+CDxcIWUgLWX8A1AQ4GA1xdXWE+n6tSm3yw2ViCL0I3oY3HY6RSKQyHQ2MKkj6+IJ81tzMRfJSbzXVdFQ0stXSes8xrp8ZWr9dRrVZxeHiI09NTj1/x9PQUBwcHcBwHnU5HRfJyYZtMJp4yoVz0uAgxEtlv7BQ0CF63MHO1vAYSUhiSjVW20eyD/N/SBJ9KpXBwcAAAGAwGOD4+Dt2n6ZzCzPd+AiiL1bCIEHPYZ7MZqtUqSqWSKrTDe533NSPPo0bMU6u7zyAsWiLCILVj+QzKSHsJ13U9ZnkWwKFljvf9eDwOdGPIGgVh4FrFZ1eOHYASvOSztVqtkE6ncXp6qs6BQnQul1PP8/n5Ob7++mssFgv8+Mc/VnUk+BxfXl56ivdwvpLJJI6OjiKN/02HJfc9g8TW7/eVFs1e46xINRgMVEEP4uXLlyoFBbheKAuFAo6Pj/Hxxx/fKp4hSYMtQbPZrIc4Cb/0G5rDZclPYDtzplwgpGbOxYL5t9IUL3ta1+t1NBoN5XN3HEf53FmXO51OK5P8cDi81Z6V5ybPL8qYo5ybKaBMBoftE/Qx62BfcWq++XxemXP14Ct97MQmBFkulz11+Gu1mpr3ZDKJjz/+WM2NvP9kN7lkMql87vxd1KqCTBO8T/gFqEX5nbQ6mK6H1NxlcSJpkdL93RKybXDQOHg8rl2m7wGg1+thMpl4hGG2taVl4cWLF/iTP/kTANfPYalUUmWiF4sFxuMxer0efvazn6FaraJcLsN1XTSbzVslnKncyDmxLmN/WHLfMxiE0uv10G630el0cHV1hfPzc3Q6HXS7XXS7XfR6PWWOrlarKrAokUioNqWlUkn1fn716hUuLy/VcaTWKJudkNzlQyqLZISVo4wb9KVvJ8cjtXYSufwOuF6gSejyr/TdkfTZLGY8HiuzJAUoCijUFNlidJ+Lv+u6t4jT7/+w/YRFO8sAMn2/7Hm/Xq9VTYBisYh8Po9Op+MhU31c22i9R0dHGA6Hah/ZbNZTUvj999/3uAa+//57tFotJcDyehWLRXWtXNeNXFmQQsN9au4SUdv68rw5D3pVQYJV5hhjQwsdyVWSuz4HQT52HSR2Prscow4W3aHQzJgJ1tTPZrP4rd/6Lfz4xz8GAPT7fQyHQ/R6PZycnKDZbGKxWKDT6eBnP/uZMtHrwhwFH7bENY3XkvxtWHK/Y1Aq5yufz+Ptt99Gv9/H2dkZXr9+DcdxlJ/q8PAQwI0ZlwtePp9HvV6/dWO7roter4fRaKRMmnpAnVwMwsaqIw6x0ypAzUIneJ4XhZpCoYBGo4HT01McHx+jXq/j4OAAz54980TLn56eolqtIpfLYTKZoNlsqnOU2mIikUClUvFYLzaJkA7KJvBbWDZdbKJqfrSszGYzT0lWEgrJolarYTabIZFIoFAoqECkuD29o0T305cry7SS3PW2oa7rolAoqPuDYDQ0AGV9aLfbkcaYTqeNxHYfcF0XrVYL5XLZYwb3u1foO9f3IcGAukwmo4hclqnlS7dO8Xdh5C4FyvV67VuqltuxNDMF8+PjY0/nu1wupxricL8s7PP1118DuF6L2ANjMBgoIV0eJ5FI3DLFP4Rr/NBhyf0OIRdu/r9arXB1dYVer4fhcKi2lXW0CRlRn8vl1HfFYlGZu13XRbvdVo036BOT5K6b9Dc9Fz+Q2CnR66lnMgWNhMQI+EajgePjYxwfH+P09BTvvPOO0rx5zEajAQDKFCnnRe9fLiPjdy3dR/XBc1u5IOkV3fw0vLAxS0GR++WLJthSqaSIg4urX13+sGOFbZtKpVT5WN7fi8VCCRXyd4zyluSeTCZRKpU899Dr168jaWfU3O8TvK/9CN1E2NR2JUzzS+1b+rhZtpYWKz2gjveBX9aNfkyTj90P1OzT6TROTk5USh673ZHc9d/ItYfkXqvVMBgM0Ov1MB6PPd0PGTNCOM51qpzjOKhWq1Zr94El9zuC3w3IALput+sxR+VyuVsPvO5/or+VJjqaoHO5nNKUTTW9g5pBhC3gYQ+SJGw9gI7v9WYr7IxVrVY9L5rhyuWyh9yTyaQnpU2OUzfLRvWxB51blIC6qIgyf0Hvw7aXiyLN77I/Ohd6vepeFE0obFvpN+b71Wql7lNdc+Q4dOJhCpysS8/7O8iCwt/edQllfRxRj8/0xEKhcGsffvuWz5V0rcmGS3wGaEmJA73cbRBc11VR/Vx3eH/RLE8lhOdEPztwfX8sl0sMh0MsFgsMh0MMh0OluafTac/cyGsf1GTJ4hqW3O8Zq9VK+aKkdklp3rR483tuy2plXBSp+fDBZ+5pGOJoovrvpPYs/ehSe+f/0ufOYDjTi+ZdvYgNz9ekYZDspVk4CHJ+/aLXpTYszzMIUcz/YRHzenCTH3HI7WXhEPreJbgYb5sjzDk23Z+ShIPIhUKHbFZCczCvfSKR8AhwQfPKOg+PBfL8TXMpwdid8XisiFx/tkj4nAOT4OS376jPiwTdiozc18mdViJuK8mcWC6XGAwGag3s9/uYTCZw3eviVbrgEzZPFjeIRO52Mu8eUTQ2ffFfrVb47rvvbpmm/fYbRuZhWmSYFqXDbzyyWt1d3mtRzocR52+99ZaKX4giLAWREb8bDoeePuZyHPp14kuWE44yV2EBeXERJgyZ9h/FXx/l88eCbec1bJ9+9y2tG49JwCFMc6YXzAEe/71xl7Ca+z1Av5F3deMmk0mcnJzg1atXGA6H6Ha7vpL7tibmoMV6V8FkUfzNUbfVIedaluyVrgOZd68fh4QltW/6lOlXNLVhdZzrCPflcumxBOiNY6hZ64LPer1Wld0YpEbzO83iEoywpuVDphTGJfgo96csNkRLlB5It16vfS0HPD+Ok5q73L8forhg7htxIvp5nYKsLK7r4ssvv1SWPGlW57Foymd5Wv4vXWP3jahrX9SAUwtL7o8GpkXNpN0xSCnoIfCL2DXtNwqiLvpxsM8HWI5XLoAAbrkUwoIPSVayzgD3pxMNzeQ0lwbtl3EUfmSl+9F5vcNKzOqBfJuAx/ErD8oxcE4k2fO4fuNcr9dIp9PKHZJOp9XvpNvBBD1g777gNwYZNW76jS44kth1ctefjW63q7JHZMtkKaxyP/J/zvMmz1rU32xrxbBEvjksud8D4gZNAdH7rHNfmUxGlXWU2JbY4z5scU33+m/CxruNxk4/Jn2WXAwZmMRoZNd1FRlJ64R0KXABloGD+thkUxdW9/IbPwuymAiUWj81MTYNIenKaGmpqXEMcebKND5WUZMaqLRe+JV/HY1GykIit5HHkUWYSO7MAgnT2h6qSVq6zaKOj9dS7+rI7+R+6Xvn/SJTXEnk3A+tIozS1/cddWzbfL/tbx6CAPcQEDYPltzvELqfVL43BU3ppWn9AqqI5XKJ7777zlOLOwx3QewmQrmLwBidnHSNfbFYYDKZeIr8SHJnehFN30HH4T6Xy6UK+NPBBims9a4H1Ml7gFq+41zXOmD+sIxEZrGQQqGgLALJZBL1el2R+rNnz5DJZIy1wTed/yBTMdOgeAw5/5xL1pEvl8tIpVJot9s4OjpShVtc11Wdv4bDYaQKdbzHdFNznHPU72/Tb/3upzAhNkr6qbxfs9mscf+JRALvvvsuZrMZBoMBXNdVqXFMk2N2gSR2KXzto5LftpYgUwxJXGvfm4A4Vg1L7ncIk09Zvpc9muVizQdU+jP1/RLyod0mSCdoW/mbuBK3XzDQJhp+2LH89tHpdFREriy7S7C6HxdKmZKoa6oSTOmRDTDkdp1Ox9OPW3a+Y4aD9Em7rqty1LPZrNK2dHKXZEry573F6GWTIBEGU2wIx+84jjID008uBQ/T9WS+cjqdxuHhodIiWZiFZvfVaqX2IUubBt1rHNsmPvdtTMxhv42TN85rFhbhLgUX2VWRrhJaOmixkfELMgNnm2fLL25o0/3tY9s3HZbc7xGmB0IunpL84/jP4x571xq7jiDf8S6PE3Uso9EIvV5PmXFl0Fw6nfYU3mF9axJMkPVEX8j1wKnRaKT6lyeTSTUv0lRK0z0baWSzWVUohCSov0iE1Kiz2awKuJMFa6I0NPEDF3SZ5sZe6yRj1iOQ6W3EYrFQpUNZYAm4vt+r1aoqRkSXBS0XDD6UcQ0mcNtdaaSbxJ2YNH+9aEsQ+OybhGC5T/ahoADJ+5VxHEwdZIEg3le7bJG6qa8+Cu7CqvcmwJL7PcDPZCj9cnzAubBRQzKlh5gQRKi7JHb5kMuHMo5JLWzR3mRcJtA/yRKXiURC1fTnAtxoNFQbS5o3l8slxuMxDg4OfBdex7nOx+92uxiNRkZNjQIFtVTuH7jJP6f2y8W5WCxiMpkowtM1d3YQkwF1zDeWGrQUFHUNPs5cUoCg5u44jiL3k5MTRTayXOh6vcbV1ZVqEdrtdtV32WwW9XodV1dXShhar9dq7Cy1Ko/vh03IPYopPghh2y+Xy9AyzzJ4MIol4NWrV+oe4/3Mv3wBN8IChcdthLtdY5NYGUv48ebNkvsDgd9F28bvtK3PKsqNFNc8FzcYzvRAU5v1+z4IslQntWQGqLH9KLV5mYYGeDVxfezz+dwz3xQK9BQ3al58T22YkKVj+T/JmmZ4EjrJnT53qbn7aWkmrSjqHOrxIev1GqVSyWMOZ6ngwWCAQqGgBAGOKZFIeGrPy+8ZG8D9AN4Sw2HBdHHJPS6xx7nXaBpfrVa3arTrgYQUYoK0dZrry+WyarjCNq/s3ZBIJDxCKec7nU6j3W7j8vIS/+yf/TMV+xG1la4f9Pthk99a7A+W3B8o4gROxIGJjKNo72HBRWEIKh0aF3EFBFmyU/qpaTLlAktzpp7GxmP4tdLkb3RhitYT5nvr5E6NyiQAyAA+auGyEph8L83yJHg5Fl0gMWnwftakID8zhQ+Zl06zPLvVcX8yXU/WXec4aaYnGabTaXS7XXzzzTeRfO4sWbxarXBxcYFCoaBcBUHn4gf9njc9A0FxIryXWELXb3taW/TfE/LeYBaBbMC0Wq3w1ltvqQY8/Jy/ZbobyZzuGhmkuwvX3i4QRzGQ8BO433RYcr8HBJFplKChKNC3C9uvCVEffC582/rKtg308QNJfDQaoVqtevzbMm1M+tV1bYTkr5M7tdb5fO6ZK90nKs9R+uX9ricXfJq/pb/d5HuXxB1HkPKzvPhde784EX0MelCYNDnL73jPyM8YhzAcDvHy5UslgNHM7JeJUKlUVCOmUqmESqXiIfeo8JuTqO4sndz9tqUwxO+D4lJ430wmE3VPUWA9PT1Fq9VSHeFoYdKLJO2rqY50+UTdNur2VsPfHJbcHygeihQa9eHSif0hVQqT+cVnZ2f4/vvvMRqN0Gg0VH6wbs41ma4ZXCdBjXUymaDb7d4KnpIBeFxwo0DfjgKJ9KHKQLwoBBRXS9tGq9PdAvK9SVOVFfloBWFGAS0f9M+fnZ0Fjo3kEdfd4LevqNtKyGseRO6mPPagcfJeJcFLS5MesyN/FyZo3BVMgrP8TiJqfFGU799EWHJ/xJDacpjZPMpDHXd707Z+vwtqeGJadDbxA0tsYqnYFLv01eq/Cxpr2DmbTMtxsK8F0zTuoHFGtSDIz0lms9nM05gl7B6XY9k22G4XCBIGZWe/ML93GJlua3XbFfzIfxO//lNH2HxYcn8g0EkqKknu8oY3LX66L9ZvUTVpD7Jzm6ypzahvACrHm69yuaxeDKqS46GGLfvFSxPlNqbHXbgW9P1FiWcwfUZfPP3vTGuT//N9kJnTRGpRcFeaErVXzpOs50B/NE3r2WwWiUQClUrl1hjoc6cpvlQqoVgsqip+ftDv66BiRQ9JOzQJKQy+lC12OQ+O46hnkHNeKpVuxZeEEoaommdxvwi7Hy253zFMWu5DMmFvokG7rusJ4pHBPbItJaPSC4WCivBOpVI4PDzEwcEBGo2G56X7cWVwEvPQGSks68DrfmOd/PSc3zjmSpMAxMC5ME1a/16vva63SmWsAIPmZFtNGVAn970pme8SfhYEv0A+3e8sXRDpdBonJyee/Umhj4LAyckJjo6OFMkXi0Xk83lVhdDvGZPj4ljuYu52LUjyWapWq57P6vU6arUahsMhHMdRUfy5XA7VahWdTieS5Y3P0C5z5bfBNhapx4w490skcn+TJm/fkHPJ//0k4W1Jf9dmrKDAu9lspsbLEqsyqpeV3kqlEo6OjhS5s1rZs2fPUK/X0Wg08Pz5cxwfH2O5XKqcaGrtTCuaTCaqdGy/3/f0MdfHSzLgbxuNBgqFgm9Z0zAzsfyOFgO/+Ylj2pWpd7lcTs1dPp/39M0uFoseDU3fv5/15a7gZ/7Wz13GEMh7XVomMpkM3nnnHQC3A9uoqTYaDaWhVioV1Ot11U1uMBioILQgcF8PAXpgZhSUSiXk83nP3CcSCdRqNVSrVQwGA2QyGUwmExXsl0wmfQUfvWiQ4zi3eqvfJ3Sh33LUbVjN/R4Q9UbctfkrzLQe9ffyPffFB19WXZOkzqpayWQSR0dH+OlPf4r5fI5arYZPP/0UX3/9NV6/fo2TkxMcHh56ItNJeKvVShXokAU7+L0fkTL3l+h2u6outzRLxolb8CMs7ivo2ukBTiZXi0wXY147tXd2/jPhvok9KmQwYCqV8sxjKpXCN998g2aziUwmg2fPnnkWc/7PnP56va7IvVqtwnEcdW+wjLCpLLM0xT+kAi9+MAVNAlDFgfT7KJVKoVaroVKpqOeT6XP8ns8l4H//76sAzi786A/5Hr9vWHJ/otiFqV8SmKySZ3rPBYNmUlZak4U0uBhXq1X8w3/4D+G6LvL5vGp0kkqlUKlUVIU2Nm9pNptwnOuObSyOInN6owS0Oc51Stl4PFakojfl2Qa6id0ESUw0sbMoDbVxauYk9Hw+r0idmrtfC9A4QYV3BekW4XioFdL3y/PhYk+NkiVVZbU74GaOeT/VajWUSiXl7qGmzgZALExkgqml6l3CdI2iBmhKH7vpN9Tca7Ua0um0EnLpeuD8BJGsXjPhrvAQ7t2HiDjzYsn9gUCXyv0uYhSNjTAFysS5OfgbasySUGXZS/rUgWsTeLFYxLNnz3BwcIB6vY7Dw0M8f/5caeS//OUv8e/+3b9TZPuzn/0M//gf/2NV671er6sSse12G69evfKM66233lILU5hJnOeQSqVQKBTQ7XZRLpeRzWYxHo+VZqcLQ2H7M0ESmB/hAlBBYeVyGcViUS3ADCpsNBo4OztDJpNBvV5Hq9Xy+N3D8JC0GWp+9J8zbkIKfJJcSe7UFrPZLE5PTz37499EIqGERV7T5XKJfr+vrqu8vqZn4KGYmoNIXt538vlPp9MeH7sOaZbPZrNYLBZotVrKjC1bGsvjyTHl83nj+HZxjwUFgsptwvCQ7veHBEvuTwSmYC3dZxYXDHSiOZ0P4zbV5rLZLJ49e6b2l8/n8dlnnymiZmtS9jpvNBq4uLjwmN75vQyeY6BZv9/3HI8a+2w2UwsbP5fati40mRZWvtf/mhapIGHKFBeg74caWSKRwOHhoe++5LH4f9B297UIyrkmcctcfTlG+txrtRrq9fqtfUmfciaTQaPRAADlYx+Px7deJHfdpG/a711Av2f8TOIyk0C6cCgYBoFNeWq1mqr332630e/3MRwO1VyZyF0vExwl6G5X4DNno/K3gyX3J4pdmuXDwMA4IDxOgAF0JsGDCzCtBLQQSLMhI/NloQ76A01pcK7rqsC+oG5u3DZqAJwfUUbJgHDd6xK0mUxGNXphj3cu+iQ/OT9RELTtfRA7XTZ6hTrd5y635z0SZm2i4JZKpTAej2/52fnSzfKPKZ3LVBGxUqlEyvCg5i4zSWSAK+fG5Ks3CfD7JnUTNs1isbDk/uhw12lzcR7oKGY2mseDtEtp+je1y9SJmhGzfn7VKBXoNoEpwNAEqf3QTA14o+N16BptEMLcBfcJfdGVfnb5ktsXi0WllYZZIZLJpAqYo6tGpknyMxnoGJTL/pBBa0NUEnOc66p+0+nUMxckdRmQCty4RMKCQfeJbYRTS/BePM67/A3CPm5WnWz8TIIkzTDIntVhGlEmk8HR0ZFxO36mL9D6mPXPqN1LhC1Ccl7p6zeZy/20x7DrolsmuJ9kMukJpGPgnB4YFcW3ro/Hbw72cQ9FXeT1mgKO49wqnyvJNplM4tmzZ4H75LmuViuMx2P0+32jxq773IFoPvaHKCzRmhMnan21WqHT6RgtGfK9dHnRFH/XJGk6pkxxC7LePLRr9VBgyf2BY9MbVzermR6CsAfnvh8aOb6gSHA/4URK8vterMK0drldlKj2XSxa+wiC8tv3rvYVRyuVf3ftE74Lcosyzl12UwwLBg36zX2tBVEzByxuI5LjyU7g3eGhzLXU+u7aPxl3MQvTNO7DVBfHfXJX1/wu58HP3bDPMQTNY5w5DkoNuw/seyz6+fL9fRO7xEO7Jo8BVnN/g6Gb5e/bXxXHH+rXMcpkmjYtCnGCBYPASHu/sqX3FYR0X9eSEd0mjZqf857Tq6BterygOZZxDTym/pKf3xWiXiOOK+r1jDuffs9L0FztA5a8dw9L7veAKGbZKFHXQfsIWgz8TJibkLxfKpj8Liry+TySySSGw2HoMWezmbEFK7+X2GZRkouwPj8M6GKgE6vnyd/yrzx+mEsh6HMdQab3uxbaXNfbqx6AygiQTUvYzIWf77L6mX4/szMcAyophLmu6xHK+J7BnvueM5Pwo3/PuIKoawBTA+MQ/Gw28wRv6hUfZSoe40X2hU3n3PrdzbDk/gBgMosR+oMa9uD69YeOa5bUEeST4yKq/3Yf0rgMoptMJpFN8ptqZUFCU9g8+aUS+RG9fB91wQoSFO/KBM7rLEv8Esx8aDQaqpogqwM6zk0K5TbHl5DXe7lcquBMChySzElevIf8CrbcNRzHUaSu399+QbDsFhgXeuCmXg2R18xx9ltbXj/HoGfrvq/PQ0HY+mDJ/Z5guoH1934NHXTc9c2umzp1/9y+fHUmrYzaICPOTQsAtUlqZzJIie1odwlTURw57l0GfJk09buAvhj7tdqVHd94HdLpNEql0kZlX6OYs3lfMJVSpsItFgt1XFbJS6fTD0rz4/ijwq/8rB/01FD9t6wjUSgUlCXgLubH9GyYnueHdK3uE2HPgSX3e4af6VZWUgvTUiT25TcM8s2ZCH2fwTjSWkDNgtqG6XiLxQKr1UqVyuXixhS+oCI2pmNvK0zpbgK/hUuP+I+Ku/S5y+sgQe2T5E6iJalEydeWboWo9xFN2SyJTK2dZJlOp5Vwx89NHQX3Db/nI64pHkAg+fL6yD4Qcm702vIyLZQNZ+4jc8Bq52bEWU8tud8zTGbZoAj1OP60ODfCJmZgfey6VrzJOKKMcTwee/ztk8lE5fOOx2PVOCRuGpHJpUGijOuHNf1GXluei2lutpmvu/S5UzgyFRpyHAfn5+fI5XI4PDzEL37xC9UQJ5VKodPpqPdy7LSuSPLT703+b+qmx3bDNMczp3u5XBpz7u+KvHT4xdlQ+AyCJOKgeAXXva72OBgM0G630el0sFqtMJ1O0Wq18Otf/xpnZ2eeeWT/92q1ipcvX6qeB+VyecMz3RyPpYrgQ4Ul93uAvvDTt6aTERc5+dmuNfMgkpGQRCH9lCR0/UHcZMGcTCaxzJG6oCErnwWRsZ8Z26Txcn5YXz8IlUoFw+FQLaj69fPTTqLOfRTcpcZuInWJYrGIZDKJ2Wx2K5vAJHjxmsl7jduYav/Lz6SPnaZ4vmSbU9mNTrpx7hscv1+QKOC9D1KpVCyLBvcprRl+QiuFtvsUfHYt9L6JsOT+QKD7lkxasfwbhn0IAab3coEwkVccjTeurzGIvKMcd9e+apZApaa4abDYrrCvhZkapmn+TFab5XIZO9grztgpaEg/u15Lnc8DO9M9JKLQ51PC9FzpFog4kN0c/Z7du04L9IOpq+WbjjjPhSX3e0DQjRpXEt8GcST/oGP7EWlcU/Z9IIiYJKJo7qPRCP1+H+PxeOtxxfUz6+/3SeymWv0SkvTpc2cKVZyYBj+fu/xemrL1lsS6z91xHE+MxUO4NzfxsWezWV+XS9g9M5/PMZlMVNpmkNVuV8GfcbCJS88SvxmW3O8Bflq56TtpupfQF8G4N7ifps396TD5PPm/nya0r8XBT5Dw+y5sX/sK/tP97aYFOexcooxpm/sgLkx1/IOQyWRiWTCizg1wo/HqtdLle1pSGCTGdK6HQOwAVB5+GCgobdP0hu2U9QJQ21rAgrDN/ShdN49BUXhosOT+RBFkvg8jjyjm1rB9P0boxLEpSLLSJ33X2sUm1y7ufveFoNiHTawSYQKDPK7f8d8UBKVx7hO7skRa3MCS+wNAlAVnX8cKOva2D8um0vYmVohdI0xrjmI+1MuG6prQvhejx7TYhRGqbi0yvaIijLwe07ztE7vQlu1c3h8suT9ybOOj33WqlB4NrX/+GExr0mohCd4UrR22Dz+z/D4RZ353sXD7abtxz1f3r4cJT34E70f2QXEhpv8fIra1JkmYzltu81jS0ILuwaeOsPvBkvs9QV9sTIuP/Mz0sIVdXL8bfdNArbjHkfsJ8udH3Z9pgY+6z7DjmRa/Tfaby+WQSCTQbDZjHf+uEHcB9AtqI3Qy9hMi9WslSZg+52QyiUQigcVigXQ6rfalF8jhPkyR8fIVJVBt1wJuXEQ9PueZwYK1Wm2rmvym63oXCoAJuvAfx7L1pgXTxXG3WXK/J/iZEvdpsg06ntxmW+3PL+d9HySsIyjyd9Njxvk9fZaFQsFT9lTH1dUVUqkUisXig12gdnEvBO2bwZiMTeDCvlgsVOCYHrsgwSh5WXUwLJL/oSFOLMEm98mu7q19uQfv0iX5piGS7eVNMnXcFUwSqp8GuSvC35VZPMhvz/9N0f2bwk9j39X+w44ZNG9+QppfeVVGeA8Gg9AiME8Jpmsoy6Lyf76Xn5tekshNv+f+HwOiCpBxn90gLe8+13Q/txX/6i+LzWA19zsCb1RZ0U2+Z6cs3e+1aRBWWKCcyUca9zz0z4hNiX3T9rbyM7/ziHp+cqzr9VppkH5WAzakiWoiXS6X6Pf7kbaNizB3hn6dgrTFbfyXfsGF0iTP3HPdyiPrwhOmwkau63q0dtk3wG8McixRxnwfCJv3XRBelN/rc7QrsjW5IrnO0S3Dyo58Lz+PW1L6qSHOuVtyvyNIMyRfXFC4SMnoai5ectugqGDdN+8XgMRt9UVeL+zht8iwipxcRE0dpjYJyPEbu75vP81dn9+4i4A+J6Zj69A7is1mM/R6Pd9uc6lUCuVyGZVKRdXr3udiFZe0eN2DBCh9v9K0rIP3CwsA0QzP+v90SziOg9FohMVigWKx6GluUiqVjOckq9JF7e73UEhch3zu/J69OAKXn6+cz5guoMvfmN7vKr5F3icmawzXFrn+ybXvoV6/hwhL7neMoKAVE+SDIP9GwX0+CLs0iUpLwz58f3Lh2kSTlZ9zYcpkMrfMxNyWDT/2HZEcJ/hmn9vxPEn0iUTCU0udxC9N8o7jeN6bzkkKxfK7IOHwoWt9JkFJv0d3hbjP6C6PbRIc9PdSYA9TbCzp34Yl9zuEnyZ8F2Y2uV2YWTuMyOJE7t/lQ7epvy7M58mFJU5f60wmo3zqpkV031rmJsS+KfkFjZP3CwUd/s+51APgSOryfmTpWP04umUraCyPgdgJP7LSrXNRoLv55H78tnsIiKLwWATDkvsdIIqfaJOFx09YkH/DtjcterqJMOq+9M82fQijzpUehCP/j+sfNM1DkHbhB5JWv9+Pnaq0qwCiuMTuZ8KNe6ygbegXl5YL3WTPfZHMed/5NROiCTdKI5iHHJxlmn8TwScSCaRSKdU2dxPoloG7JsptroE1y8eDJfc7gMln7vd/GKTUHqSNRJHuo5ij4yDqQv+YHtC4C6G81vP53OinDrMQbOon1/cdRUja5tpHnQ89TY2aOsldJyrdzO4XoKmTetD/m9xzQdpzmEAUZ16DrGRhY9/kXtF/t8/nMciPH7Zt3GM8VOHtvmDJ/QljU01sVw9J0H4eEsFHJSmTBYbkRQtHKpVCNptVUfT6fJoW1V3MhX6cfS90ccYcZjYPmqOg35j+hmHb7Uxj26fbY1N/sp8LLk6724dGlg9tPA8dj6PG4BPHXdy0cU3U+zhumNagB848JAHADwzqmkwmcF0XqVRKtTe9S2xK7HHvvbDApk2OtyuXFLHtfRNX099HvMkmMRN+oEviseT9b4rHsF7cJSJp7nbSdosgcx99krqP0PSZ3N+urpGJJKJ2mJPjN7Vr5HsZAU1fLMuFMoKa6U3UgO8D8vz1lDcinU4jnU4jn8+rVqP9ft+XbPX4gKDjbqJh7VNQDBvPQ1gn/GJI5EsGlumvOD584KZkrul7+VzG9flva9LXj6kLC1EFsV0IFruC6Rw2tWy8CbBm+QeEuEFqQTf2pouDn/82zj7kvviXZmsSt97DOpPJqIXy4uJCbe9XSnSXi0bUedStECQD5mTvcpGJqzlG9QXr+75rU6ef9eYuXEFhWC6XmE6nkY+RTCaVsLCJ4BPHnL/Jd/w+aJsgAt/WBx4XUWJE5DEeW/zOXcOS+wOCXwCRCWEPgn7jy30G+TflZ36BS2HHlceS+yIRLhYLpdlzexL5bDbz+KuDTJ4mE778PK4/NOx90L507S2dTgeWQY3SdnRTgg/bzvT+scRHREVcNxSL64Rpwvz7WLXGuO1uH9v5WdzAkvs9QDdTmxaJuJqAyYSuV4DSj89iInJf1EL0inUygpm/kRXldHLRg6gksVNr53lPp1PMZjNVkUz/vW7i1LU+aRmQEdlRS1WGae26kCE/TyQSyGazyGazGI1Gag4LhYLq4HUXvs5tTPP3Rex3SRwm4UcKr/K+M0En9lQqpVId45yH6Z7yG9eurSp83k3H2iX2aQ0yWRoeo5C1C4SdsyX3e0QymUQ6nQZw3WiEfudcLodsNotMJoN0Oo1UKuXRcv00B5JtMplEMplUhVRIdCbon3P/TE9iJDjHl06nlU9ddu/yy0Umsc/nc0ynU7Uo6gsYz1cGp8l9cFv5P/N+eR7pdFrtg3MWFRwn4TiOyr/msXiOcmyytjxJPZVK3WpTakIU33vchT6uaTPu9nGOHXf7bbCJcOM41wVyxuOxpza937zznkilUrfS96K6sjjnUSwE8v2mJmjdesfnnUIpY0VkOWlTjIne52Ib0zvrxXMu+dxms1nkcjl1rlwHs9msWgeDYo/eBMRxqVlyv2PICyJzfhlUxv/n87kiKhIsIR9S/Ub367TF40TVZOXDrgfAyeIhMuhN7ns8HmM+n3u09Ww269HOTdDPlWMwjVGOi2M2lXuN41LQLR+E36KWTCa30hqCzKQmAScMJvL2WxA20fAfsqYnr1GUca5WKyVw+rme5NjoY/dD3LnRr0vYwh31M7/v9RoZy+XS2JZYF3QB77OgC7eO4yCbzQaOQ9+/Xk+eawTXB9d11f9S8AorRWtxA0vu9whp4uaNyyAtSZx6iU3+NmihDvJ9B0HXQKTpUprsTY1j5G+4aMhoeAotLO4SNmZ9vFLrMfncdRN9XGLXobsmTPPDOdHN7xQ0wo7vFwsRZXxhv7G4ht+1pY9dFwZNmrPf/Rp3HFE1fNNxdklo0lUG3FY69LVDf974ue7yi3Jc00snewCetU9voGURDkvudwTdx65/Z9qG5u+g7SRMbRpN/0cdb9gY5Tj139CMPZvNPK9UKoXZbGYUTkyEHXQ++nzp/++a+OTCLAWH9XqN0WjkGfdgMAjcVxRNMcrnQduEmf03QZDAFMXMv29E1dh5D0rLFu89/Rzo/olbTlhH2PMYde42Ibcorh8gWsxB2D43hTxGnGfjTUKcObDkfo8IIiv9c9Nn+m+kMOC30MfFJtoJ/ZaLxQLT6RTZbBbT6RTHx8coFAqYTqe+RGDSEPxgEphM8xJlzH5amU7o/Ex/vwuYBKdtCdNPiNp2nA9l8dXdEH7bcDumu0mr2HK5VLXu9UZOjItJpVKe+3KTIMkgQg+6Jtveb0Hb6/OnKxTcRh+ntKDtciz6emZ6vi2iwZL7HcHPHMXvgn4X9JnJtCU/13+zzcNhMov5jQXwtvCU/jLHcXzz17fFLolWv0Z+0fdh10i3SgRpvrs2OW5rSn4s8HPP6HPOlrO8D/mefxlESexCGOJ+gsa9CcLuF31O/EzbD+Ge2MZq8RDG/xBhyf0eoN+M8iEMusnjkHXclqJxHq6whh1Su6FmJBcWxzGXwtynWXJbyPMKG6ff9fXbTl+Ew/anw2Rd2Cce0mIaR1iWZnimhVH45Pt9CJ1hVqFd7XcbyOfS9Gzy+yiWhrDjbPKdRXzY2vJPFEGmNWAzYvfbNsrvd/ng7srlEAQKMdTW/aKFdUTdLiq2uTYmbfausIk7Z1cwuWai7j9MECOidF0Mcg3t0rS+q99EnSNrGn8csJr7npFIJJDP5/H222/j2bNnuLq6wtXVlWebKA8LSca0qPgt3FF9bX6gtK4f0+QLC0IymcRHH30U2lDFT/OM4lfdNUxBVX5ChSQSPz+h1Hz2tTia/Oumc9kWu/LbA9djns/ngZYmPaiUtSFM+9Oha8l+cRrc1nR9TL8xHTPqPD9EcpR+br+4nbsaQ9zfvKkaf9h5W3LfM2gKnEwmyOfzkQhO/o2y/4cOx3GQy+U8ecImywGFlCgP+UNcICVc11WFTvT+5MQuLR4P4T6I4xagZYT5y2GQwpOJ3PVtw/7XxxI2VtPvN7VOPPR7V2Lbse4jhmQXFsingLDzteS+Z1AzabVaODo6Up9FgR8p7AumxZmLcNDCuM34Nn0gHeemWpiel7sv6IJJmNmbBW52barXYfLxx7HMRP2e78P8plGvqSyuFAZe7yBi37VVZNtr9RAErl1BXvd93cNB+w8TjN8UYo8z95HI/U2ZuH0jKNBKpuHIoJag5iO7HlvQ+OSDF6Vwhb5oR7kp/fyjJpIplUoqPenzzz9HMplEoVC4FREcVzsmQUR9iFg9y3QeUY4XhjjPnn7OUV01uka5bw2TAi//DzsOTfFR/NzcZ1RELSKk7ztI4PUbwzYC1z4FBT4vzBQw1WDYNFgzSswB1xQ9q0Z/r2cDWQTDau53iJcvX3p6fcsbXC5ezKuVr6gLGxHH/+fnWwe8ix9bsrJcJxdoalWyolvUMZsWjSjkOh6PVZGco6MjT11wmeoUtCjJMr5yPBwD92PSGvgZz1N2FAsSkkzgsUx+/biLahQztP69STvfF1zXVTnmUUBiDxI4NtXiohKw6brqbV7DhCr98yDSMwmzfmPaxbXSz4UWMb9j7wL6XHKdS6fT6t5gzXm5Hurlnt9kn3sYLLnfISaTieocBvgvJDIwK26QTlwhYJ+IImWHLXJ+YA91FslxHEeRe1TsY2GU8NOA9F72ftvK3/jhLq1q2x5LllQ2wZThIZsD7Qp+ZLmLudwF0ewyFiPqMaIeUz+uqejNpuOQgXz7sm49dsQ5V0vu9wT9ItEE5TiOp0lC0KIfhKi+cJPp3e97lujUzfI0oQUdO2gx0TUVqb2Y/HBhGlKU8yL8SvbyPMOIheeqt7jlddTN/OxCZhrrJvEL22jaflaTfUCaWaOa4sN87Nwu7Lim/4kobYFN18UvFzwqosQ7bLP/bcBrFeV41La3OZZ8hmStAd1UL+tkyN9bmGHJ/QEjKMCE8NM4ptMpWq0W8vn83sYXB36m6jCNSTdTRjFtxkEUQUGH3Nbkc08kEqhWq56GObsab5SxBQU/hvlz9zVGzkMUf34cH3tUAY/73ScZxCGdKMJNmIAcBr8xRPGDb3K8ONg0LmUTAfhNhSX3PYN9k4+Pj1Gr1dBqtdBsNvHLX/5S+aaB8DSdqAF1+yiiEqTd6OTM947j4OLiAvP5HCcnJ7FMjXcdUBQVccawi77TuzrnMC1w16SnW3sA3BKA/K41NXY/i0kcF0UUwdHPNbaptWyX2Pa66OcWVjdex6YCr8XDgCX3PYMEXiqVANwsdovFIpYvMZfL+ebI39eDJXvHm8YyHA6RyWTgOA5GoxEKhUKsc5YEcB/nuCvNZd/j38RXr2Nffl6aeE2BgqZjk9zjHiPK+KJYDaLsZxNsYiGKgij72ybA8C4R9fpZRMPDib56w/CjH/0IJycn6r1ubtJv5MPDQ2OefNSFbROY/MkS4/FYddgy/c51XeVj/uabbzAajWIHCUbZNoo5NEh71eeT72WwXFzC0felv5dzZCK+Ta+nTpT8a7KwhP1eH88m106SmnyZ9r9pfIlpX/L9pvsJQtQgMj/L1l1CWv/8GseYznefwan7EHIs+Xthyf0OEeXmW6/X6Pf7t/LEz8/P8fr1awC3F+18Pn+r13Qmk0Gj0cBkMols0o9rhisWi8hkMqG/0zV708Li95kfGRSLRRwfH+PFixe30mNMBGr6XD9nP9LxG4fcTq9HENQYh/v5zW9+g5///Oc7XZhM4/WbY7/f6/vyex9lHGHH2yVM1y9sLKY58vtMfh637sQ2578PYcDPkmDKJb8v4tSFvTcpKn4XiGQjtRLR5mD6z2AwQLFYRDKZRKVSQbPZVNvQbD+bzTCdTpHL5VAul1GtVlEqlTAej1EoFDCfz5Wpm6VcSe7JZBLZbFaZyafTKabTKVKplOrKJuH3oDCH3W/xkgtblIctmUyGltzdBLr/cDabYTweexatbX33uzKnmwSJq6srDIdDZLPZrfe/D+xS2Aj73C8rIiqksBt23Dhj3HbbIFdE0Hb6ttvMzbbgMTlGU8R6lN9HgSlGwGJzWJ/7nuG6LhaLBSaTicrHzuVyiphTqZTyp08mEziOg0wmg3K5jFqthlKphE6ng0QigdVqheFwqPz3kmQTiQQymQxms5l6SJbLJZLJ5C0rgKxEBdwQJVO/opZzXS6XoQ8vI5/1hXcbKVwP8GO+O3PeN0EcjTRsbPKv/A3PO5lMKncGx7vNfGwjhPi5BfaJuyYpP5dE3HFsalIPO862z8MmeCwKW5QI/sdyLncNS+53gEQigefPn8NxHDSbTVxeXmK1WiGZTCKfz3vS1VarFX7zm9+gVqvh+PgYlUoFn376KS4vL9HpdNDv9/Hxxx+j1+uh2+0CALrdLg4ODlCv1/Hq1Sv0+30sl0slGOiLR6FQQDqdRqfTAXAdrFcsFrFarTCdTj05rvqDI/czHo89AkaUQizr9RqLxWIrjVVP73v9+jWm06kiTX2ccaBrKkFEII8RllHA36fTaVQqFdTrdZyfn3tMoHdluiZJ3QWxy2PJfUvhRxdS5e903/0uFne5fVTzuryGYRH4fuMK+p28Fn5kvy8BICha3iTQ7NMXHwZL5NFhyf0OsF6v8f3336NerwO4vkEzmQxqtZpxAfjggw9USdXLy0t8/PHH6HQ6SKfTeOutt/DFF19gPp+rQLbpdIpXr14BAEqlEr799lvk83m8++67yOVyaLVamEwm6hgs60iNnib98XiM+Xzuyc3m+HXtf7VaoVAoYLVaYblcKnINe5h3EZU9mUwwm82wWCwwnU5xenqK2WymNPjZbHar9rfuJ5VEYjq+7OXO7XVT8mKxQCKRQC6XQzabRbFYxGAwUGV55b5Mvvg4i/+uECSs7GPhNAktFARN2+rCjsnf7XeMTeYzjul303tXt9wE7TvsPOMiym9oqfMjcTm3uzaV85pzHZHNhGTw3335/R8ywubDkvueQTN7sVhEOp3Ger3GO++8A+B27i+3z+VyqNfrmM/nmM/nyhw/GAyQSqXQ7XY9fvTJZKK2A4C3334bhUIB2WwW2WxW+bxd18VgMFA+e0bfM4hvsVgorV0GqZluokQicaue/F2BZLlcLlVKIRcFv8VHknmYGTTqd5wjHttU0Mb0uzArAN/vczHT9/+YF84o5vJtTN/675LJpHqe9V7zm5jgdZdBlH1ERdzshm33swm4b7/aEDaQzoywebHkvmfQr35wcKAe7Pfffx/z+dw3kp0Vzkhe8/kcvV4PrVYLiUQCw+HQU+2L2iotAp9++imy2Sz6/T6A6zQ6mrJfvXqlzOnPnz/Her3G1dUVms0mlsvlrQeMEn0ymVTHND2Em3TsikNgUf2kQd9Lcg87VhSzKBvGsIENrQnAbVMzNQ+5j23Kdu4S+yL2oDgLP2Fnk4Xc71ptG4jmN5ZEIoF8Ph+pdG3QfqKQ6SZxAUSU3/J5jhL4uA/wWWNTKr7kOmNxgzjXw5L7nrFarTCbzVAoFNRNnM/n8Sd/8id4/fo1zs/PPds7jqMC6dhgpNvtKmHg7//+7327lQFAq9XC//yf/xPPnz/Hhx9+CACeDm3U4pfLJXK5HFzXRaPRQDKZxPfff39rf6aHSzdvx1ngghZ8fhY2BrkvfX+TyWQrstjlYuJ3LjzG+++/j2KxuJMxbOpDj+sX3hRhRBZXyAtDFLP2ptr+YrFAu91GPp9HLpfbeQe1bc4xzn54fkH7eSjkuqv7502CJfc9wuSnchwH2WwW7XYbjuMo07j8npHxyWQSh4eHODs7U920er2e7/HS6TQ++eQTvPvuuyrtLpvNKvP5fD5HrVbDcDjEeDxWPvbpdIrFYoFcLuexCMQBH77lconJZKLiC/S50PcdVbvYZCymfWyiRW0Ck9axzyCpKFrqJj7jTTVI+RuTwBFXw9wUQYLeNuQYN889zr53hX2Y73eJuGtBVEXC4hqW3PcMauvyfTqdVj2K/W7WXq+H2WyGyWSCb7/9FsPhUPne/RZcptpVq1VkMhmMRiOUy2VPBHIqlUImk/F0nqNAkc1mlQ/Zb/EyBaLpC7Xfb6fTKTKZjM1ffSSI6wveZL+73HdUC5JuRdJJY9vx7NL6YXrWd0Vwcfzxm+IxWAUeE+LMmSX3PYOBZ8CNxpLJZG7lfuu4urpCu91Gq9XC559/jnK5jNVqhclkonLS9WC21Wql+sWzkA1ruwNQ6WepVArZbPZWFDyD9ObzeahmEif4hgIOI+rL5XLg74JM86bvZFStXJj9fLx+Y7+rALZdLmpx9rVNUNkmCHPBbIK4UeRRrnvU73eBbQSHKJaguEIABZsoY9p0fnb5XFnze3RYct8jgh7GKA/KyckJPvvsM7x+/RqtVgvdbhfPnz/H2dmZZ7GsVCoolUqquM0vf/lL5XOP8uDqhVeimI+DIq1Npt1PPvlERZfLNDsTTGMO8pe+fPkyMFI+Cu5y0diVK2IbX3VcjWoX87MP7TMKgsy5d+Ue8DsmjxtF+IsSjxJ3DHFSzOLOj9x3lGfTavK7hbWPPlDIh0KSrqmBCRcv/YGN+7Bs60c0jctUlER+b/pc34f+G8YRpFIpHB8fP8mAmjDLSBQt1G9udZKNch3CxhSGqOMJO9Y2Ju8grT9IWI2DqHENmwo6+jilG8wkEMvXpuONu608nrQMRPGxW4LfHazm/gjQ6/V8td1NAtR0BFWWI0HLvHYG9zFoTNf8E4mEivTfRzpLKpVSbo1CoeCb4mYK3IqzQJkQ9fd6RsE+hA+5gEYli12ZhKNAH9+mWnIUYWYbBAUjxnEDhF3nuJY7/Xis7sgUWhkbw1gZ13WRSqXguq4qLmV6TSYTTKdTD/kmEgmkUimkUikkk0mVnkZEeZb182dsDwB1XL6m06kq+BTVZeU413VAbNxOOCy5P3Cs12t8+eWXKJVKHq3dT0rfBaTmT2sB/fyO42A+n2M8HqNcLquHcTabeeIIer0eHMdRaXi7XpwLhQIA+Got8lyikp1uHg3bPuizfcEv9sBEoBKmxTOKprsLs/UmAmiQVif/BsVi+O1Xkvk23d3CtOKg38rP9GtnsqyQrFl9MZfLqUqT7ArJWBquE6xw2Ww20el00Gq1VE2LbreLTqejujq67nWNDL6y2az6n4G/pjghv/vDca6rEJLIAaDf76t6Ha1WC81mU/XTAKAEiiA4joNGo2E1fITf85bcHzgSiQQ+++wztFotVZRGwmTm3uQYYX5WRtMnEgnV8GQ+nyOVSqFQKKhcX32/rIb3EBBGBtKFEPbgcD+0augm56D4hTCEmSs38X3eB+KY1sMEKpOJOQqxBpERcDtNlX+DtHNaq/RrHuQ397OsSGLXfdR8X6vVAEC5olh5MpVKIZ/PI5vNYjqdYjQaodlsqv4Ky+US5+fnuLi4QKfTQbvdxtnZGa6urjCfzxWJyz4P8jNWt6QlwAQ/q8dqtUK73VYptwAwGAzQ6/XQ6/Xw9ttv47vvvkOn08HR0ZEKtE2n0xgOhypgmNYIvnccB6enp6pnxibux8eMOO4cS+6PAEEpc5vujya4XC6H169f4+rqSpnQTA8MP0skEkpjAKD2Q/D9fD7HycmJenB7vZ6nVe1dQV9wo2rlUTX+MM0vSLsL0kRN2+ljjIJNfbtRto9KYFGPFefcwohd9/X6WWU2jTMh0ejXLExwCbu+ANQzxmeR1SYzmQxKpZLqZcDncLFYKOJstVqqWuVyuUSr1UK73Vaae7vdVt0imY4rBRxq7EyZZepqkBlcn9PFYoF+v49ut4vxeIzpdArXddUYO50Ozs7O8P3332O5XKLRaGC9XquSvtzf8+fP8cEHH6DVat0SnE3PjoUXkcjdTtz9Qdc2g8zC6/Uag8FARc37geYvFrkBgOFwCNd1A7Vs+uW4+HBfsnwlF5xMJoOjoyPU63Ukk0lVOU4KBneFqOQYZD7WNSx9u7gm2rCx+h0nym/jfhdnbPdlBQCCfeP6NkHf79KFFQd+xE6hmT50Ei+Jldo062MwlZZC9XA4RK/XUyQuyb3T6ahXt9vFZDJRPnXuS45LP4Y0lUe5h9ifotvtotvtYjQaeczy/X4frVYLZ2dn6PV6KJVKyOfzSKfTKBQKKJVKODo6Qrlcxo9+9CN89NFH+PLLL1Gr1VQbbLoILIJhNfcHjjCtT2I+n+Pzzz9HpVJRv9U1i10salwYAKgAHEr26XQauVwOjUZDmdl2EfyyC2LRfawyjgDwamPcXh5ffqb7bRmUKLu/hZG+ydysB+LJbTfFpubxIC0zjCCDrD9+24fBT1vTTeNB++Qc8+8m96buFtBN8Sb/ud9cUsBmV0a2Q85mszg4OECj0UCr1cLbb7+ttF9+v1qtMBgMcH5+jlarhU6ng8vLSw+5X15eqnbRtJ5J4UAvKkVBIpfLKeJPp9O+LZrlHK/Xa4xGIyVsdDodjEYj5SaQ5N5sNlUPjU8//RSLxQLlchnlchm//du/jZ/85CeqZPef//mf3zputVqNfd2eAuII6ZbcHyjeffddFZTyf//v/8Xr16+xXq9vlXUFzObcwWCAr7/+Gu+//37kGyLKdtQyWKOeWgDBhYE+waBqdnGxrfbJxZSgpYILlHQv+BGR7lMnSdCCwYwCvREG4G0mw78mUgoyd0eBHPuuTfGbjCfOvrfZh59bQ/qvKYya7s04Y4h6X8eZz0qlgkQiofzhdMflcjl1n7Ke/WQywWAwwNXVlYfcLy4uMJ/PFbmfn5/j6uoKi8XCEyhHDZ3PMUFSj6oZ8/xWqxUuLi4wGAw85D4ej5XmTrN8t9tFKpVS5/v3f//3ODg4QL1eR7lcRi6XwxdffIFnz57h5OQk0jgsbsOS+wMFH675fI7ZbIZSqeRJNZMa3mw2U2QKAMfHxzg5Obn14O4K0ixGHzrfc9GQAUeJRALlcvleTbpREGV80jRP4WvTfe0L+3SjPfRrSIS5NKL62vfp6tCtHxQOM5mMCmRzHAfFYlF1IKQ/ez6fYzQaKT86TfLSLE/zONNWqa3rpnd5/LCy2Pr5u+51UarRaIROp6PInWZ5Se4cNwCUSiXUajVUKhXkcjnUajXU63VlpgfwYAJxHyssuT8CuK6Lg4MDJJNJ1fZVmqnn87mnj/jR0RGePXu281xQ+ty5ABFSI9a1IhJ8qVTCZDLxlLu9awTFK/D/OOZ/3TzL/03peX7/7xJhQYDbbv9Ysa+534WbSN+HfL74TJHsXNfFfD7H5eUllsslxuOxioKXL5rB1+s1hsOhInPdXy/jX3gfRLVocHvZ0IrkPhqNFLkPh0M1HpJ8Op1GtVpFrVZTpF6v15Vfnee7L+XkTYEl9wcO3YQrfXj8Xz4QEnEDsKIuVgzyMRGDXvgCwK00OVlrP2g820LfX9j5bht5G+RXj7p9nO/jjOupkHgUAW3fxwO2q+bIfepplMBNkRZpiTOBAXLNZlOZ5bvdrscs7ziOxwwvc9j5XvelRxVuaRkgmfuRu9Tci8UiKpUKGo0Gjo+PcXh4iFqthoODAxwfH6s4nVwu92Tu1/uEJfcHDD9/bJip8De/+Q1SqRRevHgRun+pcQaRW9ADH/YgmkyPftHgUQUOP+KOsyjsOtDwvhCX3Ezb79PXfl8IOydT7EPcfXCbKIJaUCaEaZ9RXQJ+sRubIij+I85vd7Gdxeaw5P7A4LouxuOxCqIBbvzawI0JXJq3qQEwuG0+nyvp3bR/03vdjG4Cv5M+5zjnxOYuelS4vm1cd4Isgxt1oeXvgiLZd7UA+Y0pCvnsWnuPY0XYtfATRZC4T7P5pkQWNKf6HD4mUntMY7W4DUvuDwyu6yo/GcldT1dhxSgSpOwPTxMcK8np4G8YlEdy0+vD69CjxJlGFETUPJ/1eu1Jw1ksFsbjcJ9xc1hpDWCK3mKxiFRcRgYmRhGEgNvukW1w15pwHO3S9D5onw+BCO5qPuMcZ5vMhX2MJ+44gvYtrX7b4CHcO08Rkcj9sZnjHiOCFtKDgwMVKZvJZG6lw1WrVZRKJWQyGUwmEzx//hz5fB7tdjv0uCzxyFrtsvqTft1Xq5WKEF8ul8jlclgsFioCVj8fpuNMJhNF2Hzvh0QigYODg1CzpBxbPp/3pJzRV+nnU59Op1itVsjn81gul0oYiLtom/4n9P1xPnRLQZTFc1fYViiJY4HQt92VlSKKsGGa9ygwkZXfb2Xhpl1DnqOpGtu2iGrZ2uT8/CyDcX4T1zJoYYbV3B8YHMdBvV5XBOU4Dmq1GobDoW8gmiT3fr+Pg4MDpNNptNttNBoNDAYDT/clx3GwXC4xHA5RKpUUUQPXEa3JZBL5fP7WcZbLJRzHUR3qZKqKieCBa5KbTqeoVCqq6QWjZ01IpVKxG0MwAEevke9HLrRosMSn/n0YdNeBSRAxCUnSrWHap4n8d4Wofl7TuEz/873fvAUt8ptomrofOCgWI06MCnBTeIkCWRRBJIplSP5vui+DBKUo49Z/w33yFeZeiwur5D0uWHJ/gNBJqVwuK5N1Npu99ZDVajVF7iwEkUgkMBgMsFgsVH1nuf/FYoFer6fS09brtarrLCvQSVDgSCaTqj61yUcux7derzGfz5V2zBQeP7BLVRz4Re7r4DjZMtPkGthEu9UXZFP8gtxvnADEqMfedps4IHFEDbzc9vhRtMFtiWdfQpV+jKify/HsyvwdBVE17bjXdFOrmMXmsOT+wOC6Lnq9Hmq1mspBZT1lP42X+aFsMFEqlZBKpbBarXB+fo7BYOD5LQvjTCYTnJ2dYbVaIZlMeopKBOWYrtdrZDIZ1Q866FxWq5Xq40wTfpBZnsJL2AIiyVIGH/pBxgpkMhmP5sXysfrYTeQfZrrVTah+52BKgdqHGTIs6Cvod5Jg4u5HXj+/ffhZNvz2p1s2ggg5jvDB4NOoPQ+izoE+h1H2qW9vshCYotlN5+u3r30KMtaUfncIu4aW3B8IZMDa4eGhR/s7ODhANptV5nD9N9TcU6kUxuMxZrMZhsOhp2mEJPfZbKYId7VaIZfLIZ/Po1AooFgsolAoKB+8DhatMAXryXHxxmNP53a7reIGgsid5tEwstZ97rQ0mBY43SRfrVaRy+U8rgTTg6IX3IlCPMvlUsUxSKFBFwakT14nLZO/Oq5GvG2ku59wFcdUrG8bZCaOs88wQtP/9xMW5XXYh1VFjjvO52EwWTJMAqrfMeKSO/fvt899CqUWXvi5Gk2w5P7AwKpShUIBs9kMV1dXntrSJtRqNbXN4eEhptMphsMhBoOBeklyn06nylTOWtUsnCH7OEtQC9ebq/A74LYmxsp5juNgMBhguVwqq4GuObMqVyqVwm9+8xvV2jKfz4d2uQsr+CGPw6BAv9rgm5i59QAov+2i7i/sGHH2t42GFve3uwyCinu+Ua+fSVAyCQ1BFoGoYwrb16aIen31Y5vcRfo1s6T6dGDJ/QGCfZxXq5XKeZdkqxNTuVxWDUtqtRpevnyJ4XDoeelmedabll2iZNUq3UTpF03u99lqtVLHYRAdBYrFYoHlcukRCpi+57ou2u02VquVGmMYuUszu8n/T61GWht0Qg4i2CjSsi7wmISHu/Al7orY9f2ZCDHMNRFljBK7INRN3RB+oDUmTp1znTjDrv1DI1TTePziU7bZp8V+Ycn9AYGLAVPd1us1Dg8PQ3+XyWRUmceDgwN88cUXqr0iX9IUTh97tVpVWnoul0OhUFD/y3rWJEa//HQ5fv4dj8eKzOfzOabTqSJ2kj63T6VSW7VwzOfzitylEOS6rkp7010JYX5NfRv52S5MnSb4+YnD4hpM2+1TkDBpyaZ5iUu0QeOPSg5RffC6qdnv97PZTMWnsJVyEKK4SoLmSsc2/SE2vQf85v4uCXqXVqCnhDhzYsn9AUG/cJlMBo1GI/R3rVYLg8EA3W4XX3zxBS4vLxWpDwYD9Pt9Ffzmui4KhYLSzknmbPVIM70MbFsul74NX3STJkl0sVhgOp16/p/NZuo9iTaZTKJcLitT+SbmVUbYm3yr2WzWGIioa9lRG9pEfbji1h73O+8wgtynv9MkOPgJMSai1zX7KEJKmOAUZD2K8p1pG97/YXEkpv/9tgkSTuJcsygCiN/3+rNpgmlc28QIxBGI5X7vwo//psGS+wOG4ziB5kC5iFITmc1myjcuA4boK5cEKBtX6E0s4pikTSBZ0kRvCh5zXXNEepiJXF+E4i4cUXFXpnSJqK4P/ftdab278r9uuy8KZFEj2P0QRFS852X5Zn17VorUU0PDNOpt7rltEEfj1a+Pn9Dm9wz5CU76mhH2DO7C6mVxG5bcHzF2Ld0GkWqQH870HevfcxEF/AUFms1ns5nH5y/bXgaN8S5g0izimJvjRieb/g8ai2n7x6z9TKdTo2Ab120RFY7jGCsbsqSz3j1tV8fdBRgoSoGasSuSVPX+C/K7qJq6VCLkcU1/uY2cV7aTZalo/XUf5v+nDEvuTxjbLPQmQvIjKD0il8Scy+Uwm82UW4ALkCwVC1wv5HQblMtl/Pmf/zkKhYJ64HXTZBSNYxfwMytHmUs9jz0I+n7DUvT8ahBsS+xxxnrXmlbQcTcdix/Bme6pKG6iIJisK0HacFS4rotWq4WrqysMh0MPmZoCZvW+7lHdPiT2yWSitl2tVhgOhxiNRhgMBur/0WiE8XiM8XjsiacplUool8uqd3u9Xvf0dS8UCsrFZgl+e1hyf8KIspiE/d7P1KYjaHGgFk/J3YR6vY7ZbAYA+PWvf40f/vCHKBaLscYbNhbT2KLsYxeLcBC4r8VigdlsFrrgcp5SqZTKJNiE2KPcEyZfeNRzD/OjR4W8D/3GG7Q/SeKz2Qzz+VyR4GeffeYp6xxl/9LdJT8LOs8gYVk3S0u3lWnfugbdbDYxHA6xXq89z5jjOIrcSeaMrZGachDksUajkacpE8l9OByi3++r/u0ke6axsvcDn+d+v48f/ehHODg4UP3cy+WyGrsl92gIe4YsuVsA2EyzD8N8PsdqtfJdTOTNyfrwDL4zFX+Jq6X7bR8nAjnuvCyXS0yn09hRznRNkHh06OQmTdb7NMUHXbNNfu+3jb7fbDar/Nxhbgq/ffrNo252dxzHWLCI28kgUdZjMB1P/p/NZlVnxsVigUKhANd1lftJ/42Oly9fol6v4+TkxBhjIt1d0+lUxa/IUsyO43hiBai1J5NJo6uMmM/nWK/XKBQKaLVaar/FYhGz2eyW5s4XiX06nSKVSqFcLqNcLqNUKsFxHBSLRUynU/T7faWxV6tVFIvFW0KJRTjC5smS+xNB0KIXZsrcJAAHgJGAJbgQ5HI51aSFgUsyyA6Axy8XNnb9+yAf9D4QNCYu3my8EzVYaLFYhGq4+qIdpXDPLhFXsNoG+Xw+VjBdVL+xCWHnRYIeDAYqsyMIiUQChUIB6XRaEW+5XAZwQ5wcmyyLzNoQjuPgl7/8Jd566y2USiVlzZnNZqpPxGw2U1knDJZNpVIeUzvbJ3OfLBIV1lNhPp9jPp+jXq+r8tS5XA7Pnz+/pbkPBgOMRiNlkmfVy0qlgmq1ikqlolIIS6UShsMhFouFMs2Xy2Xk83mPsGrJ3R9xnsFIq4Od7IeJqD5x+X2YedMPuvbgZzLUf7NYLNDtdj0950ulkif4h4RP3xsjpSVRmnyjYX5RGVQU1zS8qc86n88jlUoFdr7Tx0BNjtq7XylRLsq0hOza7x3F17ztMaMKlZuQsuk6+z0jPFfeI9R8TXOQy+VQKpXQbDY9xGnarxS6qK0Wi0Vks1kVU3J6egrgxg3DNFYSZK/XQ6vVwueff46/+Iu/8DRa0t1kbIDE54vHIRgIyCBVqbHL+ZLzIuem2+1iuVyqFNnFYuHJhJGae7/fRyaTQa1Ww+HhIY6OjhSBA9fk/sknn+Do6AiNRkOl5PJe9huPxWawmvsjxbYkvclv5XH1ffgRQzabRblcxmg08gT06KDWwb+j0Qiu60aqDOY3F3e5MMhjRc1xp/DCuVutVh7NSEcymTRq65v62KMQ96ZkHuarj+rrD/osSGDTfdY8d5r7md7WarVQLBaVhqvPL9NLSbDUOCeTie85yF7vqVRKRdwD14IZ+zbM53Mkk0lMp1N89NFHmEwmGAwGaDab+Pbbb+G6rqe403w+x2g0QrvdViTNMcuoft5P1NYZ92Iqjezn9mJPiMVigVQqhUKhoFpHS82dwXPD4RD5fB7lchnValWRe7Va9ZD7wcEBTk9P1XNuiuy32A0suT8hbGpeB+It4lG3JTFTM2dQj140RgYC0eQcpHHL84gSaKWPdzqdYjwe32rEE4Y4gT6mLnP69yRzqU1Rg5SQ5ts4ZVB1PJTFc5/jMFl4JJiKxYjx+Xyu3Eam+1r3b1M4nUwmHsI0+cX5l6le1LClu4HXP5PJeO4F2alusVjAdV3VM2I0GikS5/j5bHHfktyBG3dXlHuY9+FoNFLPKbNdhsMhXNdVArosZV0sFlEul1GpVJQVTif3crmshBv5fN+nYP6YEGdeLLk/cuzKzB7nWFH3Td/6crlUWjkXLy5YBLUP4HoBrVQqavGVx5daCY8VV7tkZG8ikQhsbSsR1YTP7cIC6ugHlUWGSPgmUCgyjeuuLRRx7wNgv2ZWP2KI64eXGqQcL33VLOHM7xgEGmU8tLrwOlJg4GswGKDX66HT6aDVaqngyul0im636yF3aus0w+upbvK4FFrCotD5Oe/D9XqNwWCgSH4ymSCdTuPi4gIAUK1WVT8LPrv1et2T5tZoNG6Re6FQuBXMZ4l8P7Dk/sgR9GBENWNGMYFuYp7V/Y9SUteLgrCzG02n1PajaKpBi3XY+Dfx7crfSitEmADAuaYpnjX7Wd53uVwqgYigVic1S2k6HY/HKBQKO1kgo2p1m+wX2H4R38U5RnVLSQFBbnd5eam0ZcIvqJPabL1ex2Aw8NR3oEDHvxcXF2i32+h0Ori4uMByuVS5491uV/0GgPJT0wKRSqWUu0EXVvk8BZ2vJPbxeKzu1U6no4QMkjt7QnS7XTiOo+IRaG4nuR8fH+P4+BjVahWlUklZTPx8/ha7hyX3NwAm/1pYFHcUDS1Kupf+APs91Lo/kFG1NDXq5+BHRNtq9ab9BUHvBy4/N+1H19K56LE1rh4oFyY4SH+y6Tvd0mH6fl+I42OPik2EDz+/fxS4rqtSOjnXvIbT6VT57/W55HFYxCkMsqkSs0wYPU/rlbw/ZJ4900z17oZRhCpd2GHAnOu6KBaLGI1G6h6dTCbquLxf6Z7QO0tKS4IULoJM8Ra7hSX3NxDbEh4RxScu/wYt9o7jqMWsUCgos/UmXbF2pSmGzZP+PdP9ouxXN8fL73QBJooFwrRt2Pbyr+la+hFWXJj2GwW7uE9NRBLXxcJrwpQtbkNLix/m87myuOgk6heDIYVFkqjMLPEryWt61ja5/2lNcl1XadzATTlpKdzwmWWsgCwjSy2df61P/e6xeT9BiwePKCZ7nVhM/5v2q2vaQcFIUR/k8XiMq6srz9iDNLG45BuEIJNllPNwnOs0Jz8fvum3QVH1cYktqnYW9n2YMBAX+r6DXBxh5xBF44tyr+lEG3Zspnc9f/7cWGOe0M+t2+2qts1RLA7yBdzcH7sQsOLAdJ0YeyCfPWk90HP3ZUxB1GfIYrewmvsTh+u6qpgESZiBLbVaDY1GA6VSCaVSSQXAzOdztNttj/YwmUwwmUxU8YzJZILxeKy0CkbArtdrlc5F3zn7x89mM6O5mrnwwLWG0G63kc/nkc/nUalUMJ1OVSGM4XCoUpGWy6UnVWi9XqPb7apSllHhp1WZFqKoZk8GMOlVw/iePlJZh5/+U5pldReGNMPyPQum+I1RR1gcRpCGaXKvhM2D3775m0QiodoLcxu2HJZzw4jwVCqFVqul7pvxeIxWq4VWq6WC0UzV5ojZbBYrpZD93IfDIZrNJt555x3lRgGgyioT/X4fruuq8Q6HQ7x+/RrtdhuZTAaVSgXPnj27dZzz83M0m03lc6cGPZlMVL11v3FzrvzuedZRkCl6JncOv2McSCaTwcHBgVoTWLp3PB6j3+/j6OhI/f7i4kLl71s8DERaAe9CWrTYDxipKkEyr1arqNfrnoYOzKUdDAYAbsx0bO7CxW4ymSizo+yaxaIaXJQSiYRKlwnCZDJRi9NwOFTFXOhjZCGbwWCASqWiInXPz89xdHTk8UWGQS5oMq88DjmFgfOguxVk1LTum2S5Ui7GBAMLqQ3Rz5tKpW5pe1HiDEzxC6ZzNJF2kHUnCsnL38iUNPlbWQ89m80q8mLAF6v/MTKcguB0OkU+n8cvfvEL1axIljLmXC6XS1XpTaZdmsD7jNeTBYQmkwkKhYK6T3lu9FmPRiNVVjWZTKLVankKtugk2+l00G630W630Ww21TMng9B4zXXhRc9E0UH/OM3kbAttAivLua6Lq6sr1Ot1tY/hcIjVaqXWjnw+r37HZ5558H6xKBZ3B6u5P1Loi1EqlfKk5pAE+HDKBb1YLKJUKqk81EqlglKphGw2i16vpypOAbfJfTqdqhQdx3HUwktyZ5AY09+oubMMpw4uALIZiiR3ahv1eh2JRELVrubxxuOxEgK4Py7WUXyrUuiI66cMcg+QCLgdBQ8GH5HgSW4kHQZWyfGwprmsVW5a5PeBqPNhig0I+q2sqiYzAfROZrJ7meu6qiwq54WCnyT3ZrOJXq9nFHw4z7xPw5BKpbBer5UgSxLlc0HfM8HrR+sLBdZOp4NsNnvLykJ0u10VLT8YDDCbzVTGiG7eNo3Rr7oe4BU09XK3pn3VajVkMhmMRiPUajUAULnsUijp9/sol8sq1oQvk4vB4u5hyf2J4PDwEM+fP8e3334LAMosaFrAWBJTmuUzmQxev36NbrerXsD1Q7xarTCbzRSxclGt1WrI5/MoFApKiucDXq/X1WLMAJ0oYH4tTYBcIN566y2l4QDAW2+9hWq1ig8++MCziPgt2Nv6+qL4TCX86qKTvGiGp2ZKiwgb50joxVKY+mQ67iaBVHEFGpNpP8r1ldvI/Gzpx6bAyPuX89Pr9QBcW6Ko/UrCkwRIzZOR5vr9VygU1Bz61Vk3/U+LVTabRaPRQLPZVOfA86PwNZvN1OeTyQTtdhvZbNYTpEZN2nEcNJtNXFxcoNfrYTweq/3K+g/z+RyDweBWXAcFW13Q0M+Jx2WJZObMS8tGt9tFJpPB8fEx/uk//aeqSh1dYHStrVYr/PVf/zV+8pOf4N1330Wz2VQuFh5PdylZf/vdwpL7I4b+wNAURmnbDzTLy1ru7XbbQ+wkd+Cm09loNMJyuUQymVR+e2pNktzX67Va2GiWDyIAqQ2s12v0ej1PZS7XdfEf/+N/BAC89957cBwH33zzDabTKcrlMv7JP/knHhNhEBKJhKprPZvNlCUiyG0QdYGiX1Sv760f3+Rj5yIqU58I5v+T0IrFoq9WtO0CKs8xiCg4lqjamYwXkOcvrT7cdy6XUwSUSqXQbrfR6/Xw8uVL/OxnP1N+bZIMY0FoUZK12ONCP2fZBQ0AXr16hcvLS2VdYLQ450SSO9ueFgoFtNttpNNpfP755/gP/+E/qHkmudOXvVgskMlkcHp6qixafJZqtRo+/PBDj6Dn91zxOxI354W9GviZXkyKMQvL5VK1Y+U88N6kxv9v/s2/wfPnz9FoNPDZZ5/h888/x8cff4z33ntPuSNMkfIWu0HYc2fJ/ZHCpD2RdMMgfe5cHFnWUjaCkAsW/e2yjrXUrKRZnm1eufhyAQu6GXWCp6+U6UYk3+FwqAKVFosFjo6OcHl5qchCnxPTMem71E3ypt+Z/NNB50Jzs/4ZAGWWN/nYSez8KyE1OBOZRg1o07ELQSDOdvLc9ZgDOSYWNAKg6q3z1ev1VLAnhVnOnzSHR4U+B/r11bNJqCWz94EkUEnuFDRoiWm1Wsjlcqp869nZmTK76/EqdLnwXpIdE2W6GeEXZ6LHNySTSeU3J/ReBplMBp1OB4vFAh999BGAaysg27VKTZ9V6AqFAtbrNWq1GiqViurbbrFfhD2/ltyfEBKJBGq1WuhFLxaLKBQKKJVKeP36taqExQXUj9yBG3MqzaaS5IEbzZ2+dunrMxGTKViLCzYXyHw+j2KxCMe5Lm7DSlnpdBqNRgPn5+eqUhZjDPzmRyJq4FkccLE2BalR2yWpkZAksUufO3/HYj7b+tijmEY39bEHHZPbS2KX5C5jEzg/LPcq70kGmEkhh8LjarVSvw/LcpDQiVKO2STg5XI5uK6rrAWO43iERKm58/4Fbnzu6XQaL168QKvVAnBTdpkBpYzFkAWcZJXH+XweaBnSz0OPwWEjHB5bL+9MX/tsNkO321X91pmBItPfgGtrQiKRQKvVQrVajVzO2WIzxBFcLbk/UpgWpGQyaUyz0cGFkab4TqeDTqfjMcnTx0lCWa/XqNfrKBQKSjjgX+lzpybD3xNcfKWmY4L8jqZKPXocuIli/vrrr0PdEFG0HL/fRHmYqG3SeiLJin9lTID0sTPFaDqdeoiBv6GPnYumTjz6WIMW/V2aR6MIRpIcmd5GwpLCofTTcn4YWDYYDNDpdNDr9TAajdSxg9wBUWMCHMfByckJAG8lQD+3RCKR8MRD0EogLVPyGvLFpivdbldZL2QRGN3HLueKn/He4v9B0AMbOVZmwPB8GUsjt8/n83jx4gVyuRz+4i/+Av/6X/9rJay6rouDgwOjcME0OL+AQYu7hyX3Rwq5cDKSPJFI4OjoKPS3XDQlkff7ffR6Pc+L0b7pdBrFYlH1dKaPnfnH0udOU3wul8N8PlfNWQ4PD9Hv91WkN7Udx3FUg5jxeOwJfqLpdTgc3iq3yaAoE8npc0SQ2E0Eb1owo5CHNJMyHkFqWjqoOdHEyZeuxRPSpB82rk2wSaBTnOOTzOi60XP7JbnzevO+lKb4breryH2b8ehg5DstC2FzofuoGWzGz6R7gITa7/dVjIeMKKewq6dGykBDk9tCP+e4Ah1T1gDzs0CXwR/+4R8qKxljVQ4PDwML+WzTtdBit7Dk/gTAh59EGQZGG8uGJaaX1BxlRLKsQCXLTHLBkWlG/E7v3UxILYw+dl2bYMoRP/OLvo+qsfnB5E8P82frpn4ZlSx/J/cjO2/JwDA9P5hjMWnru8I+iF0nHv3e0VO8ZDMR13WVgCPvReaP64hiiZHzGfT7KKlxpiJM+j0srycbr2SzWU+jIHldg54reT/53QdRBDQK2dPpVO3X1PKY7oFEIoFer+dZByiIRVljLPaDOM+rLT/7SCHTTOT/QdDNmTJdxfTyW+yCTKJyfKb/9X2wop1cuJi7HjZmv7Hp4zCNN0wr13+zKbHGOTbHK//G+e0mY4uz7a6OrZ+j6W9QXndcRB27TtSmVxBM5nz5HPmdzyYCk/w/yhxls1mUy2Xl9tBdRwQj/A8PD/F3f/d3yvdvNfLHB6u5W9wCSZcSu0nDBG56PxP0C9I3KbWRZDKJYrGoKmRJ0tX3Ua1WPYFl/NykReuLk07+0vypw69hi/wdrQ1BOcREUM60rnXpGqBfsF+YoCW3DYOfoBOEqNvGNe/7XUNdYOV7mesfB1HHtY3wRsjj8L6n+4i+ep6T3/F0QSDonE33Pv/K/ZfLZWWpk9uZrB4nJycolUpqH3/8x3+M9957T1WDlOe9yxgOi93DkvsbiCDt13VdZLNZFXUu3zcaDRV122g0VBpMKpVSwTpchAeDgfLtzWYzVYdepsoBN+k/JhMhtQxq93QRhBGUbso2bc8gL7nosga8NA+bfN67QFSydl0X0+lU+alNiLLIMh/blEplOm5Ul0aY24LV3Rg4xshrKeQw+NJ1r6Pf+/0++v3+rRQ4Blb6WTXkmII67emCVhwrFMfM2uvyO6aJua6rCjAR0rVguhdNRM35kII2q/lJ11RU4YX7SiaTyOfzt1I25b5yuRz+6I/+CF999RXm8zmOjo7QaDRi9WywuF/YK/UGwW/B1heHTCbjaQTDrlhMe8nn86p0LX13LFfLXNzBYODJ8x2NRmoxZNAZg5n0MTAy3HG8aUZc3CSinI8J9GvyHB3H8QQKkZSY/sNjS8uFCbpmFlcjNG1Pv63JkhFUfIcCCs+Bv49SWGRXJnjOFf3lMpiSef6TyUQdc7VaqbRMWXOB+dl+5uGgYEk/UHAi/KwDflqq/JzXgvEhksj5nSRquY+wMTJQk8eSfvswyHuR14D7M2WZyLoVH374Ifr9PprNphLwrbb+eGDJ/Q2Frs1Kk16hUFBd2IDrB56lalmHvl6vI5vNKs2q3+979k1yn8/nqoNcvV5HLpdT6WIkd73IS6lUUuUxR6OR8skzMM8PesyA/EwGbgE3VgH5mSzXS5KRi2qxWMR4PL5VZEYfA3P8oyCq1kULiDw3Rt77aXCu66Lb7apFnP7TOAjTkuMu9svlUlWYo+tGJ3dma5DUu90u+v0+EokESqWS53w3MdVLyBKyshiTfm4kcqlB83OOh9eIQaHMFqFlShK7yYJAyBrunB/mmbuu68kaoIDE/4NAwWcwGKBQKOCdd9659f3JyQnG4zEcx8HHH3+MZrOJ2WyGTqeDd955xxhXYHE/CBPuLLm/YZBmZ5pquTicnJzghz/8IZbLpScnNpfLoV6vK229WCwim82i2Wyi3W6j3++rohzEYDDAaDRSCx7LrKZSKVQqFaXFr9drtWhVKhWUy2Vl3pQ54fJGljnzXDyZDyxzg4EbgcEU1V4sFvH222+rCmeSOGVXOn6m5+77QS7aYT7WKDD5pDknsqqZ6fjj8RiVSiUSCepkFgVxTMPANQHyXmG+tGwqtFqtVLlZmec+m808+fByzLTCcC7k9zIDgfvn/cP7Tu9g5ufLBrwE6jgOut2uIkMZHU+rlUljl0KCfHHssiAPcF0mlkWcmJLWbreVsKfHrMhro79fLBZKUGeJW8dxcHV1hb/6q7/C6ekpGo0G3nrrLTx79gy/8zu/g3a7jfPzc5ydneHo6Eh18bMEf/fwi/EwwZL7G4hCoaA05GfPnuHbb7/F2dkZ3n77bZycnKDVauHrr7/Gj3/8Y3z11Vdw3evGLalUCvl8HslkEuPx2FPZjmZ5Ljb9fl/lrbPq2OnpKUqlEpbLpSe3OZFI4Pj42KMRkaSr1SouLy9VHv1wOFRRv8vlUhU4IcnL1qjAjVtBzyUuFovI5XIeIeLg4ADtdluZU9977z3VHpRjjQPTw+cX6xDVnOy6rqffu+u6+PnPf+4JPKNwk0wmsVgsVDOQINLSj+F3Pqbv4iz0NMMzlsOkudMSRM2dwtdoNML5+bm61wgpgDHlS3ZIlGAVOFNKnikWgVaj9XqNXC6nOhz2+31Pu1d5fiR1muZNpngeZ7VaYT6fq3uR997Z2Zk6t3Q6jZcvX6rzK5fLqoFLIpFAp9Mxll+W4Ln+o3/0j1STF8dxVEXLfD6Pf/7P/zn+4A/+QJ1bo9FQpYATiQSq1apyi1hif/iIRO72Qj4t0PxYrVbVZ6lUCh9//LGqQNXr9fDee++pwjPHx8dqoWJ3Kt0nKsFFmb7sTCaDUqmESqWC0Wik8t65OB4fH3vym/l9JpNR5Wdpni4Wi2rxnEwmSkuilUA3VbPedbVaRaPRQLlcRj6fRzab9ZjPG42GCgJ0HAelUgmdTgfz+VzVyvcL0LsLkNh1k/Dl5aWKC2CFM1Y5YyvU9Xod2FxnV5aFMDA+g1okNXeOge4QumQmk4m61sPhEM1m0xMEyUY9sk59LpdTwhzdQCbrR9A5SOsHyZrNjNjljU1YZKAjszz8fOzyePJeovWMhM0c82QyicPDQ7TbbRXgKQUK9pb3ExolEokEPvzwQwDXQgj7S1C4+eijj/D7v//7eP36NdrttqoRT2FEf2/xsGE19zcYXHTee+89vPfee+pz+th//vOfK4ndcRyUy2V88803uLq68vhG6ROVvuBut+shmnw+j36/j9VqhUql4tHc2UN6NBqh1+spX/J8PsdwOMTBwYFaZKMU0JBmT/mZvg3rhMt0N+mHZzEeavkshaun6elzGmfhC1r49QV7Op3i1atXePHixa20xE2PJY8ZhDjnFGQRWC6X6Ha7cF1XxTjIoDaWae12u6p6n+xIFgY9roLj0YMc/chc316a7eV4CF17l0V3/IhdjoHHocsnmUyiUql4xkrhTL7n+aVSKdUsSn6ug4LQer1GpVJBLpfDD37wAyUUlstlfPrpp7i4uMDp6Sk++ugjz9hNga8Wd48482/J3eIWCoWCqrkNXJvIS6USms2m0pRev36tatL3ej10Oh3lL6T2wah7WYOeL0nuXLTZdGW1WqFUKnnqc7OQBs2tppde6Qu4XUSEYGBXsVj0aEPU+tgtj6lH9IOGIarpW4dckE2CCbVydudiExVaIeSxpOnUdO5+x7kLzOdz1dWNgpSuuXe7XWWNkaVcZWYALTvS8iLvA2rrMt7Cbw6igCl7FO74W7oYKHSGaewSvE/pOtLjKXiM+Xzu6SJIyxK31c9nPp+rlEf9WMB1sxfeM8fHx2q+zs/PVSridDrF4eEhHMfB0dGRjZR/hLDkbnEL2WwWjUZDLf6yLSxJ25SuBNxoCP+vvTP7beO6wvg3XCTuFCVKlFW7SYw4Tdqi6EuBouhD0ZeiD/2vCxToUwqjLrolbRrJsiKFoiiK1EJOH4Tv6vBqNmqxzfH3AwRb4nDunRE13z3nnqXRaMy5h/kvv5juRlGly5GuVT+NiA8W1rr2sSJvfxZ1HMcdDocuLY+ubpbRpWj4D8mkcwOL71fHYaOzCffPucAqFotuYeSXKn0MkuZvFwpJiwZ+PmiZR1nudpuFKYBs8WuPiwouumtcRJbAQPuZJAzY49z8wk5J41oB97Mr/N87z83vbYyBn9Nvi06RTqeDZ8+ezW1TtVotV7vCv277s7i/AfF+I3EXt2DBFD6kR6MR+v0+RqMRWq0WyuUyRqMRzs7O3L8MOiuXy65Ahm0S4n/P89O9THFnwBOt5+l06qxnYD5P2idtL5w597wGRjXX6/U5cbcP2iw54cSm9WUl6dy+SLK5TrPZdHM+Pz+fK9X6EEVGFo2AT3NzW/g7tsGWVtz9LA5aqiyCZIsfheFNf3VfcK1w2oVS0qLjPiTVG4jDfl6TPtO2vjtwk6/Oa7Id7fxz0yqv1WquqRRTXfm1yGdcLA+qLS9iSSt9aaudWYGxFrR9yPJ9No83C2nWuD1/HKenp/jqq6/wl7/8BfV6HT/5yU/w/PnzWxaJP3+6WePGsPuyUXO+SwBe1H2877F2HmlziZq7/56075PmkPXaHpqHHi/OzZ92jxf14iSNlVRPoVgsYmtrC59//jkA4I9//GOsVyHusy2WF1nuIpa4euq+QFPoaUnxi+lYtNbsPqlNVbPiaUvU+t3TeHwUcYLhB1h99tlnGI1G+Nvf/oZarYZms3lrDhYr3H6usj3GjsX32Pkk1ab352hdrf7Cga/R8s0SYOh3m7Pz86+FYyZtL9hrtoFWcfnW/nmjBNC3tK172S4I3neyzjHu3hN/MWyt9SgXub2X9u/r+PgYp6en2NzcxK9//Wv88pe/dOV/rcfkPtci3k8k7mIhbKU3P9ALgIuQZyBdo9FAo9FAs9lErVZz7ngWLpnNZhiPxy5YiMFitt853bcAEi2VOFhTvdVqYTKZuBrnLLFrS6AyopgwUpv/5/h049N9zKAoLlCurq7mXOT2e184eW18aJdKpblOeSyOwmPsfrNdUPDYOCuMbm77vqjFAecfhb1ue+6sQmDzvxlL4Z/Lbz1sxcouArJuBaS9ZrGLF793e9Lx9yUMQ7cdVS6XXWfEILhOQRuNRi6ok39rwO09dwC3FpYA0Gg0sLOzg7W1NZdTb4+RkOcPibuIJeoP3hf3lZUVFzgHwAXLdTodNJtNl9vOghhBELha81bcGR0/HA7nUs7YgIPR9TZSOasrmLnxGxsb+Pbbb7GxseH2IQHMpRpxHH5PC5mpcCwqwuMo7BQgFiXh97xXfuqcFeHV1VVX5cxGXfMBTMGjB4TnolfEvw9RVj/FigsUbqdEFT6Jql3uLyb86mj+ZyXOcueijaliLM1KeP94DL84Xz94LAleP7eMFgnAYz0HHmMXFVki4X3iXPH2Z4xXYZVGXnen03FFa4IgcOWZ7T2J8mhZjxAbPRGm0D1mAKZ4t2QSd+29CADO1c6KVaxe5RfDqdVqWFtbc+Vk2+02arWaC4z6/vvv58R9MplgdXXVFQeZTCa3Up9o1U4mExdgl5ZHDNw8VBnRT+uZ1e2ijme09s7ODobDoct/n06nzivBxQwAJ1D9ft/NOQxDtw1BUWMtdaaA0etRqVRcuV/+3OZ0MxCRgsR0sslkMrdoYgAV7411x9tGJkw5ZHUyH9uBjnPn/EqlEoIgcIsR6za3xIk7+wwwELBQKMylc4XhdaGeyWTirPyLiwu3mGKaF8dkwJiN+YgTLD+WIAq+Np1Ob83DlpT1rfokyzfLHjt/L/V6Hdvb226RGwQBtre30e/33Zj7+/v49NNPsbGx4cQ9bRvlyZMn6PV6bkGwLNsc4u7IcheZoGjs7u66CnNsC2thVTDWoq/VaqhWq66MK9t5jkYj91BixDpT68bj8dweOMWOLktbppOCZrG5zXHWEtPKfLfmysqKi9Z+/fo1BoMBLi4uXFc7eilsKl+hcN0pLwgCV3aXY7Bxju2lfXFxgWq16sZeXV1112fL5NotgHa7jel0isPDQ/e7oPjwQR2GIU5OTrC+vu5+Zu8FrXFa61xAnJ2d4fLy0i3SuBBh8SKOA9zUg6clmfR58eFCjos3LrTsQobH2Epvl5eXqNVqcyJpxZ3ldm2MB/+N+hz4Vrj9ud3vt/OwngR+9rjgS7Pks7j2+TmuVCrodrvo9/suvbTb7brKkaTb7aLT6US65aPY2NhwiwHxYSBxFwvBh7Pd9yMUjmq16tzyKysrrhY9U+f4ZR+i3333HQaDgWs2A9y4lwuFwlwjG7t3zHami8ASosCNJUjPgHWzM32PsQDr6+uoVqtzvbD5cF1ZWXHFRy4vL3F2duYWKTZwiYLD7YKrqyvU63XXGISpfqyeB1yLe61Wc13dmONeLBbdookCcX5+jkql4lILWWa3VCo5658Bi5wXxYnpjLT4eY9Y171QKLj7dZfUL2678PfLc9jvbd4499t5X7hw9IPsrLBbz1JUrXgucPg7toGbdnwea0si2wI1wGIezSxxCfSotNtttFotdLtdtNttrK2t4dmzZ87zs7W15WJaWI/CH4OL5M3NTVxcXKDX66HZbEbeE5FPJO4iE7QsbEnZKCjuFEJa5icnJ64hCJuCADeW2sHBgXuQRnF8fOzct3yYlUolV5oWmC9QExVUxGPOzs4wGAwQBAH6/T6q1epczADF7qOPPkIQBK47WaVSQaPRmFvYUGjPzs7w5MkTV4CHVdY4JsWX++oXFxfumkqlEra3t90+72QymRP3SqXiagV0u100m023N21rtdNSPzk5cVsgfG+73cbOzg7C8Dqj4fT0FAcHBwDg2veyWQm3U3Z3d+fuK+99tVp1OdNxRO1pHxwcYDgcuh7zdk8duBakyWTimgtRbFkAidUN4z57SfPgXOx9s2VtbW8C3qONjQ33mu+K50IqLiAtysuQBMesVCrY2NhAt9vF559/jp/97Gf48ssvsbGxAeD67+u3v/0tvvzyS4RhiF/84hfu/fwbnc1m+Oc//4m9vT385je/Qb/fdy5/Oy+J/HKTtriUuItMcK/YNi3xYYAWRZC14b///nv0+33XytO6HFlHfjKZJEbCR1nnXDiQLCViw/CmH3YQXLfsHI/HrqwtG8QAcPvaAJyw2Ch7S61Ww3Q6ndvTJ/b/s9l1x7xut+us7+FwiG6367wc/nzPz8/nXqMlaUuzEu6J+/eLFv5sNnNztAFW9j7a7AHOwd5XVizk9URhtwLOz88xHo/dXO3+tV3Q0d1NQaWb+unTp2g0Gs7r8DawwX9RAYZZ3k+yiijjVXq9HobDIc7Pz/Gvf/0L29vbc+d69eqVKz1Mdnd3MR6P8eLFC/z973/HZDLB5uYmgiBw22fT6RSvXr1CGF63V7b9JMRysMjnSuIuUikWi1hZWcHa2lrqsXSL0s17enrqrHZa7uz1TmuDEdxJD09apfbhThe4ffD6AV42Ap3jDAYDF8THaHibakbB+utf/+r2O3d2dlwmQFwpTrryg+C6E5516VpXLoWWQYPscsdrtOlpNiiOiwd7Xgokr5kxACwTzOYsvM/8HXG+vGaLTfmz95oeCH+rIe73BWBuAWKb7lhh98Wd3dD4WaInI6r63mNYn3Tp262BxwoqtvOn5d7pdPDFF1+4MsNcUPvXarv80Us2GAxQr9ddTMdgMECj0XDueC4IyuUyTk5O3KJJVnz+kLiLVGhB2YCeKKwrlnt+fpla+zNbKzvLwzMqr5nlSaNet/O3wVI26vni4mIuj9xycnKCWq2GnZ2dOevJh8Lp58Hz/764c950xXJf3xb8see2AYTc97alWW15Ulq+7GFvtyrYcIRbFrzvfu1w7kUnXW+WDm28divmtt+5vQ7Okee3ZYj5nrctQv4e+2PDBVm73Y5t1GLd6jaNkZ4nNl0idmESBAHa7bb7nq9J2POJxF2kYlOjkuBDfzQauch3G0Bnm80wonxR/Khnm1MelcvMam4+0+nUueeZ9uQ/6OzCIWmflzEDrAYWBNftZJk/b9t/8gEOwNWHp4BxbDsWLXeb92/3gf29YL9KHnCTAUDL3RaF4fdp7m57Xzgf3/0fJRJ2j9sGqNnvbZ67DZBj1oC9P1k+h1Es8lmzQXVpKWb3xS7KaLnbbAcbq5EEgzKTKBQKkRkuYnlY5HMncRdvBf8haa38LB/YLHnC93Gd+u+186JQZv3Durq6wr///W/3sLUP8EXmYr0Nacctct77EPV7vO953+cAr7Trs96EtOPi4lT880QhC1ssisRdvFVs0NqiosDjbb9r4KbwS9YHsW/98zXf6qdlSuszrjiKv39Mb4I9V5qFa7HH0i1sU7a4/26zAqK8DkypyzrWItXK7LhAvPjYYjr+7zxu0fQ+iFicl4DbOMT3xvBnUedLgvUO7uqZEMJH4i4eFV8wmUrnN55Jep8PS9ISGzTml3m1Y9t/szyAKV7WPR83HxZm4b9xFlkW4bILAyvs3AP2m+pEYfeyk8a2+65J4u57MuIC7qLOzzry/v71Igu8JMv2LhZzlvHoeeH8WSeAWwoAXP0AG9y26DyCIMDV1RWq1arEXTwYEnfxoPh7v4QR5EB0s5I0rCgcHx/PvfbDH/7Q9Wf/+uuv58b055YlXc7CgjT+mJbz83McHx+7FD9bcIfjZoExBH7VMT9tjCVRGajnu/Hjzu1/ATeWKKPTLVH3D4Ar6pOlOhr35+nR4N4yX4taJPjXYOMI7OtZhNseH3X9/vx5zaVSyeXyHx8f4+joCE+fPgVwnY+/t7cHAOj1emi32y5LIa3Gexyz2QydTsdFr/u8D94MsVxI3MWj4LuhmZpTq9VuPcDjRCTuvF999dVc9bpvvvkm8gEa5Wb3sdZolPXJnO80ce/3+zg+PnaBg8SPVo6CosCI8Gaz6bqAUfBLpdJccFrWsqenp6dotVpujDC8zvOnZWq3OCjYFt9tnxZoVqlUUC6XMRwOnUXKdDh6VbhN4Qu1P3d/HnwP57CI4PF91oMQF7MQBNf1Gnq9nnt9MBhgc3PTlbvd398HADSbzdSCPnaucfdtNpthfX19LtLdf68QlrSFrcRdPBpbW1tYWVnB6emp650ehuFc0ZVFmU6n+PTTT13q2eHhoSuoQtd8nJt/0YckxWkymcwJtg8zBEajEcbj8VznOpJk5dpUvEKh4IqnUNCYwgZcW5RMI8ziEeCWAq1cP+0vqQHKIi5zeywFHYCr02+3NqI62fE8UQFqtjRslsj+NFhWOMmVXi6XXV0HdhBkFLv1PG1tbc0Vk7HzXnTx0Wq13Jwk6CKNtM+IxF08KPZB/+zZMzQaDezt7aFQKLiH4MnJyZ3PH4Yh1tbWMB6PcXR0hOFwOFdN7a7n5Nx9mEJGSzQKvn56euqsar6X52Yns6ix/b1xu1/O121hmkUzA5hPbgsMceHij03LfZHcbrtwoevdz69nwR6OG5U/HgTBnMvebgNYWOfeHzsNepBYb58d/lZXV933bAAUhjfVD7e2tlwxHeC6XO/Tp09dDf+HqJpnxV3CLuJY5O8+k7jrwyayEPU5ieoex/Kti1rT/GA/f/4cw+EQ33zzDV6/fo2TkxP3gM2aF+yfMw7uuff7/dhzTiYTHB8fO2Hj+MzlZxCW3W8GboTPF6ioPXeeJ4uw28VKrVZzne0s5XIZrVbLjedjtz2i8F/n9ywzu7a25vrb0y3fbDYxm80wGAwir8E2jeH3UY2Bjo6O3DWsra3h6Ogok8AXCgVsbm66Ouvtdhvb29uug+Hm5iZ6vR5KpRLG4zH+/Oc/AwB2dnbw8ccf409/+tNcTMmvfvUr/OMf/3A1+oHk7Is4eBxr+gvxEMhyFw8O99YLhQIajQY++eSTW0FmxI/CBpKj5xnVTfdot9t1/cbPzs5upSrdd2Hq11mPO4biHbd372NFzMdPMeNxfvndNLgF4rdWZWEY7vH774nD/z0xDYzXQ5c6S+/aa2W8wCL3iBX/bDqfHZvBeosELMZdl90OYFZHt9sFAFe+tdvt3voctlqt2L4H9veYFOnP16rVamTfAiHugsRdPCgsn1qtVl0E9traWqxbOoos+erAtdi1221MJhNXO5uimWWsqEAq/2d0y/tV3fxj/AAxf672/9YVH2fhWRHj2HFjRF0Xj7GLDv+YqJK7cfP3xZjn9MWdcOFgxTyuRnuc0PN3GdVMh8dHXYOds43DWGShVygUXH97BoPa0q08HwNE08gS2c+tASHiWOQzLHEXDwq7x3H/lA/AqKYfvlWTxcoBbvbsi8Ui1tfXXcBYEAQubSzpPEn4c2EgV1QQoC9e9uGdtHBICwrzhcBG0vsLgahxrIjayHpia93fJYDOHsv7Hrf4oahzLmn412Q9FxZ6b/yaB3zNX3zw51nhZwuAawbkby8x4yCt50LWbSJG6S+6tSREFBJ38aCw+YntZMXo5IcgDMM5ca/X62g0Gri8vMR4PE6tWc+ub77b1Iev2SIsaal0UZat/564KPe46HHid8NLmrs9Nqo5iC1+k7Q3nHQfffGkmzzuWH9eUcSJWZTFn1TAJy4YbxFxp3DHfc+fMRjvoZGwi/sicRcPjv9geqgHVZRY2v3SYrGITqcTGWBH4oqW3IUol3vc62leiSyvpS1E7ssiVrz1WqRZmlm3WdJ+Zkka7yHuRdQc7jJPId4VEnextDCozn5Vq1VMJpO53uDATY9u21oVuHYV8zUfRmvTQr3PooWBbVHnAbIFE8Ydlxa4xa50/tx9b0rUfn+SgNq9bFZo86Hno1wuz+3PX15e3rofdruCr0UJNbdIFnVdP5ToC7EMSNzF0uBbgAzWYxT4bDbD7u6uq/IVhiEODw/dse12G4eHh6hWq67/Nb+PilIOw5vUtSiX8iLCcnBwgHq9fq+AKV90s4wfhqFL07Pw3qVFy2cRdzsnn/F4jNPTU7Tb7bl7eXR0hFqtNpfXzVbAwHVaGOM0/DkdHBzcaU9aVrb4kJC4i6WlVCphY2PDFXdhCtNgMHAWOwWlVqthe3sbW1tbeP36Nc7Pz/Hxxx+7kqJRD/7pdOoEhoVkLGliYRcjUeNYKzVLS1m7r10oFDAej/Gf//wHL168iIxp4Nij0ehWkGG1WsX29naqKz7pdWutx1nuUV3nrq6uMBgMXH65XSBkya/v9/tz98suepJgJofdyon6EiIPZBJ3ubPE+8jl5SXevHmDb7/91pVs3dnZwfHx8VxnNuA64pnRz5VKBdPp1KU6xUHLPS5YbBFxj4LnzJom6FvuzWYTq6urWF9fT6yt/+LFCxwdHWF3d9e9ViqV3P3wj+fc0+bh/yztPTZ9rVAooF6vz83BinVSSt6PfvSj2HGSCMMQw+EQxWLRfbHyn/16qBgGId4lstzF0mEtwKOjIxwdHTkr+8mTJ9jf33dlRVmAZnNzE0+ePMFkMnF59ysrK676WxR3EfcoN3XS+e0YWfD31tOaloRhiE6ng3q9jrOzM3fvWq2Ws5p9Mc3q7l8Eez+m0yk6nc6c5W5Ludr5RM3FT0nLymw2w//+9z+sr6+j3W5jbW0NzWYTtVoNlUrFWfVx4wqxTEjcxdJhq6GFYehc8xSu3/3ud+h2u9jZ2cHLly8RhiHa7TaeP3+Oly9fYjqdol6v47PPPsPLly9j86/ZChWI3nOPspbTBN0/P88T59aOOt6On/Q+e3y328UXX3yR2XWeZfz78Ic//GFuvJ/+9Kf47rvv8ObNm4Xapkbdk7jXi8Uifv7zn2N7e9tVnSuXy86Kt+IuxLIjcRdLRRAE6PV66Ha7rqxpGIbY39/H/v6+ezgXi0X0+31n2XY6HfzgBz/AmzdvXE/3w8PDW65pS5SrOc3C7fV62NjYwKtXr1KvJaqQTFp6l2/RxgXXxeXZ871ZU92i5mBfTwuos+/1Fz523k+fPnWZCXHziZtLVvjZ2dramgvkk7UulpG0vwGJu1g62N2MDIdDrK6uRrpr2UKzUqlgPB6j1WrN/VEktf3MCovpDIdD1/yD7UKTSAtgSzs26T1pIplFRN/GvjPHW1lZQb1eR6fTyRSxn3Y/ol4vFArodDpYXV2NrJgoxDKRthjVJ1wsNUEQuBagaYLKlKyHplwuo9frYX9/36XYZRF3cUOhUEC1WnX37S6pbmkEQTCXkifEsrHIglviLpaa2WyGXq+XWI70PiTtuROKELuGhWGIXq/34HOJGpeFeaJ4DIF8LNhBkI1YHmveEnbxoSBxF0sNRcAG1D0GWdy470I4mNu/7ARB8Oi/QzuWEHln+Z8KQuD9eGC/qzm8D9f+EOTlOoR4LBb5G3n8ZbIQQggh3ioSdyGEECJnSNyFEEKInCFxF0IIIXKGxF0IIYRYMlK7IL6leQghhBDiHizS4EniLoQQQuSMTOKu/FMhhBBieZDlLoQQQiwBKmIjhBBCfMBI3IUQQoicIXEXQgghcobEXQghhMgZEnchhBAiZ0jchRBCiJwhcRdCCCFyRiZxT6thK4QQQoj3B1nuQgghRM6QuAshhBA5Q+IuhBBCLBlq+SqEEELkALV8FUIIIT5gJO5CCCFEzpC4CyGEEEuAWr4KIYQQHzASdyGEECJnSNyFEEKInCFxF0IIIXKGxF0IIYRYMlTERgghhMgZKmIjhBBC5IBFOrRmEvdFcuuEEEII8W6R5S6EEELkDIm7EEIIsQSoQp0QQgjxASNxF0IIIXKGxF0IIYTIGRJ3IYQQImdI3IUQQoicIXEXQgghckYmcV+kKo4QQggh3i2y3IUQQoicIXEXQgghcobEXQghhFgy1PJVCCGEyBlq+SqEEELkgAdv+SqEEEKI5UHiLoQQQuQMibsQQgixBKjlqxBCCPEBI3EXQgghcobEXQghhMgZEnchhBAiZ0jchRBCiCVDFeqEEEKIHGAFXRXqhBBCiA+MTOK+SG6dEEIIId4tstyFEEKIJUBFbIQQQogPGIm7EEIIkTMk7kIIIUTOkLgLIYQQOUPiLoQQQuQMibsQQgiRMyTuQgghRM7IJO5pNWyFEEII8f4gy10IIYTIGRJ3IYQQImdI3IUQQoglQy1fhRBCiByglq9CCCFEzlDjGCGEEOIDRuIuhBBC5AyJuxBCCJEzJO5CCCFEzpC4CyGEEEvAItViJe5CCCHEkqE8dyGEECJnpKXFle5zYjWUEUIIIRZnkZz1u7xnIXGfTqcLT+auFArXToXZbPbWxhRCCCHeFkEQoFgsPsq5FxL33d3dR5lEFL1eDwDw5s2btzamEEII8bao1WrY3t5+lHNnEveLiwvs7e3NuQQe2iX/4x//GKPRCP/9738BAIeHhwjDEBcXFw86jhBCCPG28TUOANbX19+duE8mk0cZ2Gdvbw9nZ2c4PDx8K+MJIYQQbwtqXL/fx0cffYQgCFCv1xcylMMwdMenvS9V3E9OTnBycpJ58LtycHDw6GMIIYQQ7wJq3OrqKn7/+98vHFfGIHb/K/Z4RbwLIYQQ+UJ57kIIIUTOkLgLIYQQOUPiLoQQQuQMibsQQgiRMyTuQgghRM6QuAshhBA54/+0XtUMG1xVPwAAAABJRU5ErkJggg==;" vertex="1" parent="1">
          <mxGeometry x="270" y="170" width="343" height="343" as="geometry" />
        </mxCell>
        <mxCell id="GEdIswhEjC92dGf9nGLy-7" value="" style="endArrow=none;html=1;rounded=0;exitX=1;exitY=0;exitDx=0;exitDy=0;fillColor=#f8cecc;strokeColor=#FF3333;strokeWidth=4;entryX=1;entryY=0;entryDx=0;entryDy=0;" edge="1" parent="1" source="GEdIswhEjC92dGf9nGLy-3" target="GEdIswhEjC92dGf9nGLy-15">
          <mxGeometry width="50" height="50" relative="1" as="geometry">
            <mxPoint x="480" y="270" as="sourcePoint" />
            <mxPoint x="762.2600000000002" y="50.000000000000114" as="targetPoint" />
          </mxGeometry>
        </mxCell>
        <mxCell id="GEdIswhEjC92dGf9nGLy-3" value="" style="whiteSpace=wrap;html=1;fillColor=none;strokeWidth=3;rounded=0;strokeColor=#ff0000;" vertex="1" parent="1">
          <mxGeometry x="460" y="250.65" width="70" height="68.7" as="geometry" />
        </mxCell>
        <mxCell id="GEdIswhEjC92dGf9nGLy-6" value="" style="endArrow=none;html=1;rounded=0;exitX=0;exitY=0;exitDx=0;exitDy=0;fillColor=#f8cecc;strokeColor=#FF3333;strokeWidth=4;entryX=0;entryY=0;entryDx=0;entryDy=0;" edge="1" parent="1" source="GEdIswhEjC92dGf9nGLy-3" target="GEdIswhEjC92dGf9nGLy-15">
          <mxGeometry width="50" height="50" relative="1" as="geometry">
            <mxPoint x="400" y="80" as="sourcePoint" />
            <mxPoint x="560" y="50" as="targetPoint" />
          </mxGeometry>
        </mxCell>
        <mxCell id="GEdIswhEjC92dGf9nGLy-8" value="" style="endArrow=none;html=1;rounded=0;exitX=0;exitY=1;exitDx=0;exitDy=0;fillColor=#f8cecc;strokeColor=#FF3333;strokeWidth=4;entryX=0;entryY=1;entryDx=0;entryDy=0;opacity=60;" edge="1" parent="1" source="GEdIswhEjC92dGf9nGLy-3" target="GEdIswhEjC92dGf9nGLy-15">
          <mxGeometry width="50" height="50" relative="1" as="geometry">
            <mxPoint x="550" y="270" as="sourcePoint" />
            <mxPoint x="560" y="240" as="targetPoint" />
          </mxGeometry>
        </mxCell>
        <mxCell id="GEdIswhEjC92dGf9nGLy-9" value="" style="endArrow=none;html=1;rounded=0;exitX=1;exitY=1;exitDx=0;exitDy=0;fillColor=#f8cecc;strokeColor=#FF3333;strokeWidth=4;entryX=1;entryY=1;entryDx=0;entryDy=0;" edge="1" parent="1" source="GEdIswhEjC92dGf9nGLy-3" target="GEdIswhEjC92dGf9nGLy-15">
          <mxGeometry width="50" height="50" relative="1" as="geometry">
            <mxPoint x="560" y="280" as="sourcePoint" />
            <mxPoint x="762.2600000000002" y="239.9999999999999" as="targetPoint" />
          </mxGeometry>
        </mxCell>
        <mxCell id="GEdIswhEjC92dGf9nGLy-15" value="" style="shape=image;imageAspect=0;aspect=fixed;verticalLabelPosition=bottom;verticalAlign=top;image=data:image/png,iVBORw0KGgoAAAANSUhEUgAAAfcAAAH3CAYAAACmdRYnAAAAOXRFWHRTb2Z0d2FyZQBNYXRwbG90bGliIHZlcnNpb24zLjUuMSwgaHR0cHM6Ly9tYXRwbG90bGliLm9yZy/YYfK9AAAACXBIWXMAAAsTAAALEwEAmpwYAADgtklEQVR4nOx9R48sWXrdifTelX2v+7Xv6WFzOGzK0EAiKIqcjbbSQtBGP0B7/Qz9DAHaCSAIaCFAFCSIAkgRMxqix3T3tHn9Xpms9N6GFqVz64tbN1yacu8eIFGVmZERN25E3PP5z3FdFxYWFhYWFhZPB4n7HoCFhYWFhYXFbmHJ3cLCwsLC4onBkruFhYWFhcUTgyV3CwsLCwuLJwZL7hYWFhYWFk8MltwtLCwsLCyeGFJBX56cnLjHx8c4OjrC8+fP8c477yCVCvyJhYWFhYWFxR6wXC7x8uVLvHr1Cs1mE81mE+fn545p20CmPjw8xNHREQ4PD9X/yWQSjmPc187hOA6y2Sym0+mdHM/CwsLCwuKhYrVaYTKZYD6fAwCC6tQEkvvz589xcnKCw8NDPH/+HM+fP0cymdztaANQLBZxcnKCb775Buv1+s6Oa2FhYWFh8dCwWq2wWCwAAOl0OtCSHkju7777LnSz/F1r7gDw4sWLOzmehYWFhYXFQ8VqtQIApFIp5PN55PN5320DyT2ZTCKVSiGZTHr+v2vcxzEtLCwsLCweGlKplHoFceNW0XF3pcFbWFhYWFi86YjDuTYVzsLCwsLC4pEhjOgtuVtYWFhYWDwxWHK3sLCwsLB4YrDkbmFhYWFh8cRgyd3CwsLCwuKJwZK7hYWFhYXFI0BQRTodltwtLCwsLCyeGCy5W1hYWFhYPDFYcrewsLCwsHgEkLntYSZ6S+4WFhYWFhaPDLaIjYWFhYWFxRsGS+4WFhYWFhZPDJbcLSwsLCwsnhgsuVtYWFhYWDwxRCJ329rVwsLCwsLi8cBq7hYWFhYWFk8MltwtLCwsLCyeGCy5W1hYWFhYPDFYcrewsLCwsHhisORuYWFhYWHxxGDJ3cLCwsLC4hHAtny1sLCwsLB4g2HJ3cLCwsLC4okhErnHMQVYWFhYWFhY7B625auFhYWFhcUThm35amFhYWFh8YbBkruFhYWFhcUTgyV3CwsLCwuLRwCbCmdhYWFhYfEGw5K7hYWFhYXFE4MldwsLCwsLi0eAsAh5CUvuFhYWFhYWTwyW3C0sLCwsLJ4YLLlbWFhYWFg8MVhyt7CwsLCweGKw5G5hYWFhYfHIYGvLW1hYWFhYPDHY2vIWFhYWFhZPADuvUBcnt87CwsLCwsLifmE1dwsLCwsLiycGS+4WFhYWFhaPALZCnYWFhYWFxRsMS+4WFhYWFhZPDJbcLSwsLCwsnhgsuVtYWFhYWDwxWHK3sLCwsLB4YrDkbmFhYWFh8cQQidzjVMWxsLCwsLCwuF9Yzd3CwsLCwuKJwZK7hYWFhYXFE4MldwsLCwsLi0cG2/LVwsLCwsLiicG2fLWwsLCwsHgC2HnLVwsLCwsLC4vHA0vuFhYWFhYWTwyW3C0sLCwsLB4BbMtXCwsLCwuLNxiW3C0sLCwsLJ4YLLlbWFhYWFg8MVhyt7CwsLCweGKw5G5hYWFhYfHIYCvUWVhYWFhYPAFIQrcV6iwsLCwsLN4wRCL3OLl1FhYWFhYWFvcLq7lbWFhYWFg8AtgiNhYWFhYWFm8wLLlbWFhYWFg8MVhyt7CwsLCweGKw5G5hYWFhYfHEYMndwsLCwsLiicGSu4WFhYWFxRODJXcLCwsLC4snhkjkHlbD1sLCwsLCwuLhwGruFhYWFhYWTwyW3C0sLCwsLJ4YLLlbWFhYWFg8MtiWrxYWFhYWFk8AtuWrhYWFhYXFGwxL7hYWFhYWFk8MltwtLCwsLCweAWzLVwsLCwsLizcYltwtLCwsLCyeGCy5W1hYWFhYPDFYcrewsLCwsHhisORuYWFhYWHxyGCL2FhYWFhYWDwx2CI2FhYWFhYWTwBxOrRGIvc4uXUWFhYWFhYW9wuruVtYWFhYWDwxWHK3sLCwsLB4BLAV6iwsLCwsLN5gWHK3sLCwsLB4YrDkbmFhYWFh8cRgyd3CwsLCwuKJwZK7hYWFhYXFE4MldwsLCwsLiyeGSOQepyqOhYWFhYWFxf3Cau4WFhYWFhZPDJbcLSwsLCwsnhgsuVtYWFhYWDwyhLnLU3c0DgsLCwE+mLKc5F3HtriuG1jOUn7vOM69xN64rotEwuogFhY6wkrRWnK3sHhAcF0Xq9Uq1m+SySTW67WRfINI2Y/cE4kEEokElsslHMfxvN8VgsYMAKlUCq7r2mBeCwuBOM+DJXcLi3uATqoksuVyicvLy1j7evbsGUajEQaDgfE4URcEkn25XEapVFLjKBQKqNVquLy83IhsdSuF4zh49uwZ+v0+xuOx8TcnJydIp9Oxj2VhYXENS+4WFg8ArutiPB6j1+vh8vIyVvenXq+H1Wpl1PgTiQTW63WssTiOg3w+j2azCQBoNBqoVqtoNpsect9EcOCYTk9PMRgM0G63jdt3u10cHh7i9PQ01tgtLCyuYcndwuKOoGuw0iw9nU7R6/XQ7XbR6/V2dsxNyL1UKmG1WqFQKODq6gqZTAbz+RzdbvcWuQPRTIW6//67775Dq9UyWhuITCaDo6MjJJPJWOO3sHiqiCP0W3K3sLgnLJdLLBYLrFYr9Pt9dLtddDodtNttX+I0acvL5VL5xfVtHccJJHfT/gqFAsrlMqrVKr777ju4rot2u412u20kd9M4dcgxrNdrXFxcqDGv12tj0FypVMJoNEKhUAAA4zlaWFiYYcndwuKOoEvdv/jFL/Dll1/i6uoKn376KWazGTqdjjKHR9GI1+s1/tt/+294//338cEHH9w63ibk/r/+1//Cr3/9awDAH/7hH2I0GuEXv/gF/vRP/1QF2JnOK2i8HMPl5SX+7u/+DgDwu7/7u3jrrbeM5E4B4Kc//SmePXuGw8NDnJyc4P333w+aDgsLi/8PS+4WFvcE13WxXq+xWq3w05/+FMvlEvP5HPP5XH0fBcvlEoPBAK1Wy/O5JF2/yHgTuQ8GA6zXa7z77ruYTqfo9/uYz+dot9tIJBLGNL4oBM9MgHfeeQfffPMN+v0+crncrbEx/S2Xy6Farap4grjuBQuLNxmW3C0s7hDr9VqRd7FYRKPRQLPZxNXVFZbLped7E0wBbev1WvnsTSRuImN+bjKtT6dTOI6DXC6H8XiM8XiM9XqNXq/nIXETuevfyWNTyMhms8hkMphOp8qPr48tn88jnU6r31AwmM1myGQysXyPFhZvIiy5WzwpbJKqFYWYoh7bRH5yP/P5HK1WC+v1Gqenp6hUKvjVr36l9rFarZRZPipWqxXG4/Gt3yUSCTiOEztvfjweY7Va4erqCsA12buue8sysCnW6zXK5TJms5k6hkQqlUImkwHgvZ60HjCC/qHlwFuBw+IuYSvUWbxR2HaB9dNGt/mtaT/NZhNffvmliox3HAdnZ2e4uLgIND+bBI71eo3hcIjRaGQcD/cXR0hxXVel5PF9UCxAWCU5/oaWBo6Hv+HYUqkUjo6OjAVscrkcTk5OPFH3DwlhFf8sLLaFX0CrCZbcLZ4EttXidN+z6f0uxpBKpVCtVnF+fq6i5fnbbDaLQqGAfr8fehy/Ijj6OQE3KXdxI83lPmkWN/nWw4L25LaS3PU0vSjBf3ddBjdOup8ldouHhEjkbm9ai4cKksUuF3ySIM3Z1DDX67UiGBMkaemmcJZbBa7ztxlIJ7XYdDqNfD6PwWDgez4MaNM1d9O4ohChKUpd34f8P8hl4Sc8yDFwrPytnFe5Px5Ld5nEdTGEgTn0UujYFPqY7bppcZ+wmrvFo4QkDPqIoyCM8BzHQSaTQSaTUWbuVCqFfD6P4XCIfD6PVMr82IxGI6TTaWQyGQyHQ88+y+UyptMpZrMZ5vM5hsMhBoMBJpMJgGuSIdFIkiRBrFYrJBIJZLPZW8edTCZIp9NIpVLq/KTWPp1OPcQliTmdTiOZTKrtGTzH9wxqWywWyOVyamymgjwmAUNq/txusVjAdV2k02kkEgksFgv1u2QyiVQqpeaDx0smk3Bd1zOvu0C5XFYWg233zetjihcALNlbbA9bxMbiyUOSdLPZVOZt03ZEVO2+0Wig0Wjg4uICruuiUqmgUCjg8vISp6enavHW0Wq1UC6XkU6ncXFxgbfffhuLxQLn5+eqLvt0OkWn08H5+Tny+TxqtRomkwlSqRSy2SxyuZxx/wwyKxaLAK5J2HVdFItFzGYz5HI5FItFLJdLD8nP53MsFgujdcN1XaRSKXXMRCKhgudI/KVSCcvlEqvVCvV63XdxCfI3y+MuFgtFohQWJpMJHMdRpJ/NZtVvKMys12uMRqNQ7TqO2d5xHFQqFSVgXFxc4P3330e/3984eLBSqaj7hcewsLgPWHK3eLTgwtnv9zGbzW59v2mA02w2Q6/XQ6fTAXCtGY/HY3Q6HSyXS6P2DADtdhvD4RDdbhfdbhfPnz9XZVuJRCKBcrmMfr+Pq6srzOdzRfTz+dxDzjwHIp1Oo1AoYDgcIpVKIZFIoFAo4PDwENlsVmnZuqk8qMQrcK0VZzIZZLNZTze4fD6PYrHoESSk5u6XZaBDnsNqtUIul0O/30c6nVZCBMfqOA5ms5lqhDMcDvG7v/u7WK/XmM1mxussjyHJPcq1/81vfoOjoyMlaL169QrD4dC3oU3Y+a7Xa6zXa6RSKXVeluAt7gOW3C0ePfr9vjJvE1HLpJoWXpK6NHFfXFyo70zkYdpvt9vFZDLx1GTP5/M4PDxEr9fDxcWF0hLff/99I7lLZLNZ5PN5jMdjRealUgmlUkltI4PUeMywKHbHcZBMJpHL5ZRZPJVKoVgsolAowHEcTCYTlEqlrcmd72XJXP7P3y8WC7TbbbRaLbRaLfzwhz/EZDJR8xN0jKjkzm06nQ5WqxWOj4+RyWTwi1/84pYAYdq33/5ZqyCfz6NcLntcHhYWdwlL7haPHldXV4H+0jiFXcJ+5/db/TPXdfHdd98BgDIz00Q+n8/x+vVrpenTD59IJJTZ3QSa3mu1GoDbpE2f72w2UxokAEUwJnO1/DydTiOdTuPg4ACnp6eYTCaoVqsoFov48Y9/fEuA0s83aN8Efe7Pnj3DfD5XY+W50BoxmUyUxeTLL7/Ey5cvkc/nUa1WjXOziebO6/vq1SslNORyuUjCoN+9MZlMPBkQxWIR2WzWErzFncOSu8Wjx8XFBQaDQWD3MBnJrn+mf87v/DReP78vt9e/X6/X+OlPf4r3338f+Xwe3W4Xl5eXmEwmSlNvtVqqtaopfqBcLquqbSTdfD5/izTW67XS5NfrdaCZn5DflUolHB0d4dmzZ2i326hUKjg8PMRbb72Fr776ytefHWYRYaT7crn0BPjpUeqJREJZESgI/PznP0c2m0W9Xse7775rPL4pvS7IYiG3+frrr1Xv+s8++8zj5w/qqmfa/5dffgkA+LM/+zMAQK1WQ61WUxYQC4u7giV3i0cN13XR6/XQ6/VCu4bphK0v2lHzwE2Lvd9+l8slRqMROp0O8vk8crkcJpMJcrkcstksVqsV5vM5arWaIpV8Pq/83slkEovFAoVCAYVCAZlMBrlcDqVSSVkEJDnzHOfzuTpOLpfDbDbDYrFQZnDTObiu68kGKBQKKJVKKJfLKBaLKBaL6nhhGQeFQkGROMc1n8/hOI4ieaYCSlN7IpHwuAVc11U++GQy6YlfMF2TTci91+up2gLdbtdD7uPxWNW512Ha/2w2QzqdRrfbRavVwrvvvotGowHgpqwvAyYt2VvsE5bcLR49ut0u2u22CjLTNcH7bDgyHA7RarWQTCZxdnamAsg++ugj5HI5Veb1xYsXmEwmGAwGKoiNEfKj0UiZ5LPZLGq1mrJSMEVOR6fTUe1SGfHOfU4mk1stWFmghlHe4/EY1WoVpVJJEVu5XI6kuadSKRwfH+Pq6kpFwLNe/nq9RjabVeS+Wq1uBdQxGC2fz6sYg9evX2M8HgdGsbuu66knEBUUehgnIVMdz87OkM1mFUGHgZp6t9tVZYU/++wzOI6D0WiERCLhm21hYbFLRCL3h1bD2cICuLkvLy8v0Wq1kMlkVA9wBmlJ+Gnq25B/lH1QE6Qmu16v8fXXX6NUKqFQKCCXy+G7775TxLZerxWhrtdrlabG861UKqoPPLV4asCr1UrlhDPqP5/PK+Kj9ii1xm63i+FwiMPDQ9RqNVQqFdRqNeXjLhQKSCaTqNfrxvMzBZnN53OUy2VlWmfNAKbb6dq6nL/VaoVGo6E+ZzDjcrnE+fl56PWIez3n87mqk/Ddd98hk8kgmUyqiPnFYuFr7dDBWgbr9Rrn5+cqFiTOGhq3MqKFhQlWc7d4tKB5mIFXjFImeWyS475PUDvmWBaLBcbjsSJvU3EcatMk5l6vh48++khpvdQ4GTQnNV++2u02er0eFouFJ4ecf+nPl4VlZDEfjstP4wyKlKcQIovS0K/Oc5aCGEveMjJ+Npup7AC6FEwxCTT/UziKAo5bL/BDMieWyyUmk0mke4iukMlkgul0ipcvX+Jv/uZv0Gg0kM/nPZkNfrCEbrELWHK3ePRYLpfqRWKXpWNNmpCsm65/ty/oJEjS8zOtEwyIW61WmE6nmE6nnvPjX5IlfdnSzK2Tnp4/T0sB9wPcBLfxGFFjEuQccwz8K1/yMx2r1QqLxUIJB9yWaXSmudWFliBwe9M56cKB3zFNmE6nqmJirVZDIpFAs9lEMplU7gfAErjF/mHJ3eLBYVMTJnuOE6Ya35v4ZP0sAFGL5EgBQ//NJi6Bq6srFZCnHyeZTKLf72M6narPj4+PUSqVVIEdP0L1S/szCUIm6BH5+rWR+zLtk64H03fr9VrFGQQF9EWtUBeXXE0pdibhkBakFy9e4Ic//KGq6qfPedgY9fvECgMWOsLuIUvuFg8GjKput9tKM42yUDPQy6/mO3CzOJLc4xKWHB8tA2G/l5Hhpv2ZENR8hVXUgorFUGMEcKsFLAAVlc8ANwAqd75Wq2EwGCCVSqFUKqHT6agAuLBceb/xMK9/OBxiOp1isVhgOp16itLIWvaMFWB0/2w2U412aJI3uQdIhhxrFNC6MRqNPMKQfm4sHtTtdj1ZCp1OB8ViUY0nkUhgPB6r2ID33nsP9XpdvXjtGDcQlJ4I3JQc9svtt3jzECcew5K7xYPCarVCt9uNFMDEBZ1+zKBFXZJ7HMFBLsA0FTM9LSgXnucSVzP3295xHEWSjGg3bUOCmc1mSCQSOD4+Vn5r6b8nubO++2w2Q6lUwsXFBfL5PACoyPr5fG4UnMIsFzRn8/gMNpvNZphMJipuQAeL/dD37TgOlsulCgpkVoQ+b4lEAvl8HplMJpKmS7cIi+noYydYCbDX66FYLKqo+uPjY9V4B7i2qGQyGZTLZRXgWS6XUS6XUSqVMJlMVFpfGFhqmCWFCavBW0SFJXeLB4X1eo1+v4/5fB6ZGElGpm5qEjSNhvln5/O5ivYmdA08DHpxljjQc9fl/ljbXgoy8lyZ485Oa/TX0x9fKBQ86VjFYhGj0Qiz2QyDwQDj8Vg1oGHVPAbVjUaj0Px2eQ4AlPZN7ZjvGVFugqzkx1Q6kjdr4JvmjPnosntdEGjql64cE5hzD0CV6B2Px6jX6+o+LRQK6PV6ipA7nQ4KhYIq4QtA1ayn6d4PrFQou8v5uVIsLPxgyd3iXmDS+qgddzqdW7nYQfvgQhi0oMugsLD+72dnZzg7O8Nbb72ljqNHTOuEKiHbmoZBptLJgi/6ea7Xa6TTaVSrVZyenmI4HHqixv2C0s7OzlRhlVwup7rW8bfMgb+6usL/+B//Q5Fjv99Hs9nE4eEhnj17hpOTE/z0pz+NLbAwyJHWBApOso+9PmZq0tTe5/M5kskkCoUCarWar+CXTCZRLBY9NfCDwPvn6urq1ndyXNlsFpVKBcC1INloNHBycgLHcfDrX/8a0+kUv/M7v4NqtYpOp4N+v6+6w1UqFeTzeVUieTQaGdPj+D8FFGYvWGK3kIhzH1hyt7gX+N2kq9UKzWYztEe7JFlq2EE3fhxyr1ar+Pjjj5FOp5UpnoTCxdakxTNViyZkfaxMA5OpYATT1xjZro+d5mjHua6FnslkAruO1Wo1PHv2TI2ZmvlgMEAmk1HjdxwH77//Pn784x+jVqvhP/2n/4ROp6M09WQyiVevXuEv//Iv8fHHH3usH/LYfvMpzfKz2czjbpG/9fO5s3wuK/OZKsURUgCI4nfnmH/84x8jl8vh008/Nc5lq9XC+fk5/v2///fIZDLo9XqqzOzv/d7vAbjpe1+tVpUwdnx8DNd1cXl5qaoojkYjjwVEN/9ns1lPuqI+VkvyFlFhyd3iwYCLYq/Xw2AwCNQS5WLHlKMo2hqJKcwsClzndQ8GAxXFnU6nVfCXfiwSvilvWv7vFw2uF6oJgu7L160gNL1LIYHCBMdPcqeQICvCZbNZlEoltFotjEYjVcFtOBzeIpco5M70PQo+JkgLBoldN8XT1y7Lt8r5ptuBmnucgjbFYlFp5/o5stZ9pVJRsQ/SZaMjlUrh5OQEq9UK/X5fZSno5C7nLJlMolQqKYHNkrnFtrDkbvGgQJ97r9cL1bCB68Xv+fPnkUt66j73IOTzeZVnTc3aRBbcZ5ClAbghd9mxjZDlZP3y8iWChBn2SZfHpVbLQDqOtVAoqOj/8XisTMK5XE6VrHUcB7lczjcQLIhESe7SlK6fn665UwiggEIBhMKKtFgwrz+RSCjXA/3eEhTITPcUI+LlfEmwrj+/S6VSqFQqtwQsCmfZbBYvXrxAt9vFeDxWvQX6/b4yy+tzwEqF3Jc1xVtsC0vuFg8KrLXOiHk/SM3mD/7gD1AoFCIRdhTQdEw/t1x0AS+xkpwYbR0lf5mQJD8ajZRJ3s8kKz8vlUrI5/OeNqwkheFwqKKt5TzRhcGqcMBNRPxoNEKz2UQul1OV1ShoTadTjEYjNBoNoyk9kUio6numuaQWbgq4k3PKOWF0Ps3UUnMH4ImGTyQSqNfrKkVtNpspSw6tLcC137xQKKDT6Rivi182gASPWSgU8O6776Lb7fqmBl5eXioyHwwGityHw6HH555MJpHJZFRQqN+1t7CIC0vuFg8G1H6vrq7Q6XRu+a71bYHrxb1UKqFare6sQQw7qk2nU2QyGXUs6XNn/XZZDQ+4bUaVPmpTMRMT9OIlfD+dTtFqtfDRRx8pc7mp6lmpVLqlEQM3WmepVFJWhNlsprRaRmk7joPJZIJEIoHBYKC0/bCocjkGHlu3kkiXiCkokdp4LpdT7oJcLqe0dxK9rHy3WCzQ7XaRy+VwenqK5XKp0s94DG7LGgCmcfu5HPy21/PP5Xw7joPvvvsOnU7HQ+5+mvvr16/x27/923j+/Dn+6I/+SAl6sl2vhYVEmOBnyd3iQYGEyWCqoBuYiykD1IDrlpvZbHbjBVH3qctFXx5Lbhdmjg9C1JKuwE3AGH3D0swtSdVvn/I8uK1pPPL30r+vn6ckcLnfIOjkzt/Iz+hbl9dBBiPKsrWsOcD7hnOUy+WM2nhYoF3YOeh+chMYNyKDAplayAwAfe7ZmY8CVlBpXgsLwBaxsXhEMOV2xzFLuq6L0WjkKSwSF1H8/PJ4cnvTeHWt1fRARj0eq5U1Go1bqXBhFo6gcwjbLiglK8rYdS0+ShxF3PHqLgtTLrzpOKb4hjgwuRqY8SGLJcl4CzkHlrwt4iDOehiJ3O0NaHEXoKYWhQT8CDWKdho2hiD4jc2kiUXZn+6LDhuXLixsC53g9P3qwosJugZvgrQyhBGbjEUw/S7q2P2guz3iIOr2pmMMBgMVIyGFHd19EdV9Y2ERBKu5W+wVs9kMw+FQBWPJzmY6KbP0LCO4gwLqpH+dPnLum8FXUUhHB10CrH/OSG9ZDz2Kb1+a9WUJUdd1la+cJv50Oq1Myvwd0+qCAr1MwW1xwCh4/t/v95HP59W+eC0kwTJXXYKm8PF4HCoIMKqdWiznR46JQXT0s/M9fe76PBQKBbW941yXhs1ms74WHGm+B27a0gJQ8QUMPtTB2vEEq+Gxsh/b+Lqui+FwiH6/j8FggF6vp9xMQfckCwrRLB8Gx3HUs8UKhnq2hMWbCUvuFnsF/aIAFPl2u11F7iSM2WymvsvlchgMBgBummdIyEIomUwGl5eXGI/HqojMfD43+oc5Hv7NZDKYzWaehZbkzkpqcmyykI3u5w47d8KUo85SscBNdbsgPz5LubquG8n8HARGa5OwmCPP4/sVjZEEx8pwfj3P5Wckd7kPndyZ9iZ70pOoTfEE3Jb3iXRXSJ+8HDt990z54z3Da5xKpYzkzvr4AFQ+/Xq9xmg0UqmG1M6ZhTAajTxFmeT9k0wmkc/nVQT9crlEs9lUdQ9MApwuFMuiPbsKKrV4mIgjtFlyt9g5pGZCjQq4Xhj7/T5evXqltl0sFmi1Wri4uEC321VaFzVEGcHNhZQNOFzXRbFYxK9+9SuUSiWUSiXU63VMp1PfoDLuI5PJoFQqYTAYeIh0tVopMueLZVOjNpzhsf0CuiSRM5f84OBAzZtMb2Pkt9SIW62W2hfnZlOQTHmNCoWCyh133etOdLqA4jiOIiO+p8YfZkWQRWg4T5LcSf7UvHn/yCI/UQP3aP1gEJuO2WyGo6MjVVqY15kpkCcnJ7d+M5lMMBwOkUgkcHp6ikQigclkgsFggMPDQ8znc0Xk1NyZAmcKgMxkMjg5OcF4PAZw/Ty8evUKpVIpUqS84zh49913PcKr9edbAJbcLXYIk0+Unw8GA7RaLbTbbdXykguwJPdOp4OLiwtVz7tSqaBerwOA0mRk+9DhcKii4xOJhDLhyihrqc3wcwoauqZDLY6dyyaTidKkwxZN6ScNakuaSqVUO1Vq7iR1U0vTfr+vNGyO4fDwEPl8XmnwcXzBJr89zbrValWZj5fLJYrFosc6QJNvp9NRpDyfz/Htt9+GjmO1WnnqBtACo1sH2Ktepr7JsZqOIy0yvF5sWKNfY0nk3377Ld5//31UKhV88cUXaj5zuZzxXAaDAbrdrsftslwu0W638d5776FQKGA0GuF//+//jXa7rZrF6PegSUDk8ShU6pq6KZiR9zdTM4MqF1q8WbDkbrFT0Hd+fn6OwWCAbDaL4+NjtFotfPXVV7i6ulJaCnCjubfbbZULTK26VCqplpnSREntj8VOZrOZIj8ujJLc9fFxsTSZMGmWp/bOAiymwC1JKLq5v1arod/vK+2RCy9rxB8eHioTfSqVUmNm3rYc72KxQKfTwXw+x9HRERqNhiK8OJ3qTHNApNNpvP/++8jn82rMf/Znf4Z2u+3p/U4t/Z133sGvfvUrJZAE+dp5PDZRyWQyyo2Sz+dxeHioKhJy/mRZXO7DtH+dvPRWwaZr7Lqusqr8+te/xmKxQL1eR7/fV93qRqMR/vZv/xbAdexBs9kEAFUEyHEc/N3f/Z0i936/j5/97GeYTqfo9XrodrsYDAbG7nd+c0SBpNPpRIoToUlfD8SzsAAsuVvsEHIB7vf7HvNkt9tFu91Gu932+LmXy6Uyx49GIyyXS0XstVoN9XpdtdmUYCBaMplU2hm1sdlsZjSJA+ZSqbo/lgF0NNHK7UNzS0WJVFMZWJZUZRAdhYfpdKryu/WiOPT7k0hM49YRJR5AfpdMJlGr1dQYE4kEDg4OFNFxXyTGo6MjvHr1Slk0oggZ1Mh53GQyiWw2q9rOUmAK87GbtHYKTxyHn3VCIpFIoNPpKEFRL5PLoj3NZhMvX74EAHz88cfKF8+4EIJaOru/TafTwNgJvabAYrHwzLUcs34dOXdBjXQs0b/ZsORusTe8ePEC6/UazWYTV1dXatGkFgRAmeUZIcyuXtVqFc+ePcMHH3yAdrt9q4NaLpdT/s10Oq06j7HxSRi5B0UrM5hOr/MuYUp14jFZ2U2PBOd3JBMdk8lE9WuX6HQ6KJfLSoB5/fo1nj17FuiXDUpbC4IMaANuAuzk+AmOKZlMYjAYRNI2Ob8sMsPxZ7NZrFYrRVqyxKw+PhNY/pYuhSCzN8FtGOPALAmdWOVnsrqcLri5rqvIXW98ZLKWUMjjflgCOArK5bInfkM/T0vsFpbcLXYCueAlk0mcnp6i0+ng6uoK3377Lf77f//vnprtxHw+R6vVUlpIoVBAvV5HtVpFsVhEMplEo9HwHIvmd5LEeDz2+OCDitgkk8lAbYopeEHEboLuJ89ms5jP57fM1bQ46OROjX0+nxsXZpaMnc/nSnDgXJngt7hHPSeSUalU8tTWZ136RCKhuqSRiIM6+TFljBHq2WwW+XxepdrJyPQ48QPATSpb1DRFXmNmRTCGg1YffY6kz3w4HBoFMwAq2JNm/m63q2IMut2ucfyu62I6nQK4thTw3qQPXe4buL5P+GyEpXlan/ubjUjkHmeRs3gzoS80xWIRrusq82S5XMarV688mjZwU3aTC3MikcAnn3yCxWKBcrms9iMXKabHzedzpWVms1lMp1OV+sQ2pTqouQeRgJ8Z3vQc6KZjngOjvvle7tNPuEgmk2r8Omh2Xq1WOD09VfvwS4WL8syGnRsFCFlQxnEcRYS8Nuv1GpeXl8Z9SjcEAM97aq0mTTMKMbmutxOfKZbCdA/I659IJBS58rx0zVy6HFjrwDQ+uifYYY/vea/rYMc8xl7QchMEknsUWGJ/s2E1d4udQQ8qq1QqaLVaWCwWSKVSqsAHtW1ZxY01uNPpNF68eIFer6faj+oLqamnugy4Y761iUSpuZt8mn4R2H7veVx+57qux2JAstaD+Pw0P56TDFCT57lcLlV3NqbwyQI528BPC9QtEiTG+XyObDarUvkkKernQ/M750L2mg/KPAgbrxwPYBZQgurhs5Y7a77T+hMUFOhXG14/Bk398j7U7zXOI+8H/u+X0QBc31NMx0un0zg6OjJu5zcueT4WTxuW3C1iIQ6RUKubz+f4P//n/yifqtyPH4E+e/ZMbRtFg9P3EVdzjXKMoG02JVi5T/qj9XExQns4HOLbb7/Fn/7pn/ruIw420e71zIAox/cjlThNc8IQFlzI79npb7lcqnRE/t5P6DLtJ2w77lOfM/m9FFDkNkHHWK/X+Oqrr+C6Lt5++21PjjthLa0WgCV3ixgw+QCDYKrmRgQRAs2UpsXfbyGTwoLfMfXt/UzBYcFoQdr+pmBKXCaT8VSsk6hUKjg6OvKM0XSu+9TKdDO6/t4kaJmi1MMQpmXGFTIJvYjQJvNmOkf9O797K8j6E7Q/ue2HH36I169fq20pRNNt4xdQaELUMrcWDw9h19iSu0Us0I8oc9X9wO38fMimBZwBRqwClslkVEER3TTKwCj54ufSpyoFEQaEAf6+7yDorUi3JfgwotA13VwupzIPkskk+v2+JxiNc02XwK7Bevg0s8uXiVQYkyCj+hmP4Ees0mxN1wM/3ySvX4LBd7xP+Jf3At0FPFZQNgJr1DuOc2tcDD4k9N4Bpv2ZBALOgfyMdeqZWTAajZRfn+dmgknALpVKxu8sHj7Crpkld4tYkIU2gOAbbLlcqkIeuoatg5+vViuMRiNcXl4ikUigXC6jXq/fWhQZ6SzrwMv//RZL+kBpGTCNx2+MjuOoxd7PqhBlkYyiVenzJX3dFxcXKoqdzV3YKIeLfCaT2ZrcTVYMx3EUuUuCzuVyal7lb+hvl2mCMgWO+zSdPwU2kjvz2Dc1O3N+ZNDlarVSwqCse89jcZwMDpT7opvJRO48dxmUR4HIb2y6gEPLgnQdrNdrXFxcKGE3nU6j1+t5XFhR5odC2rbliy3uFnHufUvuFpHBxWU6neLi4kJ97rc4sCwnA9yiklq/31epQ1w0JaHKCHTWftdffhHTq9XKQ+5xGm3ITm76mIPmQTehy23jLKz9fh9ff/01/viP/xjAjY/+6uoKlUoF2WzW07xl26YyfiZ2kmA6nUa73cbV1RU+/PBD9Ho9jEYjT218WRKYAWzMcacJ2XQN+v2+2j6fzwO4vnZy35tgOp2i0WggkUhgNpvh9PQUg8EAo9FIHQeAqinAcU8mE0+UOr/nPWHy11PA4n2ayWR86y9INxQFOWmBMrmjWADq/Pzcs9+w+9FxHFUZ0OLpwpK7RSwwfYfFNsJ8551Ox7dbmAnr9RqDwcCjUbASGLUSacKXEcckdqbVmcy+jJbXNfewgCw979i0TdTzCzuen7+5VCrh4OBANZJZrVYolUrq3IGbgix0abDq3S60M33MTEN0XRfNZlNp1YywZ9ojX5zzZDKpyJCd/HRQQJPf0zIjEcdPTjM0z6NSqXg6EHIuWcJYWidM3Qknk8kty4TrXmdMsMAQIbMFgsbH6ypN6373ynK5RK/XQ7vdjjwPjnPdRS6fz996RiyeFiy5W0QGNc/5fG4syiHBoiyz2Qy5XA6np6dot9u+/kB5jNFopJrB0AcftAjNZjOPD5XmVqmxyyAqau+SsP00eOasBx0/biCWn7Yqt5HvqaHTpN1utz09z9frNVqtlscSQZKQfdC31eR1cG7kcWVJVboLJMmxCI8pn1yC2msikVCCJM9JH0MUSM2YaZiO43ia2ZDE5TyxuFKxWESxWPSUJD44OFD7JPEzFiKfz3ta95o0dr0+As9PN//7gamR8ln0a5QE3K5bwP1bgn88iHOtLLlbxAJ7srfbbQDBueBcmOr1OtLpNP7+7/9e+epNIOkxb1pGApsKxUhIHzx9/KYHgQF1puAsPVqeGvsuiJ37190T0pfrF8lPLXY6nWI0GmE4HOLk5ATlchmLxUL53sfjMZ4/fw7gWqvsdrvI5/PI5/MoFou+JV23AcnbRLy1Wg3ATTMemprH47Fq6cvvAO9cHh4eqv1eXl7Cda/bz7L+/SbnQZcPsxFKpRImk4mqmMcOg9lsVgWaAUA+n1dBi51OR/3+8PBQ1RuQlQI5vna7bbRKmMZP338cMKYlLH6BSKVSKBQKxu8syT89WHK3iAX6H8/OzgCYU52klmx67wcSqwwQklqun1ai++CDypCmUqnQCnVyW5P2b3qvBzKZtFIKCrppXo7fVH5Wasg0qwLX7orpdIrj42OlxU8mE0XkbMpCTbTf7yOfz3tM9WGuhtB0m/+v6a5WK0XG8jueJy0mPA+5rekYUgiUwg+ryW0KFlRynOtKe8vlEsfHxygWi6quv37eUuvOZrOemAv63CV4/eIENUqNPcy6RTCmZTabhUbhl0ol1Ov1jYMRLR4fLLm/4fDz7/pty0CiVqtl/I2uYUv4leEEoBZXdpEDbvz7evMSPy2D2qP0uZuikGmWp6apd+fS30uYIuX9SDBsPk1zl06nQxf3+XyuzO2FQsEjENC0TJDIpIZNhC30poA6HbVaDYlEAhcXF77b+10r/o1KOLy2pmNE2Qfngb0HaKZmHEY6nUaxWFTCH6083HaxWKj/eR+YfOm0CgVFx+vnxXvRdV10u13jc6mf43K5VHXxg9wTtHbIfZnmxuJpwZL7G4xNpHhql2yHGaUAB8mPZTv98su5nd6lKw708q06TOTO/GOayHeh3WyyWJIwTIu5JEG6HzhuGZxGEuL/9NUzSj0OmZqgCz65XM6TrgbA19ISB6Yx6qlwm84xf5fNZtW4Se7SxUA/ujxfvX6AXkXRT+P3E0jpa+d3snmQHuuhC5GsYW/ahvvkNdcRNXPFkv7jhSV3i1ig5k6zqTTvRtH8JXlLjEYjtfCyPzt/wyYcfC9hOnaQOZkLt4wUlv5Odm2T+zJp6/o+40LfXxwSlI1x9PNmihdBzZ0R60ElVqMIN7KWPY9NDZZEH9WsLGMQopCIqS5/mOau3x8cG9sCL5dLNT+MSaAA47quuhccx/FEy/N4ppgM7i8KNvG1y98Oh0NjB0NG7bM3gz5ui8ePUJfZHY3D4gHCz08c5Xcm6PuSC6XePMMPJs0+aFw66YeZyP1auUYJSNK3DyIUjikK+QDXwg1wO7rZhHq9jsVigdFopHztPIZJSKA2z2Y8QYhyD2QyGRweHsJ1XVxcXKixb+sPjwtdsCF04cM0j6wPkMvljEQcJrAGfR4maMj/k8kkCoWCamMsr59eEEgeV1pg/O5nCih6XExUTT6q0G5xd4jjRrXk/gaDD25U7UGW66RGaAqoI1arlfJzBi1Em45dR9SFWH9A5HsZ8CVLq+pBbbo5NWhs8himcbPQC10FJoLQ51mOSxeqpNtBf+n7lU1L9Fa3JB8KDTw+YyFms5mnQFEUH70OnYT85ijq/uR2+pzxnBjolslk0Gg0fP3ipuNF8fHr2/C4flUNF4sF0um0Eo6YWx8m1HLudEsT/7I8LdMm+ZfZAbKPgd/x9Nx+i8eDSORuJbenjai+babB0R8Zlv+tk3uYpuH3nR+iSrFxyJ2EKclTkjx/H6UuvTTZ6sKTPiZG8euE4Kd1kigonMn5o/Ala+5z/zpkzXNZDVCfK/lbtu5l8SBZm12fy6gwmba5vyhWEjleneDktiR35rbTFL+NHz/qOZlqy8uaC/T589mK4qrRLT3ynmN52UKhoF58n8/nPQKFHxg3QDeQnkFi8XBhNfc3FHIxG4/HKvo9CKweN5vNUK1WFbnri69ODlz4Nw2uukvoiyx9szKtiYQZBLnQUjuT2pbux2daVhSB5erqSkW/c4ySDLkgS23br474bDZTv49qVqcFp1wuqwJCpiDGKESpWwXk78IIN0iz5n1p6kcvj315eanmUOa2bwM/QYRxDzoYoU8BUl4HvzkwxT2wKiHvK/Z7Pzo6Qq1WQ6PRwMnJCRqNBvL5PJLJJC4uLozmf6JQKGA8HuPq6grFYhEHBwfIZDLWXH9PiDPnltzfMJiCz4bDIc7PzyP5wyeTCebzOWq12q1gom+++QaFQgHHx8ceH7es6sVFKIwco2rwQWQYdD5+GiHJPZ1OK9OlTCOT2nAYZA60iTgl0eRyOU+VPROWyyVmsxkODg48c88AOhnfIDV/mtfn8zkmk4lHg6S5OJFIGEnFhMVigclkgsFggLOzM3Q6HU8ddGJTk64pOCzK9rrGrlebcxzHEyHP4LxcLod8Ph9qCo8yFhMoyNEKJO8Lac3idQm7DnShpFIplEoljEYjZZ4vFAoege74+BiHh4eo1Wo4ODhQNREWiwVarRbOzs4CrSKtVku5MGTtfYuHD0vubzD4UE+nU3Q6nUhSIU2xpVLpFrkfHh4il8uhVCqpz9frtSIDks0+WpHuCrJWODV4qbHLVrN+4LlPp1PP9kGkxYVfBsXxf84h4C1TqoML/GQyUWVTZ7OZipju9XpqGz2vX3bT08eoW2IoZMg67CarDLMipEAktUSesw59DPJc/QjYROx69zm5HY9Pa8ZyuYxkbg47vsl6wTREBs5Ji448Z5q+pQUhiNwzmQyq1arHiqOTe6PRwMHBAWq1Gmq1GrLZLGazGYbDIbrd7q2ceh2saicLEunzaPEwYcn9DYLfQ8xSpUC4tstFyETuH3zwwa0gO5LBcDhUmlJQABMXLp0sTAtvUGe3OH5BvS46F0qSO7fR+8j7nYOOoLx7HpvnTHKSJK8X3GH6lumcmecPXGvOJC3WIWfDEDk/rHAW1W3CWvds1MPx6NH61EBlPX/eQ7zWfkFm8n+/TAuTxs4YD1msRubmy30kk0nVqpZBbbogE9X37wcKU5lMRlUO1MfPvxSYSO5BGrXrXqfplctlda4kdyKVSqFer6PRaKBSqagSuqxH3+l00O12A697uVz2pD9aPB5Ycn+D4Efcw+HQ08I1CFw46/W6h9xd18Unn3yiTLX8jET4ox/9CC9fvkS/31e+RX1RyefzyOVygfXn9w1dawduNHbZoMavmIqcjzipYcPhMBK5Usjwu5b0oS8WC/T7faTTaVxcXKjFn+cjBaxer4f5fI6joyNjMJ0O1odnPf/lcqkq5ZHIgZuccp30CRbjIYKOHaQZ8y997HSlyP8J3mPr9Rq9Xg+9Xg/lclmNX9bf19uwAjeCqU78UgAh+dItQCtKPp+/5apgkGo+n1eBdUGQcRsURE9OTlTcAE3nFBJplmdcxfn5OZrNJrrdLprNpqosqBceolWDwoIl98cHS+5vGKQGMp/PcXZ2hmw2i08++QTtdhudTgfD4VC1waTPfDAYYL1eq6jbcrmMH/zgB54AoVQqhXw+j2q1qvZPEy59jbINqQ6ai03dy4Ii3v3gF3BlStsiuGDSx04yp1bFc9q08Igf4iyesiIdcLuRDq0fvNbMcOB71jGXcRHr9RqTySTUcgPcpMJxPubzOVKpVOy5oYVCCgEm7TioFLA0QUsNlnETuVzOU0VO1oZntzdpKZGkLecozBIkxwJAFfUhuTNCXZI7BSHHue6vTvM9EaS5r9dr5PN5HB8fq+p6JnKnq4xVJZvNJprNJjqdDq6urtBsNm8JXhw7O8hZYn+csOT+hoELw2KxwGAwQKfTURXgGHA1GAyUmZ5VwSaTierJDdz4KyW5k8BZJ15qQIwGpqnUBFoC/IqKSGxK7tRMgsidCzlb1pKwqGnqBGY6jslXvSn0fcnsA+6XJEH/Mc9F9zGTyCRZkfiDqtdJkNyl5i5fpngA0/nHnRO/4EnpY5f94/leZnXI38nYA5Khn38+7BrLv4xal215KVToKZV8LrLZrBIso85FsVhEo9HAYrFQx6HPndc4n89jPp97fOzdbhe9Xs/jc+dznUqlbrkPJKyv/fHAkvsTQ9iCycV/Mpmg0+kobZ0+OP7f7XY9WhQXk1KphHK5jFqthlKp5CFiLmpspUkNmQKCTDMzgYtw1NKdm0D3Z/uBApAMNDP53DcxJZsQJ0rbzyxPgmINdn6mE7zeWY+Bbrobwa9ELn3UuiUjKrnrJm3pg+eY9e39wHOWZmreY4yM14VJ2WNdZnCERff7pX/J8XIMsnAMNXgSu7RMrddrNUYpPJuOK91A6/UapVIJtVpN7UP3uZPgaYkbj8eeZ53PubxepVJJjc9PmJL7jwIrENwPIpG7Ncs8DsiHP+iajcdjjwTPV7/f9/zPhZM5wMViEcViEYeHh/j93/99YxEbGdQlNSqSu6k7mRw7gFvk77c4+JFpEFgNze/4JEZq6VxsSexRouVNY9rlMxTUeIcmbhKFLHADwNMxzxQFL+FnfeD8SGJnlUNJ7qZz32QedJLh9ZPpZTKLQ0bK857zExyi3ltRxgbcWBGYPib9/tKqEAS/51cnd/aZX6/XSpiQmvtyucTFxQV6vR6q1So+/PBD/PznP1fPeLfbRb/f91iACoXCredjG3LWAxIt7g5Wc39CCPMnAzeakh6pa9rOD9PpFF999RU++OADoxYe9BBL86hpAdG1uiBEWThMxzHtVw/M2hVMxLavRU4eK8gyQVOwn487DhnTpx3V7L5JxHnQPv388/rfoDGZEKaphrmJpCtAH4cuMHFOdDeASXiV95AshqS7HeT/77//vkqB++u//muMRiNledEFxagZE3HcYpbY7weW3J8I/MyhhFwUmMKkv5i3TDMfNXeZGkYT4mQyUYFZ3D8XeaY9UXPkghGFtMP8nGG/MX0eZDrXhRz6n+ViLM34YcKT3zj0BW6fJTylFYJamek8ZV36KIKhvn/gxs0xm818ydzUaU4fj5+5269LHcmLmrskc923LYXJoOPGSQf0O5/VaqXM/fL+94vzMN2j8juTNU53l8n+9HrjmdVqpfLUJ5OJyozg76UrwnEcTxBgLpfzvGcWRhwBya+WgcX+Ycn9iWA2m6nuXH4kys+l+X0wGKDf76vPhsMhXNdV5j2a5fP5vIr4ZcS8XpiF1dFkFDVN2UQUf7cJcTW+MHMrv5eR2sANIUrIxjqm7zfBpnEFYVoQCUzvVS/JEICHCGje1gnIpI3KfXM/wE0uvm4N8AsS090gcn/cBwlaJza5LX3VHJMuhOpzZSomxH2l02nf7/Vj+50PnwHeM8lk8laN/00sOCZiJ3lXKhW1nQyKZGyEvMer1arnedTv5Wq1imq1ilqt5vnL12AwUO2Zw4R0x7nOAigWi5HP0yI6wtZDS+5PAK7rYjQa4fz8HMB1MZnZbIZXr16pbcrlMt59910AwPn5OS4uLlSeKwNsLi8vUalUPDnRrVYLs9nME+iWzWbRaDQ8JVnn87nqF97v9zGZTFTnMJk/TFLZpQ96W0gfuu6jnkwmmEwmapGUY49ibvT7XuZT+227yRxJq4kcp3yvF/9h+tVkMvFYFPSFv1QqqRr4cqwU6Hgsk1DgJ8zIuWcjl6hwHEelbRHUMKktzmYz5HI5NV6/0q6OE722vglybmU8AD+XFjDT8fXzCnKXSeGd1jYTGDjLVMjFYoFnz55hsVio9/p8n56eol6vo1ar4eTkBMfHx6jVaiiXy+j1emo98IO8LxqNhro227pjLK4RJxbCkvsTASPSh8Mh3n33XWQyGZTLZXz33XeeG+Lzzz/H999/j3a7jXa7jVarhV6vh/F4jLfeegvT6VRp6i9fvlSBcNTKGIzFSmcs8DKdTlEulz0LiiR3VrnaxKwN7CYgzXVdlb/PRiqTyURpaxQ8JBml02lVPncTjd0UQ0AhRy+NSpB4WTgnTkMTBpc5juPRIKm981yZAz4ej1WdcvleQhJoUDCh6dryvtQFAhnsRs2Tn0WdZ1mTIJvNwnVv2rnSwqLPsTyP8XisPksmkxiNRqoZjiktMMgPz+tM6wg799G6EPWc4mrz9J0Dt+sdMKKez+5yuVSpcwBuFc1xXRcHBweo1+uo1+s4ODjAwcGBMul3u11cXV359j7g2JPJJEql0sbPusVuYMn9kYMPTzqdRj6fx3K5RKfT8fjGZ7MZVqsVvv76a3z99deqGhoJjMUznj17hsFgoMhNpvRUKhWlvXMBleZ31quWpC47hnEMQQ97nMCbuME6FESYokdiMdVFp8YlNRTpc9fH4De2KOdgKugjz22xWMRqs0mtnSTO//l7XZBhgR6en6kBDD/Xm+boPmzTtZUxGNK/TF+szEXnd3F8upLYgZv0NpIeTe2m86ElhuRLLZ/3rG7F0SsyBsUYUOgw9RXYJsBMjx+h1cxv3nj+FPaq1Wqga4nEzhcL4Mg8eaZimiw0zBKQKXkcq8XdwpL7I4bUBBuNBhqNBhKJBP7zf/7PWK/XeP/997FardDv9/H111/jL//yL/GDH/wA1WoVR0dH+PDDD5WWSE0un89jNpuh1+up7mO5XA7lchk/+9nPVAMKFjKhljObzfDFF194/LE04S6XS7TbbaPfUJ6LXPyDFgNZBERqTKa54f+src7/Z7OZb8MTWiIojMia6BJ6Wp0esSzHqIPbBOVXs3Z4HEg/OgOnqL0zjU8KOo5z3fKXBGhyF0ynU1XUSDbS4fnJvyboQWuyipxuVo8DmZ8urUrsZTAcDm9ZGmTgHS0V/X5ffd/tdlXqGjV7/sZEWLpVRpap5Us3xUfx3UeBvJfDwHk5OjoKtKAdHx8rs/zR0ZGKxWm327i4uPA1y3OOWOvekvl+EEcotOT+SKEH5ciL3m63cXZ2hi+//BIHBweqCl2lUkGz2cRkMlH+0w8++EDVkM5ms/jiiy9QKpXwgx/8QO2Pldrq9Tp6vZ4K4vn+++8VCRYKBfT7fdXZiuZsnRijaLt6dL1+3lKAMAXo6QsLLQ6y/zjzvU0a8XQ69XSx81sI5XGDNDq/hU7WCZA92U3nLI8RBJnDnkgkPEIKq+1Ru51MJigWi5768GwkkkgkUCgUVFaEPE8KfACUYOdHWropXuZ7s8hMFHI3XVPuk5HdwLWPvdlsqvK4QRajICGSlg3d2jAcDuE4jm+QmPSxy77nupVjU81dHzu19qjbn5yc3BqrBH3uxWIR/X5flapttVqqdK308UuLS6PRuFXCl8fZ9nwt4sOS+yOFn6bK2uw0z49GI+VXJmRwWL1eV2SwXC49KTDAjTl7uVyqTnDJZNJjcmdUMPdJ0tPTsHb5gOuaeRBkOh5wE6lO/7L+e7l9FA0kyBcbFSTNbVPkdJNrJpNRPlk9XZLV6fQiNCT3oKI0MgAxiCAJvQ0riZ0a/KaQHctojue45f3I+dWvlanNrd+5cN/83w+MmCf8BJOgY0UZE69DVHJ3HAf1ej1wDI1GA+l0WlnvWLVSvnTNnS5Bq60/LFhyf4Jg+Ug+jNJUKxdAStRcCGVOqwkkdwBKW6PmzEWSD3hUjT0uTJYKCakpESRrfi6LrnAe9O23QdxFTpqKdf963H0xPQq4IQkKaPyOc0QSIgFK3zCJw2R257bUbnksP9A3rldpY/W2Tcmd58Bz473N8eqWlah12/3AHG/GQviNSfexmyw8fogbUOcXI6GDQrkU5k2gRW84HKoqdnp5apI73SJcN3SB28/iZXE3sOT+SGEiTfnZbDbzbeM6Ho8xHo+Vv3w8HqNWq+GHP/yh58GX5A1c58Bms1nM53OMRiOP2ZLNZ0zmad0vGQZ94YkbZAXc+MMJSXB6UJh0H+jHiuNO2PT89O90H3wcsybPi1YA3gPSskKS0q8LXSoEA6co0FFooDlY/lYWM5LzoBdBkmZ0aZ73Q9j8cyy8pvK+pAYKQAXMmRB1bmXg4XQ6Nf6O9x0D2PZJbiazfNB9mk6ncXR0FCjk9Pt9dLtdtNttnJ+f4/LyUpnlLy8vcXl5qQSbRCKBSqUSycce1zRvTfnbw5L7A4TJZwWEV2+TxMw8VhP0Dmc0rwc99FzkU6mUp6gLEeb3jvLw+53XLhZIaUqW+6RZPswM7+dHDHIPhPnQCZNmpwtZUcGiKdRq9TKoUhPXzyGKBugXW2D6rb4No6mlAGbqT2A6nulz/br5WVzkuW4DeY4mrVReO/2894koLiqOidYTv+fMtDbwPcvVcl1hiiz3z334xTfEgSX2cIStC/u96yw2wrY3tjSJFQoFT1S3viDKMpmdTueWf940Lrk4h51HVK07yFSoH39bMGCO0AnPD7qJWs6paaHfVCi5y4XNNEZ5Pn5zEvfc9MA0v22i+o8JGZ0eZAEAbl+vbYTGoP3chSk6rsVIt6TxOkghUF8nuD7INUPG0ViT+/0i7FmxmvsDhcmXqfsR+b1ciPUHlkUswrSy1WqFZrOJarV6q5Ur961rCEH7DDKtb6KR+gUQ+lk4TAsZNUfm3efzeQ+hmIQRE+GYtgG8keq8Fn5jDTtXXdsMm6sgq47uw9evo0mr536C9qvfe9sKZ3HcGjpZ5XI5uK6LXq+nrrXpuHHmVIes6iejxOX30jrBtEG6SEz13+VvTeOKes9EucdM+40rSEpri6zr7/cC/C1CvL94Pa22Ho4492wkcreTfrdwXRftdhuJREJFtwLXkb1XV1e+vwGgfJj1eh3lchkXFxcoFouo1WrKD2iqI06Mx2Ok02lVFU1K+LrpjelGQfW49fGFfe/nbtB/z2PSPy0jmSUKhQLK5bIqtlOv11WK19XVFSqVCgaDAVarFWq1GoBrzZ51+qvVqkfQCTqPXq+nenj3ej2Uy2WsViuMx+NbDToA+F4DfV5kU5YgkyevFWutj8djpc3S1y41Z7biZRU3+tEZ/BbF+iCj6XXyMGm0Ji3Q77z18yNyuZzH/03/PX9TKpUwHo89cQGZTAb5fB7dblelsbGPQpQFM5lM4tmzZ7i6usJ6vVb1BxhHQBSLRdVnvVaroVAooFKpqOdxsVig2+3eOj8GuulzF0R6cYVG/bebkOrBwYH6nwF6tVoNh4eHODk5QaPRUDnyBwcHmEwmqiy2jmKx6MnMsQS/W1jN/YGCFeEk5vM5ms2m5zM+oO12G51OB5988gl++ctf4ssvv8RoNEKxWESlUvGQS1BnJ/rXwkAykNHmcbUM/X++99PSJfTa2LK+uRwjK45xnOVyWZXHrdVqqgLXbDbzNOCYTqd4/vx5rAjrfr+PTCaDUqmEbrerfJtSCOG4ooJzKyO1TeA+2UiF507I65TJZJRmJaPz0+k0xuNxoKWHddrp1jBd+021QnnOfvviebHqnYzWpjupUqlgvV6j1+up8aXTaVSrVQ+5sxRxFDiOo4q6sNKbDBIEoGoDUJiu1WoolUrq/XA4xGAwQK/X85yn4zgYjUaK6GThojBi3xQU9qIWEEomkzg6OvKMicoHyZ0FcKrVKhqNBnq9Hvr9vu88t9ttVCoVvPPOO7fOy5L89rDk/sBAjXg2m6ngFy7u4/FYLQzAtYZ1enqqolovLy9xfHyM8XiMRCKBarWqOrhJkmLluPV6jdFohEwmg/V6jeFwqEpmBkHXPIO0r30F0ujBTaYAQvoQSWxceHO5nCe2gG4IWisYCU1N3g/6+VFr5n5kv2zdzeE4N1Hopv2aPjOl7en71F0DvH8kifO+4m+A6/mcTqeh7hbZQW6XMN0r+twy6j6bzXpiJphWx/OjRYn75fnn83kAwQWDgsY3GAywXC6RTqdRqVQ8Ef8cYz6f92juxWJRCRO0CA2Hw1v7d5yb3PlSqbR3cvO7zqbjptNpVehKvyY8T5ar5TkvFgtP50kTisXirSDIbWJV3gTEuS8suT8wrNdrDAYDtFot5PN51aBlMBioRi9EpVLBu+++i6+++gqtVku9MpkMjo+PcXJyYlw0WdhkPB6j3W57tE12gKKJWwbVENJkuAtiN5kHTX5n/cGXC5RJc2cONEmuUqmgVCqh0WhguVzi5cuXyGQyaDQaauF3HEcJOeVyOZJ/lttkMhnkcjlVD4CLeFBXtChzJOeb6Wx+kGlrq9UKBwcHcF1XaYWTyUS5buR+WI6W4zWNwXFu0vT8cvE3NRHr0O8F1iuXTWY4Bp4bXQzdblfVlZfafb1eV/vhNYkaJ+A4Dl6+fAnHcVAul3F6eqr6LlAgpuZeKpVQqVTUfZXJZHB2dqZaK/f7fV9BJk5XPNM87lIoYLyANJ3L665r7gcHByiXy0gmkzg7O1N58SR3fWzlclndhzI+xWrtu4El9wcCLnCJRAJHR0c4PDzE2dkZ/st/+S8qt1SvPnZ+fo4vv/wS6/VatXE9OTlRZkrg2vRVKpU8iwaburC29nA4RL/fR61WQyaTwVdffYVf/vKXeOedd275/0yQ2h8RNf3HZMLVg6V0MqM7YLFY4Pz8XJWSNc3pN998g3feeQeFQgHtdltp7o1GA6PRSPlCSe4AUKvV8Fu/9VtKu6YQEbbo/Mt/+S8xGo3Q7XbxL/7Fv8B0OlV16v38jlHB+aA51ZT2JSOemc+/Wq2UMLdcLvHpp5+qdMZ2u61+m0ql8OGHH4aOo9frYbFY4OjoSFUpnE6naLfbRnfKJlqYrh3m83nkcjllhQKAf/AP/gEKhQJc18UXX3yB6XSKYrGIf/tv/61nvvg/78ef/OQn+Oqrr+C6Lv7Vv/pXoWORBF4oFJQAxz4M2WwW3W4Xf/VXf6XIPZPJoNfroV6vY71eK5L78ssv0e/3b82JFCD53N4FyZn2L+MW/uiP/gj/9b/+V2Ut1AMKSe7VahWHh4c4PDxEv99XVsSzszN0u11fzX0wGOC7777D4eEh/uAP/kCtb7JFr8XmsOT+QCA11cFggH6/j1arBdd18eLFCwwGA9UMo91ue9LZHMdBq9VSxSYODw89gWblctlD7qwMxsAp2dltNpshm82qdqhybDr8FqldzYfffvXjynQ+fTuS4Xq9RqFQwHw+V77Y3/u930O/31cLNY8l9x8W8SvHRxKlL5auD6ZphQlHYZBCFs9Z15o5XtYkoKk3m83i5ORE9RWgxYLFh6ilhSGfz6va9HqgpWmsUWHaB+uzs2oiiRWA6nrIc2OWh2me9fcvXry4FQfhBz4nPP7V1RWWyyVyuRw+/fRTVe756OgIjuMocmfXxMlkop5nvvyQzWYD6/TvGn6xMo5zXWXvq6++QrFY9DQTkkK3JHf2naAg02q10G630e12jedcLBaRz+dVzQwG/m7aRMjiNiy5PzDQ5y61M3ZqSyQSypelExmjg7vdLk5PT5WZkj4/mQPMICBZJz6ZTKrj0o9o6mkdhH0tSLpWL/8SJHdJwiQgWTedxTgymQyeP3+utCWpuZuOHUZW0vJiIkkZze2HqNYOvVysXHAl2WYyGRVUSZ/zYDDwmNhZNlhqZX6EDUBZMkwukF364RkYKMk9l8spopFjzGazqFQqkTvoycBJHSb3k7wubGlMwU3v0UAzPN1EtIzxxSwMaYpmPMF8PlelX9kGl3/vSpN1HEfFNrBBlOmZI7kzIwC4qW6nvyS581xzuZznfmHsjyX33cGS+wMBF1w+xG+99Ray2SzOzs6UVt7tdnF1daW0Bwk2fWk2m/jss8+QTCYxGAyUZC2l7+l0qhZMkjhN9GyFGkWLi6ph+GkH+mIRJVLWRPTyvU46mUxGtQDtdDqo1WqKzOlXZ2yDadyysIc+Bp4XBbL1eq20PL3qHDuERTmvqPAjWX7HkquJxE1bWQZXkphkLADLs9Kio49PtxzIY1JQ2JbgpWDCe1Q2M+J1kuPjtdT34fc+yvGB23UjgGuXDU3HyWQSo9EIs9kMx8fHKpI/kbhut3txceEJKtODy7jfTCaDer2u2jN/+eWXKjCtXC4r98OuCd4kxDmOowICGazrF2CbSCRQLpfhui4uLy9xdXWlNHb+r5M743v0Y9ogut3DkvsDgZ8Z2nVdXFxcKBPX1dUVzs/PlQ+Yf2u1Go6Pj5X/i8VaGo2GIneC5vfJZKJyhqfTqQq4WiwWquXppucRJcgqSCPXCdTvvQl6p69sNotUKoV6vY7FYqGC6ur1OlzX9SV3v/ORYJodAEwmE2WCZy9wQubymo4RFDhoAgUOGWRHsuDnJCEGR9KUze2CKsX5fc6XHlhFy5Ccj6B9+R2P+6I/O5vNolAoeOJIWHyIcyRzxPcBec4HBwcqIJFmaem6GQwGSmNleqpsviKD6aS5PygwdZfQr7m87xKJBI6Pjz3nzPemsTBug61hz8/P1TlfXFzg/PzcQ+6lUkkFqZosJBa7RSRyt5N/d+BcX11dYbVa4ZNPPsHf/M3f4PLyEtPpVDVp0H3uwI1JWFbK0jUPbudXaYoPdZSHb9sFNSxKOuwYft/pmrZuXpXkplfT8juG3xyYKpXpY+H3QdpXkGVD/244HCKZTBo7uenjlNo5AwRNQYy7gF/znagwCTmmserjNllX/LbdFvqzwzmV4+XzKQUw171OxZSCs9wOCC9QZEJUt1EUMPZCvg9yFfGYMv6DrjHZbVBu53edLHYPW1v+AcJ1XXS7XUynU9TrdRXNPhqNjIVa9IWPmjnfbwvTPoIsDfcF3VwcpuGbsA/T5y5+K89lMpko60RYlTfdTL5P/62MeYgy93HGEhbwt+tz8nP5+LkdwoL4AKiof32bOM+MiRz3/czpQkoQdGHAT1i/qxiCNxnWLP+AoD84zWYTv/rVr/Bbv/VbOD4+xsXFBT7//HMAwZrgl19+qfx1RJSHSVoD9H2btHm/BTzKYhO2sOn7jRrQZhJqgrp5BWmG+jHjaEmbxg3ws7BFkIV2ZFAccLvDnN5Mhd3//DSyffh2wxDleCw0FDfIc1OY7vfz83O8/fbbxqAvbi/vrzDLkp917KFotmHjkBZBfS3wE9w2EWgsNoMl9weEsEWOEd7NZtPTj9xxHPR6PcxmM08tegl9wYlj7vYj2n2SALUkx3FU5D9wPQenp6cqWEcikUjgxYsXKoCOwUuNRgONRgPlchmNRgOVSgXValX5FPX6ARIsBsO67BL0dzPlie9lCiH/ynrq3FdUIUFGiAPAs2fPMBgMVNS/PiaaiuV3Uc2hce4PfRvdd+y6Ny1GGbzJNExWd2OWBqG7kZLJJF68eOFpL6pjn0TB+5C19gn+L2MMGGHOCpOMrOeLVSdPTk4AQEWNM5WsVCqpYDYW3EkkEp5qfBKMpp/NZiplLwiue92nQBaoojAc916Mgm2uy30ImY8NYfNryf2BIEqgGNNI9G0YMMaUlF2MxTQ2Qmop+4Cch/l87qkbLquKyeOzYMvh4aHSZEnuktTr9bpKm6IGxrQmE0jGs9nMSO4sMcsqZUyBkqlvOuHRVx4FkuxkHX2WimUVNtPv/L6LApN1Qz8f/fqbzObMtyexM82ScQDsHy7HzRxxx3GUpYHH0+dtlz5nE+hH5v5ZDyKdTqsASlnWV6Zbyj7orOPOdD7gpmwuyb1cLityLxaLnntPniPPmems8/lcrQ1hkBUOw8hTHo9Ctv4bxhHoDa2iFH2y2A5h82vJ/QFhE8LkQ0epf9fjkYunyVTJMewaDBjjnEhLxWw2u9WJjBo2U5EkuUpy51/WypZaownMkecCS3AuqLkx2n61WqnFP8hPGaUNL3ATwEUtjmRDLZk5yTJvWi72LL8aBBOR+30vA8H0dDhp7ud3HB8Jntswm4NkqO+H20kyD7KwBI1/W8jAsOl0inQ6raxJUmNmURYSuyR4171uWsQIeQBqP5VKRZV9ZpMZAErbl10B5Xmu12vlqgjrZQ/cCKMyqDIqWHdA7gsw14e32B/i8IMl90eOIJ91XJ9XXBLQ/btxTWmmMfD37XYb6XRataolASSTSXQ6HaXZcXsWJvnbv/1b1Q6U39XrdTx79gyVSkXVv2bRkLDxkKzH47Hx3LiAX11dodFoqHKsxWIxUFij9q4X3dEh89ZJDK7rKquDqcracrlU24YFVoYRu9+2cmys3W4aP4latmUdDofqenJ+CZntoZ8f893lePZpkteFWd6HdIlks1lltXGc6/xwXn+a5WkGPzk5UWlvUnNnFzi6jZiz3263MR6P1csEpgmahB6/WA4+Nzwfua3JCuI4N33p4yBqQSaL/cGS+yPAXQeh6AFffov+Lh9gubDQFLtcLnF1daUWyPl8jpcvX6JYLCo/eq1WU7n89KXXajWPibLZbGK9XivN3WTe9QP97X4avvS5f/PNN8pHywY/YdeMloGwuaGWBtyUD16v14oo5HHoomHRl9Fo5OsikMfYBHKeTedKjY/Exs5ovV4PuVwOrntdx4G1GZbLpScyXmqkjGcwtUPeF3SCl+2SOQZqrpeXlyr2hZ3p2MSJefqcC85NPp9X9yWv5XA4xHg8xmQyUX9N4wKCyyKbIAXaKHEffhaBffvdrUl/e1hyfwKYz+cYDoeKAJ8/fx65FKcf5IMfRPCbLjImkHTpF6Q5nAvqbDZTfvR6vY5UKoVSqYTDw0NF9s+fP8fx8bEnuOsXv/gFxuMxKpUKstnsrUIrQZDjMIHkzgUduJ4TBi3xPc/PBPp0/b6XZlT64BkwR5KXoC+XBMlgND9rTtBC6jcmms/DrjvJnYIJTfrs4Mb904rB6m7UFmmBiRursEtIqxTdIovFQl0XzgGFwMVigcVi4QkcZFEeqbnTosFuhZyX2Wzm6fVguvd4/YP857xP5P2lt0UOguv6198PWw8s9oM482vJ/REgKILZcRxMJhNMJhN0u12sViv82Z/9Ger1OprN5s7G4Efwu9D+uGiS2Lm4sZMZFzcSJgPXpPlWEpf+l33ti8ViqI9dBwnF73cUqOQCrAtFUTSkoFau0jTP94wrSKfTxt/Rv81AQN2sGsWFEubykXENJGaToCF7FfAa0p+eSCRQKpUUacs666Y2ufpc3BV0YXexWHgi+rkNz3G9XqvKkJlMRpG7FHRYYrdSqSCRSGA0Ghkj7E3ZBIA3BoHkrV9T3h8yIDBs7uT+2Yve7zcUusL2ZXH3sOT+SLDJQrztAmiKktZN9txuk4dY/oakLjVhGXXMRYSNbgBzLq0M9uL4WHZ2kxxp+oQnk4nxWNIKEEbiQXMkW7Sa4LquMtG+ePHCowWajks/MMuk6hpe3PtJ/k6Wmw27x6i5U2CT5M56/HIfFFxMueQsRxtFWOLY5D0cRRANmheWvZWglk6wURP7oNOKIsld+txpoZA+9tFo5PG366mVuVzOU6mSgX48PreV88SARr+0OgkGb06nU0+mgAnsexEk+Ee9Xha7hSX3R4I4D8c2vnDTb/3MyruQyqmxk8xJ8vSzk5Tl4nx4eBhYq900NpMAYtI6aL6WkenU3E3na2q7ajpHHUFFZHTTKfdJHy3TqtjSVaZjmfavN1WJct38tpHBVfK8ZLS+BE3N0hJj+l4/RwCqdehPfvIT33GFEYck+LDzDvs+qkk7lUrh6OgolNwp0I3HY0ynU2WB4/0vtXfgxqohz1cKg6asBrq05DwHzZeM4ZDtZ03PjgnSkiPHYXH3sOT+gBBHAw56SLfxf++ybWcUkEBlT3ZqC/xMEqjjOB7NJQriCDv6Pil8cBGNEmyoXxu/QDO93j+31fsGcA6YMy795+v1WmmzpnHoY94U0u9sst7QiqIHm8lrKNP/5Dn6laydTqe+keLbnMemCItIdxwHq9VKCShh5C5jS/ji/S//1wmc80Tff9CY9JTRoHVDCvEy/ZIuID8BbltsakWyCIbNV3gi2MWiFYXY9yGJ62OXTTnkNnxtusD4ZR2EmWz9msP4kVyU8bGcKqGXyDUdz3QuYQgas5zToN/Hubf07f1qjYfVIA/SDKOa5MP2FfX3fpDzF4Wgotx3UiAz7Ve/52QmBIBbbh0/YSwMiUQCh4eHqk5BsViM3dLXT+DUz9EEzo3V+v0RNjdWc3+kkCRXrVYxn88xHo89F1xqh37ERphMejyO3/byId1mAfWLF5D+QoLnrfccDyJ9k/bI/4MWkKikFiU4Te7TcRz0+33Vx/v8/Ny3RrffIj+ZTLBcLj3RzPr1MGnacc3yUpszuWf0fUvoMRl+i70edZ5IJPD69Wssl0uVxx10H8q/fp0Ng34bNn6/78MQ5i4I2zfvaZn1YOr2KLvUAd7qcGFzEHRd+Pl8Pkev11MZKFIZ0J+noC53fGZ5PjwXU9VNv4ZIvF/eVESJGyEsuT8Q6IvkYDDAaDTy3Z4lZ13XRalUUlXJ+IA5znVRjUKhoPxnxKadwvwWzDjELs3t0i9I3zqjzxmo5rouKpWKJx2Mvdhlul8+n0e1WlXjlOA+ZTlQ6QM2PTCu66Lf70eqvqVrRlE1S9OcB/02ynFkihr9rQyq8zvPoONEHZ9JO5QBjExBNI23VCphOByqgLlyuaxM0/l8PlIgJOeTBGIirThkvU/Tb9RniOluMio/k8mgUCiouWItA6Y+6gQbBMfxNhbys2DJ51VeQ95j8tmSgbF6ECfLP9frdTiOo+pVsFCVPK7fs5dIJNTvLYIRidztRO4fUtp13eu66MPh0JgOBFxH2rIKGqtaSXIHriNn0+k0ptPprUCmqISsk9CmWjr3RQmfpCoXCBOxp1KpW0Vp6vW6qr/NKGHmC5tygiW5y4VI+jP186LJM4jcTQQtteVtBaFNtgdwKyVNWjuiIKqJPAwkAse5TpvTLSsk4kwmo4rXsOoar08ul/OtMeAHmZomcRfrGGNIgr43/S9B7VR/9vlZsVi8Re4U3hiIGiZkSouA6fime0CvhOc4zi1hmb0WWCJZauUsrlSr1TAcDlEul1Gr1VCr1VRsBYWIfr/vKwwyhuFN1uCjwGrudwAu+Cafm/4/H6BOp4PxeKwqqukoFAqoVqsqyIWpN7LiWbFYVKk029R/3hXBM3iI5Mp963nt9O3l83nUajWcnJx4fNknJydoNBpIp9M4OzsDcKO5X1xc3FqE5vO5qhgmS4KaOr3FgT4nvBamfG+ea5hWFUZIQf587lemOzmOg+l0qsqchiGqfzZKXIAMhsvn8+j3+57vj4+PUSgUMJ/PUavVcHl5ieFwiB/84AcAoAiCTXKCjsd7lNrtfSkkuiXID2HbyHx4gufGYD0SPMsMTyYTdZ8HHYvCVlRy5H0rizQBUOuPLLXLZxkADg4OsFqtMBgM4DgO2u02Go0GDg8PMR6PUa1WcXR0hGq1qgRpCketVsso1DmOg6urK3zyySfKUvcmIc59bcl9z+CDxcIWUgLWX8A1AQ4GA1xdXWE+n6tSm3yw2ViCL0I3oY3HY6RSKQyHQ2MKkj6+IJ81tzMRfJSbzXVdFQ0stXSes8xrp8ZWr9dRrVZxeHiI09NTj1/x9PQUBwcHcBwHnU5HRfJyYZtMJp4yoVz0uAgxEtlv7BQ0CF63MHO1vAYSUhiSjVW20eyD/N/SBJ9KpXBwcAAAGAwGOD4+Dt2n6ZzCzPd+AiiL1bCIEHPYZ7MZqtUqSqWSKrTDe533NSPPo0bMU6u7zyAsWiLCILVj+QzKSHsJ13U9ZnkWwKFljvf9eDwOdGPIGgVh4FrFZ1eOHYASvOSztVqtkE6ncXp6qs6BQnQul1PP8/n5Ob7++mssFgv8+Mc/VnUk+BxfXl56ivdwvpLJJI6OjiKN/02HJfc9g8TW7/eVFs1e46xINRgMVEEP4uXLlyoFBbheKAuFAo6Pj/Hxxx/fKp4hSYMtQbPZrIc4Cb/0G5rDZclPYDtzplwgpGbOxYL5t9IUL3ta1+t1NBoN5XN3HEf53FmXO51OK5P8cDi81Z6V5ybPL8qYo5ybKaBMBoftE/Qx62BfcWq++XxemXP14Ct97MQmBFkulz11+Gu1mpr3ZDKJjz/+WM2NvP9kN7lkMql87vxd1KqCTBO8T/gFqEX5nbQ6mK6H1NxlcSJpkdL93RKybXDQOHg8rl2m7wGg1+thMpl4hGG2taVl4cWLF/iTP/kTANfPYalUUmWiF4sFxuMxer0efvazn6FaraJcLsN1XTSbzVslnKncyDmxLmN/WHLfMxiE0uv10G630el0cHV1hfPzc3Q6HXS7XXS7XfR6PWWOrlarKrAokUioNqWlUkn1fn716hUuLy/VcaTWKJudkNzlQyqLZISVo4wb9KVvJ8cjtXYSufwOuF6gSejyr/TdkfTZLGY8HiuzJAUoCijUFNlidJ+Lv+u6t4jT7/+w/YRFO8sAMn2/7Hm/Xq9VTYBisYh8Po9Op+MhU31c22i9R0dHGA6Hah/ZbNZTUvj999/3uAa+//57tFotJcDyehWLRXWtXNeNXFmQQsN9au4SUdv68rw5D3pVQYJV5hhjQwsdyVWSuz4HQT52HSR2Prscow4W3aHQzJgJ1tTPZrP4rd/6Lfz4xz8GAPT7fQyHQ/R6PZycnKDZbGKxWKDT6eBnP/uZMtHrwhwFH7bENY3XkvxtWHK/Y1Aq5yufz+Ptt99Gv9/H2dkZXr9+DcdxlJ/q8PAQwI0ZlwtePp9HvV6/dWO7roter4fRaKRMmnpAnVwMwsaqIw6x0ypAzUIneJ4XhZpCoYBGo4HT01McHx+jXq/j4OAAz54980TLn56eolqtIpfLYTKZoNlsqnOU2mIikUClUvFYLzaJkA7KJvBbWDZdbKJqfrSszGYzT0lWEgrJolarYTabIZFIoFAoqECkuD29o0T305cry7SS3PW2oa7rolAoqPuDYDQ0AGV9aLfbkcaYTqeNxHYfcF0XrVYL5XLZYwb3u1foO9f3IcGAukwmo4hclqnlS7dO8Xdh5C4FyvV67VuqltuxNDMF8+PjY0/nu1wupxricL8s7PP1118DuF6L2ANjMBgoIV0eJ5FI3DLFP4Rr/NBhyf0OIRdu/r9arXB1dYVer4fhcKi2lXW0CRlRn8vl1HfFYlGZu13XRbvdVo036BOT5K6b9Dc9Fz+Q2CnR66lnMgWNhMQI+EajgePjYxwfH+P09BTvvPOO0rx5zEajAQDKFCnnRe9fLiPjdy3dR/XBc1u5IOkV3fw0vLAxS0GR++WLJthSqaSIg4urX13+sGOFbZtKpVT5WN7fi8VCCRXyd4zyluSeTCZRKpU899Dr168jaWfU3O8TvK/9CN1E2NR2JUzzS+1b+rhZtpYWKz2gjveBX9aNfkyTj90P1OzT6TROTk5USh673ZHc9d/ItYfkXqvVMBgM0Ov1MB6PPd0PGTNCOM51qpzjOKhWq1Zr94El9zuC3w3IALput+sxR+VyuVsPvO5/or+VJjqaoHO5nNKUTTW9g5pBhC3gYQ+SJGw9gI7v9WYr7IxVrVY9L5rhyuWyh9yTyaQnpU2OUzfLRvWxB51blIC6qIgyf0Hvw7aXiyLN77I/Ohd6vepeFE0obFvpN+b71Wql7lNdc+Q4dOJhCpysS8/7O8iCwt/edQllfRxRj8/0xEKhcGsffvuWz5V0rcmGS3wGaEmJA73cbRBc11VR/Vx3eH/RLE8lhOdEPztwfX8sl0sMh0MsFgsMh0MMh0OluafTac/cyGsf1GTJ4hqW3O8Zq9VK+aKkdklp3rR483tuy2plXBSp+fDBZ+5pGOJoovrvpPYs/ehSe+f/0ufOYDjTi+ZdvYgNz9ekYZDspVk4CHJ+/aLXpTYszzMIUcz/YRHzenCTH3HI7WXhEPreJbgYb5sjzDk23Z+ShIPIhUKHbFZCczCvfSKR8AhwQfPKOg+PBfL8TXMpwdid8XisiFx/tkj4nAOT4OS376jPiwTdiozc18mdViJuK8mcWC6XGAwGag3s9/uYTCZw3eviVbrgEzZPFjeIRO52Mu8eUTQ2ffFfrVb47rvvbpmm/fYbRuZhWmSYFqXDbzyyWt1d3mtRzocR52+99ZaKX4giLAWREb8bDoeePuZyHPp14kuWE44yV2EBeXERJgyZ9h/FXx/l88eCbec1bJ9+9y2tG49JwCFMc6YXzAEe/71xl7Ca+z1Av5F3deMmk0mcnJzg1atXGA6H6Ha7vpL7tibmoMV6V8FkUfzNUbfVIedaluyVrgOZd68fh4QltW/6lOlXNLVhdZzrCPflcumxBOiNY6hZ64LPer1Wld0YpEbzO83iEoywpuVDphTGJfgo96csNkRLlB5It16vfS0HPD+Ok5q73L8forhg7htxIvp5nYKsLK7r4ssvv1SWPGlW57Foymd5Wv4vXWP3jahrX9SAUwtL7o8GpkXNpN0xSCnoIfCL2DXtNwqiLvpxsM8HWI5XLoAAbrkUwoIPSVayzgD3pxMNzeQ0lwbtl3EUfmSl+9F5vcNKzOqBfJuAx/ErD8oxcE4k2fO4fuNcr9dIp9PKHZJOp9XvpNvBBD1g777gNwYZNW76jS44kth1ctefjW63q7JHZMtkKaxyP/J/zvMmz1rU32xrxbBEvjksud8D4gZNAdH7rHNfmUxGlXWU2JbY4z5scU33+m/CxruNxk4/Jn2WXAwZmMRoZNd1FRlJ64R0KXABloGD+thkUxdW9/IbPwuymAiUWj81MTYNIenKaGmpqXEMcebKND5WUZMaqLRe+JV/HY1GykIit5HHkUWYSO7MAgnT2h6qSVq6zaKOj9dS7+rI7+R+6Xvn/SJTXEnk3A+tIozS1/cddWzbfL/tbx6CAPcQEDYPltzvELqfVL43BU3ppWn9AqqI5XKJ7777zlOLOwx3QewmQrmLwBidnHSNfbFYYDKZeIr8SHJnehFN30HH4T6Xy6UK+NPBBims9a4H1Ml7gFq+41zXOmD+sIxEZrGQQqGgLALJZBL1el2R+rNnz5DJZIy1wTed/yBTMdOgeAw5/5xL1pEvl8tIpVJot9s4OjpShVtc11Wdv4bDYaQKdbzHdFNznHPU72/Tb/3upzAhNkr6qbxfs9mscf+JRALvvvsuZrMZBoMBXNdVqXFMk2N2gSR2KXzto5LftpYgUwxJXGvfm4A4Vg1L7ncIk09Zvpc9muVizQdU+jP1/RLyod0mSCdoW/mbuBK3XzDQJhp+2LH89tHpdFREriy7S7C6HxdKmZKoa6oSTOmRDTDkdp1Ox9OPW3a+Y4aD9Em7rqty1LPZrNK2dHKXZEry573F6GWTIBEGU2wIx+84jjID008uBQ/T9WS+cjqdxuHhodIiWZiFZvfVaqX2IUubBt1rHNsmPvdtTMxhv42TN85rFhbhLgUX2VWRrhJaOmixkfELMgNnm2fLL25o0/3tY9s3HZbc7xGmB0IunpL84/jP4x571xq7jiDf8S6PE3Uso9EIvV5PmXFl0Fw6nfYU3mF9axJMkPVEX8j1wKnRaKT6lyeTSTUv0lRK0z0baWSzWVUohCSov0iE1Kiz2awKuJMFa6I0NPEDF3SZ5sZe6yRj1iOQ6W3EYrFQpUNZYAm4vt+r1aoqRkSXBS0XDD6UcQ0mcNtdaaSbxJ2YNH+9aEsQ+OybhGC5T/ahoADJ+5VxHEwdZIEg3le7bJG6qa8+Cu7CqvcmwJL7PcDPZCj9cnzAubBRQzKlh5gQRKi7JHb5kMuHMo5JLWzR3mRcJtA/yRKXiURC1fTnAtxoNFQbS5o3l8slxuMxDg4OfBdex7nOx+92uxiNRkZNjQIFtVTuH7jJP6f2y8W5WCxiMpkowtM1d3YQkwF1zDeWGrQUFHUNPs5cUoCg5u44jiL3k5MTRTayXOh6vcbV1ZVqEdrtdtV32WwW9XodV1dXShhar9dq7Cy1Ko/vh03IPYopPghh2y+Xy9AyzzJ4MIol4NWrV+oe4/3Mv3wBN8IChcdthLtdY5NYGUv48ebNkvsDgd9F28bvtK3PKsqNFNc8FzcYzvRAU5v1+z4IslQntWQGqLH9KLV5mYYGeDVxfezz+dwz3xQK9BQ3al58T22YkKVj+T/JmmZ4EjrJnT53qbn7aWkmrSjqHOrxIev1GqVSyWMOZ6ngwWCAQqGgBAGOKZFIeGrPy+8ZG8D9AN4Sw2HBdHHJPS6xx7nXaBpfrVa3arTrgYQUYoK0dZrry+WyarjCNq/s3ZBIJDxCKec7nU6j3W7j8vIS/+yf/TMV+xG1la4f9Pthk99a7A+W3B8o4gROxIGJjKNo72HBRWEIKh0aF3EFBFmyU/qpaTLlAktzpp7GxmP4tdLkb3RhitYT5nvr5E6NyiQAyAA+auGyEph8L83yJHg5Fl0gMWnwftakID8zhQ+Zl06zPLvVcX8yXU/WXec4aaYnGabTaXS7XXzzzTeRfO4sWbxarXBxcYFCoaBcBUHn4gf9njc9A0FxIryXWELXb3taW/TfE/LeYBaBbMC0Wq3w1ltvqQY8/Jy/ZbobyZzuGhmkuwvX3i4QRzGQ8BO433RYcr8HBJFplKChKNC3C9uvCVEffC582/rKtg308QNJfDQaoVqtevzbMm1M+tV1bYTkr5M7tdb5fO6ZK90nKs9R+uX9ricXfJq/pb/d5HuXxB1HkPKzvPhde784EX0MelCYNDnL73jPyM8YhzAcDvHy5UslgNHM7JeJUKlUVCOmUqmESqXiIfeo8JuTqO4sndz9tqUwxO+D4lJ430wmE3VPUWA9PT1Fq9VSHeFoYdKLJO2rqY50+UTdNur2VsPfHJbcHygeihQa9eHSif0hVQqT+cVnZ2f4/vvvMRqN0Gg0VH6wbs41ma4ZXCdBjXUymaDb7d4KnpIBeFxwo0DfjgKJ9KHKQLwoBBRXS9tGq9PdAvK9SVOVFfloBWFGAS0f9M+fnZ0Fjo3kEdfd4LevqNtKyGseRO6mPPagcfJeJcFLS5MesyN/FyZo3BVMgrP8TiJqfFGU799EWHJ/xJDacpjZPMpDHXd707Z+vwtqeGJadDbxA0tsYqnYFLv01eq/Cxpr2DmbTMtxsK8F0zTuoHFGtSDIz0lms9nM05gl7B6XY9k22G4XCBIGZWe/ML93GJlua3XbFfzIfxO//lNH2HxYcn8g0EkqKknu8oY3LX66L9ZvUTVpD7Jzm6ypzahvACrHm69yuaxeDKqS46GGLfvFSxPlNqbHXbgW9P1FiWcwfUZfPP3vTGuT//N9kJnTRGpRcFeaErVXzpOs50B/NE3r2WwWiUQClUrl1hjoc6cpvlQqoVgsqip+ftDv66BiRQ9JOzQJKQy+lC12OQ+O46hnkHNeKpVuxZeEEoaommdxvwi7Hy253zFMWu5DMmFvokG7rusJ4pHBPbItJaPSC4WCivBOpVI4PDzEwcEBGo2G56X7cWVwEvPQGSks68DrfmOd/PSc3zjmSpMAxMC5ME1a/16vva63SmWsAIPmZFtNGVAn970pme8SfhYEv0A+3e8sXRDpdBonJyee/Umhj4LAyckJjo6OFMkXi0Xk83lVhdDvGZPj4ljuYu52LUjyWapWq57P6vU6arUahsMhHMdRUfy5XA7VahWdTieS5Y3P0C5z5bfBNhapx4w490skcn+TJm/fkHPJ//0k4W1Jf9dmrKDAu9lspsbLEqsyqpeV3kqlEo6OjhS5s1rZs2fPUK/X0Wg08Pz5cxwfH2O5XKqcaGrtTCuaTCaqdGy/3/f0MdfHSzLgbxuNBgqFgm9Z0zAzsfyOFgO/+Ylj2pWpd7lcTs1dPp/39M0uFoseDU3fv5/15a7gZ/7Wz13GEMh7XVomMpkM3nnnHQC3A9uoqTYaDaWhVioV1Ot11U1uMBioILQgcF8PAXpgZhSUSiXk83nP3CcSCdRqNVSrVQwGA2QyGUwmExXsl0wmfQUfvWiQ4zi3eqvfJ3Sh33LUbVjN/R4Q9UbctfkrzLQe9ffyPffFB19WXZOkzqpayWQSR0dH+OlPf4r5fI5arYZPP/0UX3/9NV6/fo2TkxMcHh56ItNJeKvVShXokAU7+L0fkTL3l+h2u6outzRLxolb8CMs7ivo2ukBTiZXi0wXY147tXd2/jPhvok9KmQwYCqV8sxjKpXCN998g2aziUwmg2fPnnkWc/7PnP56va7IvVqtwnEcdW+wjLCpLLM0xT+kAi9+MAVNAlDFgfT7KJVKoVaroVKpqOeT6XP8ns8l4H//76sAzi786A/5Hr9vWHJ/otiFqV8SmKySZ3rPBYNmUlZak4U0uBhXq1X8w3/4D+G6LvL5vGp0kkqlUKlUVIU2Nm9pNptwnOuObSyOInN6owS0Oc51Stl4PFakojfl2Qa6id0ESUw0sbMoDbVxauYk9Hw+r0idmrtfC9A4QYV3BekW4XioFdL3y/PhYk+NkiVVZbU74GaOeT/VajWUSiXl7qGmzgZALExkgqml6l3CdI2iBmhKH7vpN9Tca7Ua0um0EnLpeuD8BJGsXjPhrvAQ7t2HiDjzYsn9gUCXyv0uYhSNjTAFysS5OfgbasySUGXZS/rUgWsTeLFYxLNnz3BwcIB6vY7Dw0M8f/5caeS//OUv8e/+3b9TZPuzn/0M//gf/2NV671er6sSse12G69evfKM66233lILU5hJnOeQSqVQKBTQ7XZRLpeRzWYxHo+VZqcLQ2H7M0ESmB/hAlBBYeVyGcViUS3ADCpsNBo4OztDJpNBvV5Hq9Xy+N3D8JC0GWp+9J8zbkIKfJJcSe7UFrPZLE5PTz37499EIqGERV7T5XKJfr+vrqu8vqZn4KGYmoNIXt538vlPp9MeH7sOaZbPZrNYLBZotVrKjC1bGsvjyTHl83nj+HZxjwUFgsptwvCQ7veHBEvuTwSmYC3dZxYXDHSiOZ0P4zbV5rLZLJ49e6b2l8/n8dlnnymiZmtS9jpvNBq4uLjwmN75vQyeY6BZv9/3HI8a+2w2UwsbP5fati40mRZWvtf/mhapIGHKFBeg74caWSKRwOHhoe++5LH4f9B297UIyrkmcctcfTlG+txrtRrq9fqtfUmfciaTQaPRAADlYx+Px7deJHfdpG/a711Av2f8TOIyk0C6cCgYBoFNeWq1mqr332630e/3MRwO1VyZyF0vExwl6G5X4DNno/K3gyX3J4pdmuXDwMA4IDxOgAF0JsGDCzCtBLQQSLMhI/NloQ76A01pcK7rqsC+oG5u3DZqAJwfUUbJgHDd6xK0mUxGNXphj3cu+iQ/OT9RELTtfRA7XTZ6hTrd5y635z0SZm2i4JZKpTAej2/52fnSzfKPKZ3LVBGxUqlEyvCg5i4zSWSAK+fG5Ks3CfD7JnUTNs1isbDk/uhw12lzcR7oKGY2mseDtEtp+je1y9SJmhGzfn7VKBXoNoEpwNAEqf3QTA14o+N16BptEMLcBfcJfdGVfnb5ktsXi0WllYZZIZLJpAqYo6tGpknyMxnoGJTL/pBBa0NUEnOc66p+0+nUMxckdRmQCty4RMKCQfeJbYRTS/BePM67/A3CPm5WnWz8TIIkzTDIntVhGlEmk8HR0ZFxO36mL9D6mPXPqN1LhC1Ccl7p6zeZy/20x7DrolsmuJ9kMukJpGPgnB4YFcW3ro/Hbw72cQ9FXeT1mgKO49wqnyvJNplM4tmzZ4H75LmuViuMx2P0+32jxq773IFoPvaHKCzRmhMnan21WqHT6RgtGfK9dHnRFH/XJGk6pkxxC7LePLRr9VBgyf2BY9MbVzermR6CsAfnvh8aOb6gSHA/4URK8vterMK0drldlKj2XSxa+wiC8tv3rvYVRyuVf3ftE74Lcosyzl12UwwLBg36zX2tBVEzByxuI5LjyU7g3eGhzLXU+u7aPxl3MQvTNO7DVBfHfXJX1/wu58HP3bDPMQTNY5w5DkoNuw/seyz6+fL9fRO7xEO7Jo8BVnN/g6Gb5e/bXxXHH+rXMcpkmjYtCnGCBYPASHu/sqX3FYR0X9eSEd0mjZqf857Tq6BterygOZZxDTym/pKf3xWiXiOOK+r1jDuffs9L0FztA5a8dw9L7veAKGbZKFHXQfsIWgz8TJibkLxfKpj8Liry+TySySSGw2HoMWezmbEFK7+X2GZRkouwPj8M6GKgE6vnyd/yrzx+mEsh6HMdQab3uxbaXNfbqx6AygiQTUvYzIWf77L6mX4/szMcAyophLmu6xHK+J7BnvueM5Pwo3/PuIKoawBTA+MQ/Gw28wRv6hUfZSoe40X2hU3n3PrdzbDk/gBgMosR+oMa9uD69YeOa5bUEeST4yKq/3Yf0rgMoptMJpFN8ptqZUFCU9g8+aUS+RG9fB91wQoSFO/KBM7rLEv8Esx8aDQaqpogqwM6zk0K5TbHl5DXe7lcquBMChySzElevIf8CrbcNRzHUaSu399+QbDsFhgXeuCmXg2R18xx9ltbXj/HoGfrvq/PQ0HY+mDJ/Z5guoH1934NHXTc9c2umzp1/9y+fHUmrYzaICPOTQsAtUlqZzJIie1odwlTURw57l0GfJk09buAvhj7tdqVHd94HdLpNEql0kZlX6OYs3lfMJVSpsItFgt1XFbJS6fTD0rz4/ijwq/8rB/01FD9t6wjUSgUlCXgLubH9GyYnueHdK3uE2HPgSX3e4af6VZWUgvTUiT25TcM8s2ZCH2fwTjSWkDNgtqG6XiLxQKr1UqVyuXixhS+oCI2pmNvK0zpbgK/hUuP+I+Ku/S5y+sgQe2T5E6iJalEydeWboWo9xFN2SyJTK2dZJlOp5Vwx89NHQX3Db/nI64pHkAg+fL6yD4Qcm702vIyLZQNZ+4jc8Bq52bEWU8tud8zTGbZoAj1OP60ODfCJmZgfey6VrzJOKKMcTwee/ztk8lE5fOOx2PVOCRuGpHJpUGijOuHNf1GXluei2lutpmvu/S5UzgyFRpyHAfn5+fI5XI4PDzEL37xC9UQJ5VKodPpqPdy7LSuSPLT703+b+qmx3bDNMczp3u5XBpz7u+KvHT4xdlQ+AyCJOKgeAXXva72OBgM0G630el0sFqtMJ1O0Wq18Otf/xpnZ2eeeWT/92q1ipcvX6qeB+VyecMz3RyPpYrgQ4Ul93uAvvDTt6aTERc5+dmuNfMgkpGQRCH9lCR0/UHcZMGcTCaxzJG6oCErnwWRsZ8Z26Txcn5YXz8IlUoFw+FQLaj69fPTTqLOfRTcpcZuInWJYrGIZDKJ2Wx2K5vAJHjxmsl7jduYav/Lz6SPnaZ4vmSbU9mNTrpx7hscv1+QKOC9D1KpVCyLBvcprRl+QiuFtvsUfHYt9L6JsOT+QKD7lkxasfwbhn0IAab3coEwkVccjTeurzGIvKMcd9e+apZApaa4abDYrrCvhZkapmn+TFab5XIZO9grztgpaEg/u15Lnc8DO9M9JKLQ51PC9FzpFog4kN0c/Z7du04L9IOpq+WbjjjPhSX3e0DQjRpXEt8GcST/oGP7EWlcU/Z9IIiYJKJo7qPRCP1+H+PxeOtxxfUz6+/3SeymWv0SkvTpc2cKVZyYBj+fu/xemrL1lsS6z91xHE+MxUO4NzfxsWezWV+XS9g9M5/PMZlMVNpmkNVuV8GfcbCJS88SvxmW3O8Bflq56TtpupfQF8G4N7ifps396TD5PPm/nya0r8XBT5Dw+y5sX/sK/tP97aYFOexcooxpm/sgLkx1/IOQyWRiWTCizg1wo/HqtdLle1pSGCTGdK6HQOwAVB5+GCgobdP0hu2U9QJQ21rAgrDN/ShdN49BUXhosOT+RBFkvg8jjyjm1rB9P0boxLEpSLLSJ33X2sUm1y7ufveFoNiHTawSYQKDPK7f8d8UBKVx7hO7skRa3MCS+wNAlAVnX8cKOva2D8um0vYmVohdI0xrjmI+1MuG6prQvhejx7TYhRGqbi0yvaIijLwe07ztE7vQlu1c3h8suT9ybOOj33WqlB4NrX/+GExr0mohCd4UrR22Dz+z/D4RZ353sXD7abtxz1f3r4cJT34E70f2QXEhpv8fIra1JkmYzltu81jS0ILuwaeOsPvBkvs9QV9sTIuP/Mz0sIVdXL8bfdNArbjHkfsJ8udH3Z9pgY+6z7DjmRa/Tfaby+WQSCTQbDZjHf+uEHcB9AtqI3Qy9hMi9WslSZg+52QyiUQigcVigXQ6rfalF8jhPkyR8fIVJVBt1wJuXEQ9PueZwYK1Wm2rmvym63oXCoAJuvAfx7L1pgXTxXG3WXK/J/iZEvdpsg06ntxmW+3PL+d9HySsIyjyd9Njxvk9fZaFQsFT9lTH1dUVUqkUisXig12gdnEvBO2bwZiMTeDCvlgsVOCYHrsgwSh5WXUwLJL/oSFOLMEm98mu7q19uQfv0iX5piGS7eVNMnXcFUwSqp8GuSvC35VZPMhvz/9N0f2bwk9j39X+w44ZNG9+QppfeVVGeA8Gg9AiME8Jpmsoy6Lyf76Xn5tekshNv+f+HwOiCpBxn90gLe8+13Q/txX/6i+LzWA19zsCb1RZ0U2+Z6cs3e+1aRBWWKCcyUca9zz0z4hNiX3T9rbyM7/ziHp+cqzr9VppkH5WAzakiWoiXS6X6Pf7kbaNizB3hn6dgrTFbfyXfsGF0iTP3HPdyiPrwhOmwkau63q0dtk3wG8McixRxnwfCJv3XRBelN/rc7QrsjW5IrnO0S3Dyo58Lz+PW1L6qSHOuVtyvyNIMyRfXFC4SMnoai5ectugqGDdN+8XgMRt9UVeL+zht8iwipxcRE0dpjYJyPEbu75vP81dn9+4i4A+J6Zj69A7is1mM/R6Pd9uc6lUCuVyGZVKRdXr3udiFZe0eN2DBCh9v9K0rIP3CwsA0QzP+v90SziOg9FohMVigWKx6GluUiqVjOckq9JF7e73UEhch3zu/J69OAKXn6+cz5guoMvfmN7vKr5F3icmawzXFrn+ybXvoV6/hwhL7neMoKAVE+SDIP9GwX0+CLs0iUpLwz58f3Lh2kSTlZ9zYcpkMrfMxNyWDT/2HZEcJ/hmn9vxPEn0iUTCU0udxC9N8o7jeN6bzkkKxfK7IOHwoWt9JkFJv0d3hbjP6C6PbRIc9PdSYA9TbCzp34Yl9zuEnyZ8F2Y2uV2YWTuMyOJE7t/lQ7epvy7M58mFJU5f60wmo3zqpkV031rmJsS+KfkFjZP3CwUd/s+51APgSOryfmTpWP04umUraCyPgdgJP7LSrXNRoLv55H78tnsIiKLwWATDkvsdIIqfaJOFx09YkH/DtjcterqJMOq+9M82fQijzpUehCP/j+sfNM1DkHbhB5JWv9+Pnaq0qwCiuMTuZ8KNe6ygbegXl5YL3WTPfZHMed/5NROiCTdKI5iHHJxlmn8TwScSCaRSKdU2dxPoloG7JsptroE1y8eDJfc7gMln7vd/GKTUHqSNRJHuo5ij4yDqQv+YHtC4C6G81vP53OinDrMQbOon1/cdRUja5tpHnQ89TY2aOsldJyrdzO4XoKmTetD/m9xzQdpzmEAUZ16DrGRhY9/kXtF/t8/nMciPH7Zt3GM8VOHtvmDJ/QljU01sVw9J0H4eEsFHJSmTBYbkRQtHKpVCNptVUfT6fJoW1V3MhX6cfS90ccYcZjYPmqOg35j+hmHb7Uxj26fbY1N/sp8LLk6724dGlg9tPA8dj6PG4BPHXdy0cU3U+zhumNagB848JAHADwzqmkwmcF0XqVRKtTe9S2xK7HHvvbDApk2OtyuXFLHtfRNX099HvMkmMRN+oEviseT9b4rHsF7cJSJp7nbSdosgcx99krqP0PSZ3N+urpGJJKJ2mJPjN7Vr5HsZAU1fLMuFMoKa6U3UgO8D8vz1lDcinU4jnU4jn8+rVqP9ft+XbPX4gKDjbqJh7VNQDBvPQ1gn/GJI5EsGlumvOD584KZkrul7+VzG9flva9LXj6kLC1EFsV0IFruC6Rw2tWy8CbBm+QeEuEFqQTf2pouDn/82zj7kvviXZmsSt97DOpPJqIXy4uJCbe9XSnSXi0bUedStECQD5mTvcpGJqzlG9QXr+75rU6ef9eYuXEFhWC6XmE6nkY+RTCaVsLCJ4BPHnL/Jd/w+aJsgAt/WBx4XUWJE5DEeW/zOXcOS+wOCXwCRCWEPgn7jy30G+TflZ36BS2HHlceS+yIRLhYLpdlzexL5bDbz+KuDTJ4mE778PK4/NOx90L507S2dTgeWQY3SdnRTgg/bzvT+scRHREVcNxSL64Rpwvz7WLXGuO1uH9v5WdzAkvs9QDdTmxaJuJqAyYSuV4DSj89iInJf1EL0inUygpm/kRXldHLRg6gksVNr53lPp1PMZjNVkUz/vW7i1LU+aRmQEdlRS1WGae26kCE/TyQSyGazyGazGI1Gag4LhYLq4HUXvs5tTPP3Rex3SRwm4UcKr/K+M0En9lQqpVId45yH6Z7yG9eurSp83k3H2iX2aQ0yWRoeo5C1C4SdsyX3e0QymUQ6nQZw3WiEfudcLodsNotMJoN0Oo1UKuXRcv00B5JtMplEMplUhVRIdCbon3P/TE9iJDjHl06nlU9ddu/yy0Umsc/nc0ynU7Uo6gsYz1cGp8l9cFv5P/N+eR7pdFrtg3MWFRwn4TiOyr/msXiOcmyytjxJPZVK3WpTakIU33vchT6uaTPu9nGOHXf7bbCJcOM41wVyxuOxpza937zznkilUrfS96K6sjjnUSwE8v2mJmjdesfnnUIpY0VkOWlTjIne52Ib0zvrxXMu+dxms1nkcjl1rlwHs9msWgeDYo/eBMRxqVlyv2PICyJzfhlUxv/n87kiKhIsIR9S/Ub367TF40TVZOXDrgfAyeIhMuhN7ns8HmM+n3u09Ww269HOTdDPlWMwjVGOi2M2lXuN41LQLR+E36KWTCa30hqCzKQmAScMJvL2WxA20fAfsqYnr1GUca5WKyVw+rme5NjoY/dD3LnRr0vYwh31M7/v9RoZy+XS2JZYF3QB77OgC7eO4yCbzQaOQ9+/Xk+eawTXB9d11f9S8AorRWtxA0vu9whp4uaNyyAtSZx6iU3+NmihDvJ9B0HXQKTpUprsTY1j5G+4aMhoeAotLO4SNmZ9vFLrMfncdRN9XGLXobsmTPPDOdHN7xQ0wo7vFwsRZXxhv7G4ht+1pY9dFwZNmrPf/Rp3HFE1fNNxdklo0lUG3FY69LVDf974ue7yi3Jc00snewCetU9voGURDkvudwTdx65/Z9qG5u+g7SRMbRpN/0cdb9gY5Tj139CMPZvNPK9UKoXZbGYUTkyEHXQ++nzp/++a+OTCLAWH9XqN0WjkGfdgMAjcVxRNMcrnQduEmf03QZDAFMXMv29E1dh5D0rLFu89/Rzo/olbTlhH2PMYde42Ibcorh8gWsxB2D43hTxGnGfjTUKcObDkfo8IIiv9c9Nn+m+kMOC30MfFJtoJ/ZaLxQLT6RTZbBbT6RTHx8coFAqYTqe+RGDSEPxgEphM8xJlzH5amU7o/Ex/vwuYBKdtCdNPiNp2nA9l8dXdEH7bcDumu0mr2HK5VLXu9UZOjItJpVKe+3KTIMkgQg+6Jtveb0Hb6/OnKxTcRh+ntKDtciz6emZ6vi2iwZL7HcHPHMXvgn4X9JnJtCU/13+zzcNhMov5jQXwtvCU/jLHcXzz17fFLolWv0Z+0fdh10i3SgRpvrs2OW5rSn4s8HPP6HPOlrO8D/mefxlESexCGOJ+gsa9CcLuF31O/EzbD+Ge2MZq8RDG/xBhyf0eoN+M8iEMusnjkHXclqJxHq6whh1Su6FmJBcWxzGXwtynWXJbyPMKG6ff9fXbTl+Ew/anw2Rd2Cce0mIaR1iWZnimhVH45Pt9CJ1hVqFd7XcbyOfS9Gzy+yiWhrDjbPKdRXzY2vJPFEGmNWAzYvfbNsrvd/ng7srlEAQKMdTW/aKFdUTdLiq2uTYmbfausIk7Z1cwuWai7j9MECOidF0Mcg3t0rS+q99EnSNrGn8csJr7npFIJJDP5/H222/j2bNnuLq6wtXVlWebKA8LSca0qPgt3FF9bX6gtK4f0+QLC0IymcRHH30U2lDFT/OM4lfdNUxBVX5ChSQSPz+h1Hz2tTia/Oumc9kWu/LbA9djns/ngZYmPaiUtSFM+9Oha8l+cRrc1nR9TL8xHTPqPD9EcpR+br+4nbsaQ9zfvKkaf9h5W3LfM2gKnEwmyOfzkQhO/o2y/4cOx3GQy+U8ecImywGFlCgP+UNcICVc11WFTvT+5MQuLR4P4T6I4xagZYT5y2GQwpOJ3PVtw/7XxxI2VtPvN7VOPPR7V2Lbse4jhmQXFsingLDzteS+Z1AzabVaODo6Up9FgR8p7AumxZmLcNDCuM34Nn0gHeemWpiel7sv6IJJmNmbBW52barXYfLxx7HMRP2e78P8plGvqSyuFAZe7yBi37VVZNtr9RAErl1BXvd93cNB+w8TjN8UYo8z95HI/U2ZuH0jKNBKpuHIoJag5iO7HlvQ+OSDF6Vwhb5oR7kp/fyjJpIplUoqPenzzz9HMplEoVC4FREcVzsmQUR9iFg9y3QeUY4XhjjPnn7OUV01uka5bw2TAi//DzsOTfFR/NzcZ1RELSKk7ztI4PUbwzYC1z4FBT4vzBQw1WDYNFgzSswB1xQ9q0Z/r2cDWQTDau53iJcvX3p6fcsbXC5ezKuVr6gLGxHH/+fnWwe8ix9bsrJcJxdoalWyolvUMZsWjSjkOh6PVZGco6MjT11wmeoUtCjJMr5yPBwD92PSGvgZz1N2FAsSkkzgsUx+/biLahQztP69STvfF1zXVTnmUUBiDxI4NtXiohKw6brqbV7DhCr98yDSMwmzfmPaxbXSz4UWMb9j7wL6XHKdS6fT6t5gzXm5Hurlnt9kn3sYLLnfISaTieocBvgvJDIwK26QTlwhYJ+IImWHLXJ+YA91FslxHEeRe1TsY2GU8NOA9F72ftvK3/jhLq1q2x5LllQ2wZThIZsD7Qp+ZLmLudwF0ewyFiPqMaIeUz+uqejNpuOQgXz7sm49dsQ5V0vu9wT9ItEE5TiOp0lC0KIfhKi+cJPp3e97lujUzfI0oQUdO2gx0TUVqb2Y/HBhGlKU8yL8SvbyPMOIheeqt7jlddTN/OxCZhrrJvEL22jaflaTfUCaWaOa4sN87Nwu7Lim/4kobYFN18UvFzwqosQ7bLP/bcBrFeV41La3OZZ8hmStAd1UL+tkyN9bmGHJ/QEjKMCE8NM4ptMpWq0W8vn83sYXB36m6jCNSTdTRjFtxkEUQUGH3Nbkc08kEqhWq56GObsab5SxBQU/hvlz9zVGzkMUf34cH3tUAY/73ScZxCGdKMJNmIAcBr8xRPGDb3K8ONg0LmUTAfhNhSX3PYN9k4+Pj1Gr1dBqtdBsNvHLX/5S+aaB8DSdqAF1+yiiEqTd6OTM947j4OLiAvP5HCcnJ7FMjXcdUBQVccawi77TuzrnMC1w16SnW3sA3BKA/K41NXY/i0kcF0UUwdHPNbaptWyX2Pa66OcWVjdex6YCr8XDgCX3PYMEXiqVANwsdovFIpYvMZfL+ebI39eDJXvHm8YyHA6RyWTgOA5GoxEKhUKsc5YEcB/nuCvNZd/j38RXr2Nffl6aeE2BgqZjk9zjHiPK+KJYDaLsZxNsYiGKgij72ybA8C4R9fpZRMPDib56w/CjH/0IJycn6r1ubtJv5MPDQ2OefNSFbROY/MkS4/FYddgy/c51XeVj/uabbzAajWIHCUbZNoo5NEh71eeT72WwXFzC0felv5dzZCK+Ta+nTpT8a7KwhP1eH88m106SmnyZ9r9pfIlpX/L9pvsJQtQgMj/L1l1CWv/8GseYznefwan7EHIs+Xthyf0OEeXmW6/X6Pf7t/LEz8/P8fr1awC3F+18Pn+r13Qmk0Gj0cBkMols0o9rhisWi8hkMqG/0zV708Li95kfGRSLRRwfH+PFixe30mNMBGr6XD9nP9LxG4fcTq9HENQYh/v5zW9+g5///Oc7XZhM4/WbY7/f6/vyex9lHGHH2yVM1y9sLKY58vtMfh637sQ2578PYcDPkmDKJb8v4tSFvTcpKn4XiGQjtRLR5mD6z2AwQLFYRDKZRKVSQbPZVNvQbD+bzTCdTpHL5VAul1GtVlEqlTAej1EoFDCfz5Wpm6VcSe7JZBLZbFaZyafTKabTKVKplOrKJuH3oDCH3W/xkgtblIctmUyGltzdBLr/cDabYTweexatbX33uzKnmwSJq6srDIdDZLPZrfe/D+xS2Aj73C8rIiqksBt23Dhj3HbbIFdE0Hb6ttvMzbbgMTlGU8R6lN9HgSlGwGJzWJ/7nuG6LhaLBSaTicrHzuVyiphTqZTyp08mEziOg0wmg3K5jFqthlKphE6ng0QigdVqheFwqPz3kmQTiQQymQxms5l6SJbLJZLJ5C0rgKxEBdwQJVO/opZzXS6XoQ8vI5/1hXcbKVwP8GO+O3PeN0EcjTRsbPKv/A3PO5lMKncGx7vNfGwjhPi5BfaJuyYpP5dE3HFsalIPO862z8MmeCwKW5QI/sdyLncNS+53gEQigefPn8NxHDSbTVxeXmK1WiGZTCKfz3vS1VarFX7zm9+gVqvh+PgYlUoFn376KS4vL9HpdNDv9/Hxxx+j1+uh2+0CALrdLg4ODlCv1/Hq1Sv0+30sl0slGOiLR6FQQDqdRqfTAXAdrFcsFrFarTCdTj05rvqDI/czHo89AkaUQizr9RqLxWIrjVVP73v9+jWm06kiTX2ccaBrKkFEII8RllHA36fTaVQqFdTrdZyfn3tMoHdluiZJ3QWxy2PJfUvhRxdS5e903/0uFne5fVTzuryGYRH4fuMK+p28Fn5kvy8BICha3iTQ7NMXHwZL5NFhyf0OsF6v8f3336NerwO4vkEzmQxqtZpxAfjggw9USdXLy0t8/PHH6HQ6SKfTeOutt/DFF19gPp+rQLbpdIpXr14BAEqlEr799lvk83m8++67yOVyaLVamEwm6hgs60iNnib98XiM+Xzuyc3m+HXtf7VaoVAoYLVaYblcKnINe5h3EZU9mUwwm82wWCwwnU5xenqK2WymNPjZbHar9rfuJ5VEYjq+7OXO7XVT8mKxQCKRQC6XQzabRbFYxGAwUGV55b5Mvvg4i/+uECSs7GPhNAktFARN2+rCjsnf7XeMTeYzjul303tXt9wE7TvsPOMiym9oqfMjcTm3uzaV85pzHZHNhGTw3335/R8ywubDkvueQTN7sVhEOp3Ger3GO++8A+B27i+3z+VyqNfrmM/nmM/nyhw/GAyQSqXQ7XY9fvTJZKK2A4C3334bhUIB2WwW2WxW+bxd18VgMFA+e0bfM4hvsVgorV0GqZluokQicaue/F2BZLlcLlVKIRcFv8VHknmYGTTqd5wjHttU0Mb0uzArAN/vczHT9/+YF84o5vJtTN/675LJpHqe9V7zm5jgdZdBlH1ERdzshm33swm4b7/aEDaQzoywebHkvmfQr35wcKAe7Pfffx/z+dw3kp0Vzkhe8/kcvV4PrVYLiUQCw+HQU+2L2iotAp9++imy2Sz6/T6A6zQ6mrJfvXqlzOnPnz/Her3G1dUVms0mlsvlrQeMEn0ymVTHND2Em3TsikNgUf2kQd9Lcg87VhSzKBvGsIENrQnAbVMzNQ+5j23Kdu4S+yL2oDgLP2Fnk4Xc71ptG4jmN5ZEIoF8Ph+pdG3QfqKQ6SZxAUSU3/J5jhL4uA/wWWNTKr7kOmNxgzjXw5L7nrFarTCbzVAoFNRNnM/n8Sd/8id4/fo1zs/PPds7jqMC6dhgpNvtKmHg7//+7327lQFAq9XC//yf/xPPnz/Hhx9+CACeDm3U4pfLJXK5HFzXRaPRQDKZxPfff39rf6aHSzdvx1ngghZ8fhY2BrkvfX+TyWQrstjlYuJ3LjzG+++/j2KxuJMxbOpDj+sX3hRhRBZXyAtDFLP2ptr+YrFAu91GPp9HLpfbeQe1bc4xzn54fkH7eSjkuqv7502CJfc9wuSnchwH2WwW7XYbjuMo07j8npHxyWQSh4eHODs7U920er2e7/HS6TQ++eQTvPvuuyrtLpvNKvP5fD5HrVbDcDjEeDxWPvbpdIrFYoFcLuexCMQBH77lconJZKLiC/S50PcdVbvYZCymfWyiRW0Ck9axzyCpKFrqJj7jTTVI+RuTwBFXw9wUQYLeNuQYN889zr53hX2Y73eJuGtBVEXC4hqW3PcMauvyfTqdVj2K/W7WXq+H2WyGyWSCb7/9FsPhUPne/RZcptpVq1VkMhmMRiOUy2VPBHIqlUImk/F0nqNAkc1mlQ/Zb/EyBaLpC7Xfb6fTKTKZjM1ffSSI6wveZL+73HdUC5JuRdJJY9vx7NL6YXrWd0Vwcfzxm+IxWAUeE+LMmSX3PYOBZ8CNxpLJZG7lfuu4urpCu91Gq9XC559/jnK5jNVqhclkonLS9WC21Wql+sWzkA1ruwNQ6WepVArZbPZWFDyD9ObzeahmEif4hgIOI+rL5XLg74JM86bvZFStXJj9fLx+Y7+rALZdLmpx9rVNUNkmCHPBbIK4UeRRrnvU73eBbQSHKJaguEIABZsoY9p0fnb5XFnze3RYct8jgh7GKA/KyckJPvvsM7x+/RqtVgvdbhfPnz/H2dmZZ7GsVCoolUqquM0vf/lL5XOP8uDqhVeimI+DIq1Npt1PPvlERZfLNDsTTGMO8pe+fPkyMFI+Cu5y0diVK2IbX3VcjWoX87MP7TMKgsy5d+Ue8DsmjxtF+IsSjxJ3DHFSzOLOj9x3lGfTavK7hbWPPlDIh0KSrqmBCRcv/YGN+7Bs60c0jctUlER+b/pc34f+G8YRpFIpHB8fP8mAmjDLSBQt1G9udZKNch3CxhSGqOMJO9Y2Ju8grT9IWI2DqHENmwo6+jilG8wkEMvXpuONu608nrQMRPGxW4LfHazm/gjQ6/V8td1NAtR0BFWWI0HLvHYG9zFoTNf8E4mEivTfRzpLKpVSbo1CoeCb4mYK3IqzQJkQ9fd6RsE+hA+5gEYli12ZhKNAH9+mWnIUYWYbBAUjxnEDhF3nuJY7/Xis7sgUWhkbw1gZ13WRSqXguq4qLmV6TSYTTKdTD/kmEgmkUimkUikkk0mVnkZEeZb182dsDwB1XL6m06kq+BTVZeU413VAbNxOOCy5P3Cs12t8+eWXKJVKHq3dT0rfBaTmT2sB/fyO42A+n2M8HqNcLquHcTabeeIIer0eHMdRaXi7XpwLhQIA+Got8lyikp1uHg3bPuizfcEv9sBEoBKmxTOKprsLs/UmAmiQVif/BsVi+O1Xkvk23d3CtOKg38rP9GtnsqyQrFl9MZfLqUqT7ArJWBquE6xw2Ww20el00Gq1VE2LbreLTqejujq67nWNDL6y2az6n4G/pjghv/vDca6rEJLIAaDf76t6Ha1WC81mU/XTAKAEiiA4joNGo2E1fITf85bcHzgSiQQ+++wztFotVZRGwmTm3uQYYX5WRtMnEgnV8GQ+nyOVSqFQKKhcX32/rIb3EBBGBtKFEPbgcD+0augm56D4hTCEmSs38X3eB+KY1sMEKpOJOQqxBpERcDtNlX+DtHNaq/RrHuQ397OsSGLXfdR8X6vVAEC5olh5MpVKIZ/PI5vNYjqdYjQaodlsqv4Ky+US5+fnuLi4QKfTQbvdxtnZGa6urjCfzxWJyz4P8jNWt6QlwAQ/q8dqtUK73VYptwAwGAzQ6/XQ6/Xw9ttv47vvvkOn08HR0ZEKtE2n0xgOhypgmNYIvnccB6enp6pnxibux8eMOO4cS+6PAEEpc5vujya4XC6H169f4+rqSpnQTA8MP0skEkpjAKD2Q/D9fD7HycmJenB7vZ6nVe1dQV9wo2rlUTX+MM0vSLsL0kRN2+ljjIJNfbtRto9KYFGPFefcwohd9/X6WWU2jTMh0ejXLExwCbu+ANQzxmeR1SYzmQxKpZLqZcDncLFYKOJstVqqWuVyuUSr1UK73Vaae7vdVt0imY4rBRxq7EyZZepqkBlcn9PFYoF+v49ut4vxeIzpdArXddUYO50Ozs7O8P3332O5XKLRaGC9XquSvtzf8+fP8cEHH6DVat0SnE3PjoUXkcjdTtz9Qdc2g8zC6/Uag8FARc37geYvFrkBgOFwCNd1A7Vs+uW4+HBfsnwlF5xMJoOjoyPU63Ukk0lVOU4KBneFqOQYZD7WNSx9u7gm2rCx+h0nym/jfhdnbPdlBQCCfeP6NkHf79KFFQd+xE6hmT50Ei+Jldo062MwlZZC9XA4RK/XUyQuyb3T6ahXt9vFZDJRPnXuS45LP4Y0lUe5h9ifotvtotvtYjQaeczy/X4frVYLZ2dn6PV6KJVKyOfzSKfTKBQKKJVKODo6Qrlcxo9+9CN89NFH+PLLL1Gr1VQbbLoILIJhNfcHjjCtT2I+n+Pzzz9HpVJRv9U1i10salwYAKgAHEr26XQauVwOjUZDmdl2EfyyC2LRfawyjgDwamPcXh5ffqb7bRmUKLu/hZG+ydysB+LJbTfFpubxIC0zjCCDrD9+24fBT1vTTeNB++Qc8+8m96buFtBN8Sb/ud9cUsBmV0a2Q85mszg4OECj0UCr1cLbb7+ttF9+v1qtMBgMcH5+jlarhU6ng8vLSw+5X15eqnbRtJ5J4UAvKkVBIpfLKeJPp9O+LZrlHK/Xa4xGIyVsdDodjEYj5SaQ5N5sNlUPjU8//RSLxQLlchnlchm//du/jZ/85CeqZPef//mf3zputVqNfd2eAuII6ZbcHyjeffddFZTyf//v/8Xr16+xXq9vlXUFzObcwWCAr7/+Gu+//37kGyLKdtQyWKOeWgDBhYE+waBqdnGxrfbJxZSgpYILlHQv+BGR7lMnSdCCwYwCvREG4G0mw78mUgoyd0eBHPuuTfGbjCfOvrfZh59bQ/qvKYya7s04Y4h6X8eZz0qlgkQiofzhdMflcjl1n7Ke/WQywWAwwNXVlYfcLy4uMJ/PFbmfn5/j6uoKi8XCEyhHDZ3PMUFSj6oZ8/xWqxUuLi4wGAw85D4ej5XmTrN8t9tFKpVS5/v3f//3ODg4QL1eR7lcRi6XwxdffIFnz57h5OQk0jgsbsOS+wMFH675fI7ZbIZSqeRJNZMa3mw2U2QKAMfHxzg5Obn14O4K0ixGHzrfc9GQAUeJRALlcvleTbpREGV80jRP4WvTfe0L+3SjPfRrSIS5NKL62vfp6tCtHxQOM5mMCmRzHAfFYlF1IKQ/ez6fYzQaKT86TfLSLE/zONNWqa3rpnd5/LCy2Pr5u+51UarRaIROp6PInWZ5Se4cNwCUSiXUajVUKhXkcjnUajXU63VlpgfwYAJxHyssuT8CuK6Lg4MDJJNJ1fZVmqnn87mnj/jR0RGePXu281xQ+ty5ABFSI9a1IhJ8qVTCZDLxlLu9awTFK/D/OOZ/3TzL/03peX7/7xJhQYDbbv9Ysa+534WbSN+HfL74TJHsXNfFfD7H5eUllsslxuOxioKXL5rB1+s1hsOhInPdXy/jX3gfRLVocHvZ0IrkPhqNFLkPh0M1HpJ8Op1GtVpFrVZTpF6v15Vfnee7L+XkTYEl9wcO3YQrfXj8Xz4QEnEDsKIuVgzyMRGDXvgCwK00OVlrP2g820LfX9j5bht5G+RXj7p9nO/jjOupkHgUAW3fxwO2q+bIfepplMBNkRZpiTOBAXLNZlOZ5bvdrscs7ziOxwwvc9j5XvelRxVuaRkgmfuRu9Tci8UiKpUKGo0Gjo+PcXh4iFqthoODAxwfH6s4nVwu92Tu1/uEJfcHDD9/bJip8De/+Q1SqRRevHgRun+pcQaRW9ADH/YgmkyPftHgUQUOP+KOsyjsOtDwvhCX3Ezb79PXfl8IOydT7EPcfXCbKIJaUCaEaZ9RXQJ+sRubIij+I85vd7Gdxeaw5P7A4LouxuOxCqIBbvzawI0JXJq3qQEwuG0+nyvp3bR/03vdjG4Cv5M+5zjnxOYuelS4vm1cd4Isgxt1oeXvgiLZd7UA+Y0pCvnsWnuPY0XYtfATRZC4T7P5pkQWNKf6HD4mUntMY7W4DUvuDwyu6yo/GcldT1dhxSgSpOwPTxMcK8np4G8YlEdy0+vD69CjxJlGFETUPJ/1eu1Jw1ksFsbjcJ9xc1hpDWCK3mKxiFRcRgYmRhGEgNvukW1w15pwHO3S9D5onw+BCO5qPuMcZ5vMhX2MJ+44gvYtrX7b4CHcO08Rkcj9sZnjHiOCFtKDgwMVKZvJZG6lw1WrVZRKJWQyGUwmEzx//hz5fB7tdjv0uCzxyFrtsvqTft1Xq5WKEF8ul8jlclgsFioCVj8fpuNMJhNF2Hzvh0QigYODg1CzpBxbPp/3pJzRV+nnU59Op1itVsjn81gul0oYiLtom/4n9P1xPnRLQZTFc1fYViiJY4HQt92VlSKKsGGa9ygwkZXfb2Xhpl1DnqOpGtu2iGrZ2uT8/CyDcX4T1zJoYYbV3B8YHMdBvV5XBOU4Dmq1GobDoW8gmiT3fr+Pg4MDpNNptNttNBoNDAYDT/clx3GwXC4xHA5RKpUUUQPXEa3JZBL5fP7WcZbLJRzHUR3qZKqKieCBa5KbTqeoVCqq6QWjZ01IpVKxG0MwAEevke9HLrRosMSn/n0YdNeBSRAxCUnSrWHap4n8d4Wofl7TuEz/873fvAUt8ptomrofOCgWI06MCnBTeIkCWRRBJIplSP5vui+DBKUo49Z/w33yFeZeiwur5D0uWHJ/gNBJqVwuK5N1Npu99ZDVajVF7iwEkUgkMBgMsFgsVH1nuf/FYoFer6fS09brtarrLCvQSVDgSCaTqj61yUcux7derzGfz5V2zBQeP7BLVRz4Re7r4DjZMtPkGthEu9UXZFP8gtxvnADEqMfedps4IHFEDbzc9vhRtMFtiWdfQpV+jKify/HsyvwdBVE17bjXdFOrmMXmsOT+wOC6Lnq9Hmq1mspBZT1lP42X+aFsMFEqlZBKpbBarXB+fo7BYOD5LQvjTCYTnJ2dYbVaIZlMeopKBOWYrtdrZDIZ1Q866FxWq5Xq40wTfpBZnsJL2AIiyVIGH/pBxgpkMhmP5sXysfrYTeQfZrrVTah+52BKgdqHGTIs6Cvod5Jg4u5HXj+/ffhZNvz2p1s2ggg5jvDB4NOoPQ+izoE+h1H2qW9vshCYotlN5+u3r30KMtaUfncIu4aW3B8IZMDa4eGhR/s7ODhANptV5nD9N9TcU6kUxuMxZrMZhsOhp2mEJPfZbKYId7VaIZfLIZ/Po1AooFgsolAoKB+8DhatMAXryXHxxmNP53a7reIGgsid5tEwstZ97rQ0mBY43SRfrVaRy+U8rgTTg6IX3IlCPMvlUsUxSKFBFwakT14nLZO/Oq5GvG2ku59wFcdUrG8bZCaOs88wQtP/9xMW5XXYh1VFjjvO52EwWTJMAqrfMeKSO/fvt899CqUWXvi5Gk2w5P7AwKpShUIBs9kMV1dXntrSJtRqNbXN4eEhptMphsMhBoOBeklyn06nylTOWtUsnCH7OEtQC9ebq/A74LYmxsp5juNgMBhguVwqq4GuObMqVyqVwm9+8xvV2jKfz4d2uQsr+CGPw6BAv9rgm5i59QAov+2i7i/sGHH2t42GFve3uwyCinu+Ua+fSVAyCQ1BFoGoYwrb16aIen31Y5vcRfo1s6T6dGDJ/QGCfZxXq5XKeZdkqxNTuVxWDUtqtRpevnyJ4XDoeelmedabll2iZNUq3UTpF03u99lqtVLHYRAdBYrFYoHlcukRCpi+57ou2u02VquVGmMYuUszu8n/T61GWht0Qg4i2CjSsi7wmISHu/Al7orY9f2ZCDHMNRFljBK7INRN3RB+oDUmTp1znTjDrv1DI1TTePziU7bZp8V+Ycn9AYGLAVPd1us1Dg8PQ3+XyWRUmceDgwN88cUXqr0iX9IUTh97tVpVWnoul0OhUFD/y3rWJEa//HQ5fv4dj8eKzOfzOabTqSJ2kj63T6VSW7VwzOfzitylEOS6rkp7010JYX5NfRv52S5MnSb4+YnD4hpM2+1TkDBpyaZ5iUu0QeOPSg5RffC6qdnv97PZTMWnsJVyEKK4SoLmSsc2/SE2vQf85v4uCXqXVqCnhDhzYsn9AUG/cJlMBo1GI/R3rVYLg8EA3W4XX3zxBS4vLxWpDwYD9Pt9Ffzmui4KhYLSzknmbPVIM70MbFsul74NX3STJkl0sVhgOp16/p/NZuo9iTaZTKJcLitT+SbmVUbYm3yr2WzWGIioa9lRG9pEfbji1h73O+8wgtynv9MkOPgJMSai1zX7KEJKmOAUZD2K8p1pG97/YXEkpv/9tgkSTuJcsygCiN/3+rNpgmlc28QIxBGI5X7vwo//psGS+wOG4ziB5kC5iFITmc1myjcuA4boK5cEKBtX6E0s4pikTSBZ0kRvCh5zXXNEepiJXF+E4i4cUXFXpnSJqK4P/ftdab278r9uuy8KZFEj2P0QRFS852X5Zn17VorUU0PDNOpt7rltEEfj1a+Pn9Dm9wz5CU76mhH2DO7C6mVxG5bcHzF2Ld0GkWqQH870HevfcxEF/AUFms1ns5nH5y/bXgaN8S5g0izimJvjRieb/g8ai2n7x6z9TKdTo2Ab120RFY7jGCsbsqSz3j1tV8fdBRgoSoGasSuSVPX+C/K7qJq6VCLkcU1/uY2cV7aTZalo/XUf5v+nDEvuTxjbLPQmQvIjKD0il8Scy+Uwm82UW4ALkCwVC1wv5HQblMtl/Pmf/zkKhYJ64HXTZBSNYxfwMytHmUs9jz0I+n7DUvT8ahBsS+xxxnrXmlbQcTcdix/Bme6pKG6iIJisK0HacFS4rotWq4WrqysMh0MPmZoCZvW+7lHdPiT2yWSitl2tVhgOhxiNRhgMBur/0WiE8XiM8XjsiacplUool8uqd3u9Xvf0dS8UCsrFZgl+e1hyf8KIspiE/d7P1KYjaHGgFk/J3YR6vY7ZbAYA+PWvf40f/vCHKBaLscYbNhbT2KLsYxeLcBC4r8VigdlsFrrgcp5SqZTKJNiE2KPcEyZfeNRzD/OjR4W8D/3GG7Q/SeKz2Qzz+VyR4GeffeYp6xxl/9LdJT8LOs8gYVk3S0u3lWnfugbdbDYxHA6xXq89z5jjOIrcSeaMrZGachDksUajkacpE8l9OByi3++r/u0ke6axsvcDn+d+v48f/ehHODg4UP3cy+WyGrsl92gIe4YsuVsA2EyzD8N8PsdqtfJdTOTNyfrwDL4zFX+Jq6X7bR8nAjnuvCyXS0yn09hRznRNkHh06OQmTdb7NMUHXbNNfu+3jb7fbDar/Nxhbgq/ffrNo252dxzHWLCI28kgUdZjMB1P/p/NZlVnxsVigUKhANd1lftJ/42Oly9fol6v4+TkxBhjIt1d0+lUxa/IUsyO43hiBai1J5NJo6uMmM/nWK/XKBQKaLVaar/FYhGz2eyW5s4XiX06nSKVSqFcLqNcLqNUKsFxHBSLRUynU/T7faWxV6tVFIvFW0KJRTjC5smS+xNB0KIXZsrcJAAHgJGAJbgQ5HI51aSFgUsyyA6Axy8XNnb9+yAf9D4QNCYu3my8EzVYaLFYhGq4+qIdpXDPLhFXsNoG+Xw+VjBdVL+xCWHnRYIeDAYqsyMIiUQChUIB6XRaEW+5XAZwQ5wcmyyLzNoQjuPgl7/8Jd566y2USiVlzZnNZqpPxGw2U1knDJZNpVIeUzvbJ3OfLBIV1lNhPp9jPp+jXq+r8tS5XA7Pnz+/pbkPBgOMRiNlkmfVy0qlgmq1ikqlolIIS6UShsMhFouFMs2Xy2Xk83mPsGrJ3R9xnsFIq4Od7IeJqD5x+X2YedMPuvbgZzLUf7NYLNDtdj0950ulkif4h4RP3xsjpSVRmnyjYX5RGVQU1zS8qc86n88jlUoFdr7Tx0BNjtq7XylRLsq0hOza7x3F17ztMaMKlZuQsuk6+z0jPFfeI9R8TXOQy+VQKpXQbDY9xGnarxS6qK0Wi0Vks1kVU3J6egrgxg3DNFYSZK/XQ6vVwueff46/+Iu/8DRa0t1kbIDE54vHIRgIyCBVqbHL+ZLzIuem2+1iuVyqFNnFYuHJhJGae7/fRyaTQa1Ww+HhIY6OjhSBA9fk/sknn+Do6AiNRkOl5PJe9huPxWawmvsjxbYkvclv5XH1ffgRQzabRblcxmg08gT06KDWwb+j0Qiu60aqDOY3F3e5MMhjRc1xp/DCuVutVh7NSEcymTRq65v62KMQ96ZkHuarj+rrD/osSGDTfdY8d5r7md7WarVQLBaVhqvPL9NLSbDUOCeTie85yF7vqVRKRdwD14IZ+zbM53Mkk0lMp1N89NFHmEwmGAwGaDab+Pbbb+G6rqe403w+x2g0QrvdViTNMcuoft5P1NYZ92Iqjezn9mJPiMVigVQqhUKhoFpHS82dwXPD4RD5fB7lchnValWRe7Va9ZD7wcEBTk9P1XNuiuy32A0suT8hbGpeB+It4lG3JTFTM2dQj140RgYC0eQcpHHL84gSaKWPdzqdYjwe32rEE4Y4gT6mLnP69yRzqU1Rg5SQ5ts4ZVB1PJTFc5/jMFl4JJiKxYjx+Xyu3Eam+1r3b1M4nUwmHsI0+cX5l6le1LClu4HXP5PJeO4F2alusVjAdV3VM2I0GikS5/j5bHHfktyBG3dXlHuY9+FoNFLPKbNdhsMhXNdVArosZV0sFlEul1GpVJQVTif3crmshBv5fN+nYP6YEGdeLLk/cuzKzB7nWFH3Td/6crlUWjkXLy5YBLUP4HoBrVQqavGVx5daCY8VV7tkZG8ikQhsbSsR1YTP7cIC6ugHlUWGSPgmUCgyjeuuLRRx7wNgv2ZWP2KI64eXGqQcL33VLOHM7xgEGmU8tLrwOlJg4GswGKDX66HT6aDVaqngyul0im636yF3aus0w+upbvK4FFrCotD5Oe/D9XqNwWCgSH4ymSCdTuPi4gIAUK1WVT8LPrv1et2T5tZoNG6Re6FQuBXMZ4l8P7Dk/sgR9GBENWNGMYFuYp7V/Y9SUteLgrCzG02n1PajaKpBi3XY+Dfx7crfSitEmADAuaYpnjX7Wd53uVwqgYigVic1S2k6HY/HKBQKO1kgo2p1m+wX2H4R38U5RnVLSQFBbnd5eam0ZcIvqJPabL1ex2Aw8NR3oEDHvxcXF2i32+h0Ori4uMByuVS5491uV/0GgPJT0wKRSqWUu0EXVvk8BZ2vJPbxeKzu1U6no4QMkjt7QnS7XTiOo+IRaG4nuR8fH+P4+BjVahWlUklZTPx8/ha7hyX3NwAm/1pYFHcUDS1Kupf+APs91Lo/kFG1NDXq5+BHRNtq9ab9BUHvBy4/N+1H19K56LE1rh4oFyY4SH+y6Tvd0mH6fl+I42OPik2EDz+/fxS4rqtSOjnXvIbT6VT57/W55HFYxCkMsqkSs0wYPU/rlbw/ZJ4900z17oZRhCpd2GHAnOu6KBaLGI1G6h6dTCbquLxf6Z7QO0tKS4IULoJM8Ra7hSX3NxDbEh4RxScu/wYt9o7jqMWsUCgos/UmXbF2pSmGzZP+PdP9ouxXN8fL73QBJooFwrRt2Pbyr+la+hFWXJj2GwW7uE9NRBLXxcJrwpQtbkNLix/m87myuOgk6heDIYVFkqjMLPEryWt61ja5/2lNcl1XadzATTlpKdzwmWWsgCwjSy2df61P/e6xeT9BiwePKCZ7nVhM/5v2q2vaQcFIUR/k8XiMq6srz9iDNLG45BuEIJNllPNwnOs0Jz8fvum3QVH1cYktqnYW9n2YMBAX+r6DXBxh5xBF44tyr+lEG3Zspnc9f/7cWGOe0M+t2+2qts1RLA7yBdzcH7sQsOLAdJ0YeyCfPWk90HP3ZUxB1GfIYrewmvsTh+u6qpgESZiBLbVaDY1GA6VSCaVSSQXAzOdztNttj/YwmUwwmUxU8YzJZILxeKy0CkbArtdrlc5F3zn7x89mM6O5mrnwwLWG0G63kc/nkc/nUalUMJ1OVSGM4XCoUpGWy6UnVWi9XqPb7apSllHhp1WZFqKoZk8GMOlVw/iePlJZh5/+U5pldReGNMPyPQum+I1RR1gcRpCGaXKvhM2D3775m0QiodoLcxu2HJZzw4jwVCqFVqul7pvxeIxWq4VWq6WC0UzV5ojZbBYrpZD93IfDIZrNJt555x3lRgGgyioT/X4fruuq8Q6HQ7x+/RrtdhuZTAaVSgXPnj27dZzz83M0m03lc6cGPZlMVL11v3FzrvzuedZRkCl6JncOv2McSCaTwcHBgVoTWLp3PB6j3+/j6OhI/f7i4kLl71s8DERaAe9CWrTYDxipKkEyr1arqNfrnoYOzKUdDAYAbsx0bO7CxW4ymSizo+yaxaIaXJQSiYRKlwnCZDJRi9NwOFTFXOhjZCGbwWCASqWiInXPz89xdHTk8UWGQS5oMq88DjmFgfOguxVk1LTum2S5Ui7GBAMLqQ3Rz5tKpW5pe1HiDEzxC6ZzNJF2kHUnCsnL38iUNPlbWQ89m80q8mLAF6v/MTKcguB0OkU+n8cvfvEL1axIljLmXC6XS1XpTaZdmsD7jNeTBYQmkwkKhYK6T3lu9FmPRiNVVjWZTKLVankKtugk2+l00G630W630Ww21TMng9B4zXXhRc9E0UH/OM3kbAttAivLua6Lq6sr1Ot1tY/hcIjVaqXWjnw+r37HZ5558H6xKBZ3B6u5P1Loi1EqlfKk5pAE+HDKBb1YLKJUKqk81EqlglKphGw2i16vpypOAbfJfTqdqhQdx3HUwktyZ5AY09+oubMMpw4uALIZiiR3ahv1eh2JRELVrubxxuOxEgK4Py7WUXyrUuiI66cMcg+QCLgdBQ8GH5HgSW4kHQZWyfGwprmsVW5a5PeBqPNhig0I+q2sqiYzAfROZrJ7meu6qiwq54WCnyT3ZrOJXq9nFHw4z7xPw5BKpbBer5UgSxLlc0HfM8HrR+sLBdZOp4NsNnvLykJ0u10VLT8YDDCbzVTGiG7eNo3Rr7oe4BU09XK3pn3VajVkMhmMRiPUajUAULnsUijp9/sol8sq1oQvk4vB4u5hyf2J4PDwEM+fP8e3334LAMosaFrAWBJTmuUzmQxev36NbrerXsD1Q7xarTCbzRSxclGt1WrI5/MoFApKiucDXq/X1WLMAJ0oYH4tTYBcIN566y2l4QDAW2+9hWq1ig8++MCziPgt2Nv6+qL4TCX86qKTvGiGp2ZKiwgb50joxVKY+mQ67iaBVHEFGpNpP8r1ldvI/Gzpx6bAyPuX89Pr9QBcW6Ko/UrCkwRIzZOR5vr9VygU1Bz61Vk3/U+LVTabRaPRQLPZVOfA86PwNZvN1OeTyQTtdhvZbNYTpEZN2nEcNJtNXFxcoNfrYTweq/3K+g/z+RyDweBWXAcFW13Q0M+Jx2WJZObMS8tGt9tFJpPB8fEx/uk//aeqSh1dYHStrVYr/PVf/zV+8pOf4N1330Wz2VQuFh5PdylZf/vdwpL7I4b+wNAURmnbDzTLy1ru7XbbQ+wkd+Cm09loNMJyuUQymVR+e2pNktzX67Va2GiWDyIAqQ2s12v0ej1PZS7XdfEf/+N/BAC89957cBwH33zzDabTKcrlMv7JP/knHhNhEBKJhKprPZvNlCUiyG0QdYGiX1Sv760f3+Rj5yIqU58I5v+T0IrFoq9WtO0CKs8xiCg4lqjamYwXkOcvrT7cdy6XUwSUSqXQbrfR6/Xw8uVL/OxnP1N+bZIMY0FoUZK12ONCP2fZBQ0AXr16hcvLS2VdYLQ450SSO9ueFgoFtNttpNNpfP755/gP/+E/qHkmudOXvVgskMlkcHp6qixafJZqtRo+/PBDj6Dn91zxOxI354W9GviZXkyKMQvL5VK1Y+U88N6kxv9v/s2/wfPnz9FoNPDZZ5/h888/x8cff4z33ntPuSNMkfIWu0HYc2fJ/ZHCpD2RdMMgfe5cHFnWUjaCkAsW/e2yjrXUrKRZnm1eufhyAQu6GXWCp6+U6UYk3+FwqAKVFosFjo6OcHl5qchCnxPTMem71E3ypt+Z/NNB50Jzs/4ZAGWWN/nYSez8KyE1OBOZRg1o07ELQSDOdvLc9ZgDOSYWNAKg6q3z1ev1VLAnhVnOnzSHR4U+B/r11bNJqCWz94EkUEnuFDRoiWm1Wsjlcqp869nZmTK76/EqdLnwXpIdE2W6GeEXZ6LHNySTSeU3J/ReBplMBp1OB4vFAh999BGAaysg27VKTZ9V6AqFAtbrNWq1GiqViurbbrFfhD2/ltyfEBKJBGq1WuhFLxaLKBQKKJVKeP36taqExQXUj9yBG3MqzaaS5IEbzZ2+dunrMxGTKViLCzYXyHw+j2KxCMe5Lm7DSlnpdBqNRgPn5+eqUhZjDPzmRyJq4FkccLE2BalR2yWpkZAksUufO3/HYj7b+tijmEY39bEHHZPbS2KX5C5jEzg/LPcq70kGmEkhh8LjarVSvw/LcpDQiVKO2STg5XI5uK6rrAWO43iERKm58/4Fbnzu6XQaL168QKvVAnBTdpkBpYzFkAWcZJXH+XweaBnSz0OPwWEjHB5bL+9MX/tsNkO321X91pmBItPfgGtrQiKRQKvVQrVajVzO2WIzxBFcLbk/UpgWpGQyaUyz0cGFkab4TqeDTqfjMcnTx0lCWa/XqNfrKBQKSjjgX+lzpybD3xNcfKWmY4L8jqZKPXocuIli/vrrr0PdEFG0HL/fRHmYqG3SeiLJin9lTID0sTPFaDqdeoiBv6GPnYumTjz6WIMW/V2aR6MIRpIcmd5GwpLCofTTcn4YWDYYDNDpdNDr9TAajdSxg9wBUWMCHMfByckJAG8lQD+3RCKR8MRD0EogLVPyGvLFpivdbldZL2QRGN3HLueKn/He4v9B0AMbOVZmwPB8GUsjt8/n83jx4gVyuRz+4i/+Av/6X/9rJay6rouDgwOjcME0OL+AQYu7hyX3Rwq5cDKSPJFI4OjoKPS3XDQlkff7ffR6Pc+L0b7pdBrFYlH1dKaPnfnH0udOU3wul8N8PlfNWQ4PD9Hv91WkN7Udx3FUg5jxeOwJfqLpdTgc3iq3yaAoE8npc0SQ2E0Eb1owo5CHNJMyHkFqWjqoOdHEyZeuxRPSpB82rk2wSaBTnOOTzOi60XP7JbnzevO+lKb4breryH2b8ehg5DstC2FzofuoGWzGz6R7gITa7/dVjIeMKKewq6dGykBDk9tCP+e4Ah1T1gDzs0CXwR/+4R8qKxljVQ4PDwML+WzTtdBit7Dk/gTAh59EGQZGG8uGJaaX1BxlRLKsQCXLTHLBkWlG/E7v3UxILYw+dl2bYMoRP/OLvo+qsfnB5E8P82frpn4ZlSx/J/cjO2/JwDA9P5hjMWnru8I+iF0nHv3e0VO8ZDMR13WVgCPvReaP64hiiZHzGfT7KKlxpiJM+j0srycbr2SzWU+jIHldg54reT/53QdRBDQK2dPpVO3X1PKY7oFEIoFer+dZByiIRVljLPaDOM+rLT/7SCHTTOT/QdDNmTJdxfTyW+yCTKJyfKb/9X2wop1cuJi7HjZmv7Hp4zCNN0wr13+zKbHGOTbHK//G+e0mY4uz7a6OrZ+j6W9QXndcRB27TtSmVxBM5nz5HPmdzyYCk/w/yhxls1mUy2Xl9tBdRwQj/A8PD/F3f/d3yvdvNfLHB6u5W9wCSZcSu0nDBG56PxP0C9I3KbWRZDKJYrGoKmRJ0tX3Ua1WPYFl/NykReuLk07+0vypw69hi/wdrQ1BOcREUM60rnXpGqBfsF+YoCW3DYOfoBOEqNvGNe/7XUNdYOV7mesfB1HHtY3wRsjj8L6n+4i+ep6T3/F0QSDonE33Pv/K/ZfLZWWpk9uZrB4nJycolUpqH3/8x3+M9957T1WDlOe9yxgOi93DkvsbiCDt13VdZLNZFXUu3zcaDRV122g0VBpMKpVSwTpchAeDgfLtzWYzVYdepsoBN+k/JhMhtQxq93QRhBGUbso2bc8gL7nosga8NA+bfN67QFSydl0X0+lU+alNiLLIMh/blEplOm5Ul0aY24LV3Rg4xshrKeQw+NJ1r6Pf+/0++v3+rRQ4Blb6WTXkmII67emCVhwrFMfM2uvyO6aJua6rCjAR0rVguhdNRM35kII2q/lJ11RU4YX7SiaTyOfzt1I25b5yuRz+6I/+CF999RXm8zmOjo7QaDRi9WywuF/YK/UGwW/B1heHTCbjaQTDrlhMe8nn86p0LX13LFfLXNzBYODJ8x2NRmoxZNAZg5n0MTAy3HG8aUZc3CSinI8J9GvyHB3H8QQKkZSY/sNjS8uFCbpmFlcjNG1Pv63JkhFUfIcCCs+Bv49SWGRXJnjOFf3lMpiSef6TyUQdc7VaqbRMWXOB+dl+5uGgYEk/UHAi/KwDflqq/JzXgvEhksj5nSRquY+wMTJQk8eSfvswyHuR14D7M2WZyLoVH374Ifr9PprNphLwrbb+eGDJ/Q2Frs1Kk16hUFBd2IDrB56lalmHvl6vI5vNKs2q3+979k1yn8/nqoNcvV5HLpdT6WIkd73IS6lUUuUxR6OR8skzMM8PesyA/EwGbgE3VgH5mSzXS5KRi2qxWMR4PL5VZEYfA3P8oyCq1kULiDw3Rt77aXCu66Lb7apFnP7TOAjTkuMu9svlUlWYo+tGJ3dma5DUu90u+v0+EokESqWS53w3MdVLyBKyshiTfm4kcqlB83OOh9eIQaHMFqFlShK7yYJAyBrunB/mmbuu68kaoIDE/4NAwWcwGKBQKOCdd9659f3JyQnG4zEcx8HHH3+MZrOJ2WyGTqeDd955xxhXYHE/CBPuLLm/YZBmZ5pquTicnJzghz/8IZbLpScnNpfLoV6vK229WCwim82i2Wyi3W6j3++rohzEYDDAaDRSCx7LrKZSKVQqFaXFr9drtWhVKhWUy2Vl3pQ54fJGljnzXDyZDyxzg4EbgcEU1V4sFvH222+rCmeSOGVXOn6m5+77QS7aYT7WKDD5pDknsqqZ6fjj8RiVSiUSCepkFgVxTMPANQHyXmG+tGwqtFqtVLlZmec+m808+fByzLTCcC7k9zIDgfvn/cP7Tu9g5ufLBrwE6jgOut2uIkMZHU+rlUljl0KCfHHssiAPcF0mlkWcmJLWbreVsKfHrMhro79fLBZKUGeJW8dxcHV1hb/6q7/C6ekpGo0G3nrrLTx79gy/8zu/g3a7jfPzc5ydneHo6Eh18bMEf/fwi/EwwZL7G4hCoaA05GfPnuHbb7/F2dkZ3n77bZycnKDVauHrr7/Gj3/8Y3z11Vdw3evGLalUCvl8HslkEuPx2FPZjmZ5Ljb9fl/lrbPq2OnpKUqlEpbLpSe3OZFI4Pj42KMRkaSr1SouLy9VHv1wOFRRv8vlUhU4IcnL1qjAjVtBzyUuFovI5XIeIeLg4ADtdluZU9977z3VHpRjjQPTw+cX6xDVnOy6rqffu+u6+PnPf+4JPKNwk0wmsVgsVDOQINLSj+F3Pqbv4iz0NMMzlsOkudMSRM2dwtdoNML5+bm61wgpgDHlS3ZIlGAVOFNKnikWgVaj9XqNXC6nOhz2+31Pu1d5fiR1muZNpngeZ7VaYT6fq3uR997Z2Zk6t3Q6jZcvX6rzK5fLqoFLIpFAp9Mxll+W4Ln+o3/0j1STF8dxVEXLfD6Pf/7P/zn+4A/+QJ1bo9FQpYATiQSq1apyi1hif/iIRO72Qj4t0PxYrVbVZ6lUCh9//LGqQNXr9fDee++pwjPHx8dqoWJ3Kt0nKsFFmb7sTCaDUqmESqWC0Wik8t65OB4fH3vym/l9JpNR5Wdpni4Wi2rxnEwmSkuilUA3VbPedbVaRaPRQLlcRj6fRzab9ZjPG42GCgJ0HAelUgmdTgfz+VzVyvcL0LsLkNh1k/Dl5aWKC2CFM1Y5YyvU9Xod2FxnV5aFMDA+g1okNXeOge4QumQmk4m61sPhEM1m0xMEyUY9sk59LpdTwhzdQCbrR9A5SOsHyZrNjNjljU1YZKAjszz8fOzyePJeovWMhM0c82QyicPDQ7TbbRXgKQUK9pb3ExolEokEPvzwQwDXQgj7S1C4+eijj/D7v//7eP36NdrttqoRT2FEf2/xsGE19zcYXHTee+89vPfee+pz+th//vOfK4ndcRyUy2V88803uLq68vhG6ROVvuBut+shmnw+j36/j9VqhUql4tHc2UN6NBqh1+spX/J8PsdwOMTBwYFaZKMU0JBmT/mZvg3rhMt0N+mHZzEeavkshaun6elzGmfhC1r49QV7Op3i1atXePHixa20xE2PJY8ZhDjnFGQRWC6X6Ha7cF1XxTjIoDaWae12u6p6n+xIFgY9roLj0YMc/chc316a7eV4CF17l0V3/IhdjoHHocsnmUyiUql4xkrhTL7n+aVSKdUsSn6ug4LQer1GpVJBLpfDD37wAyUUlstlfPrpp7i4uMDp6Sk++ugjz9hNga8Wd48482/J3eIWCoWCqrkNXJvIS6USms2m0pRev36tatL3ej10Oh3lL6T2wah7WYOeL0nuXLTZdGW1WqFUKnnqc7OQBs2tppde6Qu4XUSEYGBXsVj0aEPU+tgtj6lH9IOGIarpW4dckE2CCbVydudiExVaIeSxpOnUdO5+x7kLzOdz1dWNgpSuuXe7XWWNkaVcZWYALTvS8iLvA2rrMt7Cbw6igCl7FO74W7oYKHSGaewSvE/pOtLjKXiM+Xzu6SJIyxK31c9nPp+rlEf9WMB1sxfeM8fHx2q+zs/PVSridDrF4eEhHMfB0dGRjZR/hLDkbnEL2WwWjUZDLf6yLSxJ25SuBNxoCP+vvTP7beO6wvg3XCTuFCVKlFW7SYw4Tdqi6EuBouhD0ZeiD/2vCxToUwqjLrolbRrJsiKFoiiK1EJOH4Tv6vBqNmqxzfH3AwRb4nDunRE13z3nnqXRaMy5h/kvv5juRlGly5GuVT+NiA8W1rr2sSJvfxZ1HMcdDocuLY+ubpbRpWj4D8mkcwOL71fHYaOzCffPucAqFotuYeSXKn0MkuZvFwpJiwZ+PmiZR1nudpuFKYBs8WuPiwouumtcRJbAQPuZJAzY49z8wk5J41oB97Mr/N87z83vbYyBn9Nvi06RTqeDZ8+ezW1TtVotV7vCv277s7i/AfF+I3EXt2DBFD6kR6MR+v0+RqMRWq0WyuUyRqMRzs7O3L8MOiuXy65Ahm0S4n/P89O9THFnwBOt5+l06qxnYD5P2idtL5w597wGRjXX6/U5cbcP2iw54cSm9WUl6dy+SLK5TrPZdHM+Pz+fK9X6EEVGFo2AT3NzW/g7tsGWVtz9LA5aqiyCZIsfheFNf3VfcK1w2oVS0qLjPiTVG4jDfl6TPtO2vjtwk6/Oa7Id7fxz0yqv1WquqRRTXfm1yGdcLA+qLS9iSSt9aaudWYGxFrR9yPJ9No83C2nWuD1/HKenp/jqq6/wl7/8BfV6HT/5yU/w/PnzWxaJP3+6WePGsPuyUXO+SwBe1H2877F2HmlziZq7/56075PmkPXaHpqHHi/OzZ92jxf14iSNlVRPoVgsYmtrC59//jkA4I9//GOsVyHusy2WF1nuIpa4euq+QFPoaUnxi+lYtNbsPqlNVbPiaUvU+t3TeHwUcYLhB1h99tlnGI1G+Nvf/oZarYZms3lrDhYr3H6usj3GjsX32Pkk1ab352hdrf7Cga/R8s0SYOh3m7Pz86+FYyZtL9hrtoFWcfnW/nmjBNC3tK172S4I3neyzjHu3hN/MWyt9SgXub2X9u/r+PgYp6en2NzcxK9//Wv88pe/dOV/rcfkPtci3k8k7mIhbKU3P9ALgIuQZyBdo9FAo9FAs9lErVZz7ngWLpnNZhiPxy5YiMFitt853bcAEi2VOFhTvdVqYTKZuBrnLLFrS6AyopgwUpv/5/h049N9zKAoLlCurq7mXOT2e184eW18aJdKpblOeSyOwmPsfrNdUPDYOCuMbm77vqjFAecfhb1ue+6sQmDzvxlL4Z/Lbz1sxcouArJuBaS9ZrGLF793e9Lx9yUMQ7cdVS6XXWfEILhOQRuNRi6ok39rwO09dwC3FpYA0Gg0sLOzg7W1NZdTb4+RkOcPibuIJeoP3hf3lZUVFzgHwAXLdTodNJtNl9vOghhBELha81bcGR0/HA7nUs7YgIPR9TZSOasrmLnxGxsb+Pbbb7GxseH2IQHMpRpxHH5PC5mpcCwqwuMo7BQgFiXh97xXfuqcFeHV1VVX5cxGXfMBTMGjB4TnolfEvw9RVj/FigsUbqdEFT6Jql3uLyb86mj+ZyXOcueijaliLM1KeP94DL84Xz94LAleP7eMFgnAYz0HHmMXFVki4X3iXPH2Z4xXYZVGXnen03FFa4IgcOWZ7T2J8mhZjxAbPRGm0D1mAKZ4t2QSd+29CADO1c6KVaxe5RfDqdVqWFtbc+Vk2+02arWaC4z6/vvv58R9MplgdXXVFQeZTCa3Up9o1U4mExdgl5ZHDNw8VBnRT+uZ1e2ijme09s7ODobDoct/n06nzivBxQwAJ1D9ft/NOQxDtw1BUWMtdaaA0etRqVRcuV/+3OZ0MxCRgsR0sslkMrdoYgAV7411x9tGJkw5ZHUyH9uBjnPn/EqlEoIgcIsR6za3xIk7+wwwELBQKMylc4XhdaGeyWTirPyLiwu3mGKaF8dkwJiN+YgTLD+WIAq+Np1Ob83DlpT1rfokyzfLHjt/L/V6Hdvb226RGwQBtre30e/33Zj7+/v49NNPsbGx4cQ9bRvlyZMn6PV6bkGwLNsc4u7IcheZoGjs7u66CnNsC2thVTDWoq/VaqhWq66MK9t5jkYj91BixDpT68bj8dweOMWOLktbppOCZrG5zXHWEtPKfLfmysqKi9Z+/fo1BoMBLi4uXFc7eilsKl+hcN0pLwgCV3aXY7Bxju2lfXFxgWq16sZeXV1112fL5NotgHa7jel0isPDQ/e7oPjwQR2GIU5OTrC+vu5+Zu8FrXFa61xAnJ2d4fLy0i3SuBBh8SKOA9zUg6clmfR58eFCjos3LrTsQobH2Epvl5eXqNVqcyJpxZ3ldm2MB/+N+hz4Vrj9ud3vt/OwngR+9rjgS7Pks7j2+TmuVCrodrvo9/suvbTb7brKkaTb7aLT6US65aPY2NhwiwHxYSBxFwvBh7Pd9yMUjmq16tzyKysrrhY9U+f4ZR+i3333HQaDgWs2A9y4lwuFwlwjG7t3zHami8ASosCNJUjPgHWzM32PsQDr6+uoVqtzvbD5cF1ZWXHFRy4vL3F2duYWKTZwiYLD7YKrqyvU63XXGISpfqyeB1yLe61Wc13dmONeLBbdookCcX5+jkql4lILWWa3VCo5658Bi5wXxYnpjLT4eY9Y171QKLj7dZfUL2678PfLc9jvbd4499t5X7hw9IPsrLBbz1JUrXgucPg7toGbdnwea0si2wI1wGIezSxxCfSotNtttFotdLtdtNttrK2t4dmzZ87zs7W15WJaWI/CH4OL5M3NTVxcXKDX66HZbEbeE5FPJO4iE7QsbEnZKCjuFEJa5icnJ64hCJuCADeW2sHBgXuQRnF8fOzct3yYlUolV5oWmC9QExVUxGPOzs4wGAwQBAH6/T6q1epczADF7qOPPkIQBK47WaVSQaPRmFvYUGjPzs7w5MkTV4CHVdY4JsWX++oXFxfumkqlEra3t90+72QymRP3SqXiagV0u100m023N21rtdNSPzk5cVsgfG+73cbOzg7C8Dqj4fT0FAcHBwDg2veyWQm3U3Z3d+fuK+99tVp1OdNxRO1pHxwcYDgcuh7zdk8duBakyWTimgtRbFkAidUN4z57SfPgXOx9s2VtbW8C3qONjQ33mu+K50IqLiAtysuQBMesVCrY2NhAt9vF559/jp/97Gf48ssvsbGxAeD67+u3v/0tvvzyS4RhiF/84hfu/fwbnc1m+Oc//4m9vT385je/Qb/fdy5/Oy+J/HKTtriUuItMcK/YNi3xYYAWRZC14b///nv0+33XytO6HFlHfjKZJEbCR1nnXDiQLCViw/CmH3YQXLfsHI/HrqwtG8QAcPvaAJyw2Ch7S61Ww3Q6ndvTJ/b/s9l1x7xut+us7+FwiG6367wc/nzPz8/nXqMlaUuzEu6J+/eLFv5sNnNztAFW9j7a7AHOwd5XVizk9URhtwLOz88xHo/dXO3+tV3Q0d1NQaWb+unTp2g0Gs7r8DawwX9RAYZZ3k+yiijjVXq9HobDIc7Pz/Gvf/0L29vbc+d69eqVKz1Mdnd3MR6P8eLFC/z973/HZDLB5uYmgiBw22fT6RSvXr1CGF63V7b9JMRysMjnSuIuUikWi1hZWcHa2lrqsXSL0s17enrqrHZa7uz1TmuDEdxJD09apfbhThe4ffD6AV42Ap3jDAYDF8THaHibakbB+utf/+r2O3d2dlwmQFwpTrryg+C6E5516VpXLoWWQYPscsdrtOlpNiiOiwd7Xgokr5kxACwTzOYsvM/8HXG+vGaLTfmz95oeCH+rIe73BWBuAWKb7lhh98Wd3dD4WaInI6r63mNYn3Tp262BxwoqtvOn5d7pdPDFF1+4MsNcUPvXarv80Us2GAxQr9ddTMdgMECj0XDueC4IyuUyTk5O3KJJVnz+kLiLVGhB2YCeKKwrlnt+fpla+zNbKzvLwzMqr5nlSaNet/O3wVI26vni4mIuj9xycnKCWq2GnZ2dOevJh8Lp58Hz/764c950xXJf3xb8see2AYTc97alWW15Ulq+7GFvtyrYcIRbFrzvfu1w7kUnXW+WDm28divmtt+5vQ7Okee3ZYj5nrctQv4e+2PDBVm73Y5t1GLd6jaNkZ4nNl0idmESBAHa7bb7nq9J2POJxF2kYlOjkuBDfzQauch3G0Bnm80wonxR/Khnm1MelcvMam4+0+nUueeZ9uQ/6OzCIWmflzEDrAYWBNftZJk/b9t/8gEOwNWHp4BxbDsWLXeb92/3gf29YL9KHnCTAUDL3RaF4fdp7m57Xzgf3/0fJRJ2j9sGqNnvbZ67DZBj1oC9P1k+h1Es8lmzQXVpKWb3xS7KaLnbbAcbq5EEgzKTKBQKkRkuYnlY5HMncRdvBf8haa38LB/YLHnC93Gd+u+186JQZv3Durq6wr///W/3sLUP8EXmYr0Nacctct77EPV7vO953+cAr7Trs96EtOPi4lT880QhC1ssisRdvFVs0NqiosDjbb9r4KbwS9YHsW/98zXf6qdlSuszrjiKv39Mb4I9V5qFa7HH0i1sU7a4/26zAqK8DkypyzrWItXK7LhAvPjYYjr+7zxu0fQ+iFicl4DbOMT3xvBnUedLgvUO7uqZEMJH4i4eFV8wmUrnN55Jep8PS9ISGzTml3m1Y9t/szyAKV7WPR83HxZm4b9xFlkW4bILAyvs3AP2m+pEYfeyk8a2+65J4u57MuIC7qLOzzry/v71Igu8JMv2LhZzlvHoeeH8WSeAWwoAXP0AG9y26DyCIMDV1RWq1arEXTwYEnfxoPh7v4QR5EB0s5I0rCgcHx/PvfbDH/7Q9Wf/+uuv58b055YlXc7CgjT+mJbz83McHx+7FD9bcIfjZoExBH7VMT9tjCVRGajnu/Hjzu1/ATeWKKPTLVH3D4Ar6pOlOhr35+nR4N4yX4taJPjXYOMI7OtZhNseH3X9/vx5zaVSyeXyHx8f4+joCE+fPgVwnY+/t7cHAOj1emi32y5LIa3Gexyz2QydTsdFr/u8D94MsVxI3MWj4LuhmZpTq9VuPcDjRCTuvF999dVc9bpvvvkm8gEa5Wb3sdZolPXJnO80ce/3+zg+PnaBg8SPVo6CosCI8Gaz6bqAUfBLpdJccFrWsqenp6dotVpujDC8zvOnZWq3OCjYFt9tnxZoVqlUUC6XMRwOnUXKdDh6VbhN4Qu1P3d/HnwP57CI4PF91oMQF7MQBNf1Gnq9nnt9MBhgc3PTlbvd398HADSbzdSCPnaucfdtNpthfX19LtLdf68QlrSFrcRdPBpbW1tYWVnB6emp650ehuFc0ZVFmU6n+PTTT13q2eHhoSuoQtd8nJt/0YckxWkymcwJtg8zBEajEcbj8VznOpJk5dpUvEKh4IqnUNCYwgZcW5RMI8ziEeCWAq1cP+0vqQHKIi5zeywFHYCr02+3NqI62fE8UQFqtjRslsj+NFhWOMmVXi6XXV0HdhBkFLv1PG1tbc0Vk7HzXnTx0Wq13Jwk6CKNtM+IxF08KPZB/+zZMzQaDezt7aFQKLiH4MnJyZ3PH4Yh1tbWMB6PcXR0hOFwOFdN7a7n5Nx9mEJGSzQKvn56euqsar6X52Yns6ix/b1xu1/O121hmkUzA5hPbgsMceHij03LfZHcbrtwoevdz69nwR6OG5U/HgTBnMvebgNYWOfeHzsNepBYb58d/lZXV933bAAUhjfVD7e2tlwxHeC6XO/Tp09dDf+HqJpnxV3CLuJY5O8+k7jrwyayEPU5ieoex/Kti1rT/GA/f/4cw+EQ33zzDV6/fo2TkxP3gM2aF+yfMw7uuff7/dhzTiYTHB8fO2Hj+MzlZxCW3W8GboTPF6ioPXeeJ4uw28VKrVZzne0s5XIZrVbLjedjtz2i8F/n9ywzu7a25vrb0y3fbDYxm80wGAwir8E2jeH3UY2Bjo6O3DWsra3h6Ogok8AXCgVsbm66Ouvtdhvb29uug+Hm5iZ6vR5KpRLG4zH+/Oc/AwB2dnbw8ccf409/+tNcTMmvfvUr/OMf/3A1+oHk7Is4eBxr+gvxEMhyFw8O99YLhQIajQY++eSTW0FmxI/CBpKj5xnVTfdot9t1/cbPzs5upSrdd2Hq11mPO4biHbd372NFzMdPMeNxfvndNLgF4rdWZWEY7vH774nD/z0xDYzXQ5c6S+/aa2W8wCL3iBX/bDqfHZvBeosELMZdl90OYFZHt9sFAFe+tdvt3voctlqt2L4H9veYFOnP16rVamTfAiHugsRdPCgsn1qtVl0E9traWqxbOoos+erAtdi1221MJhNXO5uimWWsqEAq/2d0y/tV3fxj/AAxf672/9YVH2fhWRHj2HFjRF0Xj7GLDv+YqJK7cfP3xZjn9MWdcOFgxTyuRnuc0PN3GdVMh8dHXYOds43DWGShVygUXH97BoPa0q08HwNE08gS2c+tASHiWOQzLHEXDwq7x3H/lA/AqKYfvlWTxcoBbvbsi8Ui1tfXXcBYEAQubSzpPEn4c2EgV1QQoC9e9uGdtHBICwrzhcBG0vsLgahxrIjayHpia93fJYDOHsv7Hrf4oahzLmn412Q9FxZ6b/yaB3zNX3zw51nhZwuAawbkby8x4yCt50LWbSJG6S+6tSREFBJ38aCw+YntZMXo5IcgDMM5ca/X62g0Gri8vMR4PE6tWc+ub77b1Iev2SIsaal0UZat/564KPe46HHid8NLmrs9Nqo5iC1+k7Q3nHQfffGkmzzuWH9eUcSJWZTFn1TAJy4YbxFxp3DHfc+fMRjvoZGwi/sicRcPjv9geqgHVZRY2v3SYrGITqcTGWBH4oqW3IUol3vc62leiSyvpS1E7ssiVrz1WqRZmlm3WdJ+Zkka7yHuRdQc7jJPId4VEnextDCozn5Vq1VMJpO53uDATY9u21oVuHYV8zUfRmvTQr3PooWBbVHnAbIFE8Ydlxa4xa50/tx9b0rUfn+SgNq9bFZo86Hno1wuz+3PX15e3rofdruCr0UJNbdIFnVdP5ToC7EMSNzF0uBbgAzWYxT4bDbD7u6uq/IVhiEODw/dse12G4eHh6hWq67/Nb+PilIOw5vUtSiX8iLCcnBwgHq9fq+AKV90s4wfhqFL07Pw3qVFy2cRdzsnn/F4jNPTU7Tb7bl7eXR0hFqtNpfXzVbAwHVaGOM0/DkdHBzcaU9aVrb4kJC4i6WlVCphY2PDFXdhCtNgMHAWOwWlVqthe3sbW1tbeP36Nc7Pz/Hxxx+7kqJRD/7pdOoEhoVkLGliYRcjUeNYKzVLS1m7r10oFDAej/Gf//wHL168iIxp4Nij0ehWkGG1WsX29naqKz7pdWutx1nuUV3nrq6uMBgMXH65XSBkya/v9/tz98suepJgJofdyon6EiIPZBJ3ubPE+8jl5SXevHmDb7/91pVs3dnZwfHx8VxnNuA64pnRz5VKBdPp1KU6xUHLPS5YbBFxj4LnzJom6FvuzWYTq6urWF9fT6yt/+LFCxwdHWF3d9e9ViqV3P3wj+fc0+bh/yztPTZ9rVAooF6vz83BinVSSt6PfvSj2HGSCMMQw+EQxWLRfbHyn/16qBgGId4lstzF0mEtwKOjIxwdHTkr+8mTJ9jf33dlRVmAZnNzE0+ePMFkMnF59ysrK676WxR3EfcoN3XS+e0YWfD31tOaloRhiE6ng3q9jrOzM3fvWq2Ws5p9Mc3q7l8Eez+m0yk6nc6c5W5Ludr5RM3FT0nLymw2w//+9z+sr6+j3W5jbW0NzWYTtVoNlUrFWfVx4wqxTEjcxdJhq6GFYehc8xSu3/3ud+h2u9jZ2cHLly8RhiHa7TaeP3+Oly9fYjqdol6v47PPPsPLly9j86/ZChWI3nOPspbTBN0/P88T59aOOt6On/Q+e3y328UXX3yR2XWeZfz78Ic//GFuvJ/+9Kf47rvv8ObNm4Xapkbdk7jXi8Uifv7zn2N7e9tVnSuXy86Kt+IuxLIjcRdLRRAE6PV66Ha7rqxpGIbY39/H/v6+ezgXi0X0+31n2XY6HfzgBz/AmzdvXE/3w8PDW65pS5SrOc3C7fV62NjYwKtXr1KvJaqQTFp6l2/RxgXXxeXZ871ZU92i5mBfTwuos+/1Fz523k+fPnWZCXHziZtLVvjZ2dramgvkk7UulpG0vwGJu1g62N2MDIdDrK6uRrpr2UKzUqlgPB6j1WrN/VEktf3MCovpDIdD1/yD7UKTSAtgSzs26T1pIplFRN/GvjPHW1lZQb1eR6fTyRSxn3Y/ol4vFArodDpYXV2NrJgoxDKRthjVJ1wsNUEQuBagaYLKlKyHplwuo9frYX9/36XYZRF3cUOhUEC1WnX37S6pbmkEQTCXkifEsrHIglviLpaa2WyGXq+XWI70PiTtuROKELuGhWGIXq/34HOJGpeFeaJ4DIF8LNhBkI1YHmveEnbxoSBxF0sNRcAG1D0GWdy470I4mNu/7ARB8Oi/QzuWEHln+Z8KQuD9eGC/qzm8D9f+EOTlOoR4LBb5G3n8ZbIQQggh3ioSdyGEECJnSNyFEEKInCFxF0IIIXKGxF0IIYRYMlK7IL6leQghhBDiHizS4EniLoQQQuSMTOKu/FMhhBBieZDlLoQQQiwBKmIjhBBCfMBI3IUQQoicIXEXQgghcobEXQghhMgZEnchhBAiZ0jchRBCiJwhcRdCCCFyRiZxT6thK4QQQoj3B1nuQgghRM6QuAshhBA5Q+IuhBBCLBlq+SqEEELkALV8FUIIIT5gJO5CCCFEzpC4CyGEEEuAWr4KIYQQHzASdyGEECJnSNyFEEKInCFxF0IIIXKGxF0IIYRYMlTERgghhMgZKmIjhBBC5IBFOrRmEvdFcuuEEEII8W6R5S6EEELkDIm7EEIIsQSoQp0QQgjxASNxF0IIIXKGxF0IIYTIGRJ3IYQQImdI3IUQQoicIXEXQgghckYmcV+kKo4QQggh3i2y3IUQQoicIXEXQgghcobEXQghhFgy1PJVCCGEyBlq+SqEEELkgAdv+SqEEEKI5UHiLoQQQuQMibsQQgixBKjlqxBCCPEBI3EXQgghcobEXQghhMgZEnchhBAiZ0jchRBCiCVDFeqEEEKIHGAFXRXqhBBCiA+MTOK+SG6dEEIIId4tstyFEEKIJUBFbIQQQogPGIm7EEIIkTMk7kIIIUTOkLgLIYQQOUPiLoQQQuQMibsQQgiRMyTuQgghRM7IJO5pNWyFEEII8f4gy10IIYTIGRJ3IYQQImdI3IUQQoglQy1fhRBCiByglq9CCCFEzlDjGCGEEOIDRuIuhBBC5AyJuxBCCJEzJO5CCCFEzpC4CyGEEEvAItViJe5CCCHEkqE8dyGEECJnpKXFle5zYjWUEUIIIRZnkZz1u7xnIXGfTqcLT+auFArXToXZbPbWxhRCCCHeFkEQoFgsPsq5FxL33d3dR5lEFL1eDwDw5s2btzamEEII8bao1WrY3t5+lHNnEveLiwvs7e3NuQQe2iX/4x//GKPRCP/9738BAIeHhwjDEBcXFw86jhBCCPG28TUOANbX19+duE8mk0cZ2Gdvbw9nZ2c4PDx8K+MJIYQQbwtqXL/fx0cffYQgCFCv1xcylMMwdMenvS9V3E9OTnBycpJ58LtycHDw6GMIIYQQ7wJq3OrqKn7/+98vHFfGIHb/K/Z4RbwLIYQQ+UJ57kIIIUTOkLgLIYQQOUPiLoQQQuQMibsQQgiRMyTuQgghRM6QuAshhBA54/+0XtUMG1xVPwAAAABJRU5ErkJggg==;clipPath=inset(11.67% 20.67% 55% 46%);strokeWidth=4;imageBorder=#ff0000;" vertex="1" parent="1">
          <mxGeometry x="560" y="90" width="190" height="190" as="geometry" />
        </mxCell>
      </root>
    </mxGraphModel>
  </diagram>
</mxfile>
